<svg width="13" height="11" viewBox="0 0 13 11" fill="none" xmlns="http://www.w3.org/2000/svg">
<path d="M12.4936 3.84082C12.4936 7.66895 6.81758 10.7675 6.57586 10.8955C6.51215 10.9298 6.44093 10.9477 6.36859 10.9477C6.29625 10.9477 6.22503 10.9298 6.16133 10.8955C5.91961 10.7675 0.243591 7.66895 0.243591 3.84082C0.244605 2.94188 0.602156 2.08005 1.2378 1.44441C1.87345 0.80876 2.73528 0.451209 3.63422 0.450195C4.76351 0.450195 5.75226 0.93582 6.36859 1.75668C6.98492 0.93582 7.97367 0.450195 9.10297 0.450195C10.0019 0.451209 10.8637 0.80876 11.4994 1.44441C12.135 2.08005 12.4926 2.94188 12.4936 3.84082Z" fill="#FFF3EC" fill-opacity="0.4"/>
</svg>
