<svg width="64" height="64" viewBox="0 0 64 64" fill="none" xmlns="http://www.w3.org/2000/svg">
<g style="mix-blend-mode:plus-lighter">
<g style="mix-blend-mode:multiply" opacity="0.36">
<path d="M32.6897 56.3117C27.0273 56.3117 21.5513 54.2757 17.2703 50.5787C13.0345 46.9206 10.2282 41.8756 9.36832 36.373C9.2095 35.3574 9.90409 34.4055 10.9191 34.2467C11.9344 34.0881 12.8859 34.7823 13.0448 35.7982C14.5655 45.5279 22.8274 52.5895 32.6897 52.5895C40.575 52.5895 47.7227 47.9236 50.8995 40.7024C51.3133 39.7622 52.4117 39.335 53.3517 39.7489C54.2921 40.1627 54.7191 41.2612 54.3054 42.2022C50.5345 50.7734 42.0497 56.312 32.6897 56.312V56.3117Z" fill="url(#paint0_radial_1774_668)"/>
</g>
<g filter="url(#filter0_f_1774_668)">
<path d="M31.9927 54.7994C26.5256 54.7994 21.2384 52.8337 17.1052 49.2642C13.0154 45.7322 10.3055 40.8611 9.4756 35.5494C9.38631 34.9781 9.77689 34.4425 10.3481 34.3531C10.9186 34.2655 11.4544 34.6545 11.5437 35.2259C13.1268 45.3545 21.7268 52.7055 31.9927 52.7055C40.2004 52.7055 47.6405 47.8487 50.9475 40.3323C51.1803 39.8028 51.7979 39.5632 52.3268 39.7957C52.8558 40.0285 53.096 40.6466 52.8633 41.1757C49.2223 49.452 41.0299 54.7994 31.9927 54.7994Z" stroke="#FF6B00" stroke-width="2"/>
</g>
<path d="M31.9927 54.7994C26.5256 54.7994 21.2384 52.8337 17.1052 49.2642C13.0154 45.7322 10.3055 40.8611 9.4756 35.5494C9.38631 34.9781 9.77689 34.4425 10.3481 34.3531C10.9186 34.2655 11.4544 34.6545 11.5437 35.2259C13.1268 45.3545 21.7268 52.7055 31.9927 52.7055C40.2004 52.7055 47.6405 47.8487 50.9475 40.3323C51.1803 39.8028 51.7979 39.5632 52.3268 39.7957C52.8558 40.0285 53.096 40.6466 52.8633 41.1757C49.2223 49.452 41.0299 54.7994 31.9927 54.7994Z" fill="#F09709"/>
<path d="M31.9924 54.2179C26.6646 54.2179 21.5124 52.3022 17.4849 48.8241C13.499 45.3821 10.8587 40.6358 10.0496 35.4595C10.01 35.2058 10.1835 34.9675 10.4374 34.928C10.691 34.8884 10.9292 35.062 10.9688 35.316C12.5962 45.7292 21.4381 53.2875 31.9924 53.2875C40.4304 53.2875 48.0798 48.2943 51.4792 40.5669C51.5828 40.332 51.8572 40.2253 52.0923 40.3282C52.3275 40.4319 52.4342 40.7067 52.3306 40.9416C48.7823 49.0068 40.7992 54.2179 31.992 54.2179H31.9924Z" fill="#FFDF46"/>
<path d="M31.9919 53.869C26.748 53.869 21.6766 51.9837 17.7125 48.5598C13.7893 45.1717 11.1901 40.5 10.394 35.4055C10.3841 35.3421 10.4274 35.2825 10.4908 35.2726C10.5538 35.2641 10.6138 35.306 10.6237 35.3697C12.278 45.9541 21.2645 53.6362 31.9919 53.6362C40.5683 53.6362 48.3428 48.5612 51.7981 40.7073C51.824 40.6486 51.8928 40.622 51.9514 40.6476C52.01 40.6735 52.037 40.742 52.0111 40.801C48.5187 48.7395 40.6607 53.869 31.9919 53.869Z" fill="white"/>
<g style="mix-blend-mode:multiply" opacity="0.36">
<path d="M31.8762 40.4926C27.3879 40.4926 23.7363 36.84 23.7363 32.3503C23.7363 27.8607 27.3879 24.208 31.8762 24.208C36.3645 24.208 40.016 27.8607 40.016 32.3503C40.016 36.84 36.3645 40.4926 31.8762 40.4926ZM31.8762 27.9302C29.4396 27.9302 27.4574 29.913 27.4574 32.3503C27.4574 34.7876 29.4396 36.7704 31.8762 36.7704C34.3127 36.7704 36.2949 34.7876 36.2949 32.3503C36.2949 29.913 34.3127 27.9302 31.8762 27.9302Z" fill="url(#paint1_radial_1774_668)"/>
</g>
<g filter="url(#filter1_f_1774_668)">
<path d="M31.1785 38.9806C27.1391 38.9806 23.8525 35.6931 23.8525 31.6524C23.8525 27.6118 27.1391 24.3242 31.1785 24.3242C35.2179 24.3242 38.5045 27.6118 38.5045 31.6524C38.5045 35.6931 35.2179 38.9806 31.1785 38.9806ZM31.1785 26.4178C28.2931 26.4178 25.9459 28.7661 25.9459 31.6521C25.9459 34.538 28.2935 36.8863 31.1785 36.8863C34.0636 36.8863 36.4111 34.538 36.4111 31.6521C36.4111 28.7661 34.0636 26.4178 31.1785 26.4178Z" stroke="#6A00FF" stroke-width="2"/>
</g>
<path d="M31.1785 38.9806C27.1391 38.9806 23.8525 35.6931 23.8525 31.6524C23.8525 27.6118 27.1391 24.3242 31.1785 24.3242C35.2179 24.3242 38.5045 27.6118 38.5045 31.6524C38.5045 35.6931 35.2179 38.9806 31.1785 38.9806ZM31.1785 26.4178C28.2931 26.4178 25.9459 28.7661 25.9459 31.6521C25.9459 34.538 28.2935 36.8863 31.1785 36.8863C34.0636 36.8863 36.4111 34.538 36.4111 31.6521C36.4111 28.7661 34.0636 26.4178 31.1785 26.4178Z" fill="#9E1FF2"/>
<path d="M31.1791 38.3984C27.46 38.3984 24.4346 35.3717 24.4346 31.6518C24.4346 27.932 27.46 24.9053 31.1791 24.9053C34.8981 24.9053 37.9236 27.932 37.9236 31.6518C37.9236 35.3717 34.8981 38.3984 31.1791 38.3984ZM31.1791 25.836C27.973 25.836 25.365 28.4451 25.365 31.6518C25.365 34.8586 27.9733 37.4677 31.1791 37.4677C34.3849 37.4677 36.9932 34.8586 36.9932 31.6518C36.9932 28.4451 34.3849 25.836 31.1791 25.836Z" fill="#CD8AFF"/>
<path d="M31.1787 38.0493C27.6522 38.0493 24.7832 35.1794 24.7832 31.6519C24.7832 28.1243 27.6522 25.2544 31.1787 25.2544C34.7052 25.2544 37.5742 28.1243 37.5742 31.6519C37.5742 35.1794 34.7052 38.0493 31.1787 38.0493ZM31.1787 25.4869C27.7804 25.4869 25.0156 28.2525 25.0156 31.6519C25.0156 35.0512 27.7804 37.8168 31.1787 37.8168C34.5771 37.8168 37.3418 35.0512 37.3418 31.6519C37.3418 28.2525 34.5771 25.4869 31.1787 25.4869Z" fill="white"/>
<g style="mix-blend-mode:multiply" opacity="0.36">
<path d="M32.9231 51.6591C29.9102 51.6591 26.8244 50.2876 26.7222 47.2237C26.7065 46.7529 26.7297 46.2575 26.7518 45.7785C26.7869 45.0244 26.8524 43.6211 26.5531 43.3341C26.4734 43.2574 26.1162 43.1309 25.3333 43.1997C18.8488 43.7694 17.8608 40.8058 17.7371 39.5058C17.4692 36.6918 15.7842 36.7941 14.974 36.8446C13.0658 36.9629 11.5522 36.5306 10.4759 35.5637C9.22402 34.439 9.09928 33.0518 9.08701 32.7852C9.08564 32.7565 9.08496 32.7279 9.08496 32.6992C9.08496 19.6793 19.6743 9.08643 32.6906 9.08643C45.707 9.08643 56.2963 19.6793 56.2963 32.6992C56.2963 34.3316 56.1286 35.9629 55.7977 37.5479C55.7387 37.8309 55.6181 38.0855 55.4531 38.3007C55.4957 38.5352 55.4933 38.7817 55.4395 39.0292C54.9991 41.0424 53.3864 42.2711 51.5156 42.0157C49.8094 41.7832 48.1568 40.2122 48.2727 37.6556C48.2307 37.671 48.1776 37.6989 48.1173 37.7477C47.7396 38.0538 47.3579 38.9365 47.4186 40.4976C47.5757 44.5324 45.9783 46.146 45.0124 46.7488C43.9384 47.419 42.6546 47.4726 41.5779 46.8916C40.3721 46.2415 39.6294 44.9098 39.5909 43.3296C39.5746 42.6573 39.018 42.3 38.7245 42.297H38.7228C38.4638 42.297 38.1635 42.8615 38.1158 43.9113C37.7893 51.1003 34.059 51.6591 32.9238 51.6591H32.9231ZM25.7454 39.4581C27.1697 39.4581 28.306 39.8573 29.1301 40.6486C30.6481 42.1064 30.5448 44.3289 30.4688 45.9517C30.449 46.3761 30.4303 46.7771 30.4412 47.0996C30.4582 47.6106 31.9224 47.9369 32.9231 47.9369C33.2564 47.9369 34.2424 47.1664 34.3978 43.7425C34.5614 40.1427 36.7045 38.5454 38.7631 38.5751C41.2078 38.6007 43.2476 40.6922 43.3103 43.2376C43.5216 42.8258 43.7537 42.0246 43.6999 40.6425C43.5465 36.7078 45.2714 35.0936 46.3133 34.4816C47.5764 33.7394 49.0992 33.7282 50.2873 34.4533C51.411 35.1386 52.0452 36.3591 51.9944 37.7286C52.0391 37.6478 52.0895 37.5711 52.1451 37.4988C52.1035 37.2697 52.1049 37.0293 52.1553 36.7876C52.4338 35.4526 52.5752 34.0769 52.5752 32.6996C52.5752 21.732 43.6549 12.809 32.6906 12.809C21.7264 12.809 12.879 21.6587 12.8064 32.5649C12.9257 32.9744 13.6765 33.1953 14.7467 33.1295C18.4896 32.9024 21.0526 35.1958 21.4384 39.1233C21.649 39.3074 22.6435 39.6998 25.0082 39.4922C25.2617 39.47 25.5075 39.4588 25.7454 39.4588V39.4581ZM12.8057 32.6392C12.8057 32.6594 12.8057 32.6791 12.8057 32.6992C12.8057 32.7044 12.8057 32.7064 12.8057 32.7064C12.8057 32.7064 12.8057 32.6686 12.8057 32.6392Z" fill="url(#paint2_radial_1774_668)"/>
</g>
<g filter="url(#filter2_f_1774_668)">
<path d="M32.2254 50.1467C29.7964 50.1467 26.928 49.1911 26.838 46.4985C26.8234 46.0597 26.8448 45.6025 26.8673 45.1184C26.9226 43.9341 26.9853 42.5918 26.4192 42.0484C26.0892 41.7317 25.4652 41.611 24.5644 41.6904C19.0134 42.1776 17.9746 40.0448 17.8495 38.7305C17.507 35.1327 15.0377 35.2844 14.2263 35.3335C12.5436 35.4372 11.2297 35.0755 10.3218 34.26C9.28979 33.333 9.20799 32.1783 9.20219 32.0494C9.20151 32.0334 9.20117 32.0174 9.20117 32.0013C9.20117 19.4301 19.4255 9.20264 31.993 9.20264C44.5604 9.20264 54.7848 19.4301 54.7848 32.0013C54.7848 33.5781 54.6229 35.1532 54.3035 36.6836C54.2408 36.985 54.054 37.2287 53.808 37.3729C53.9504 37.5976 54.008 37.8765 53.9467 38.1574C53.5435 40.0025 52.0994 40.6728 50.928 40.5112C49.579 40.3274 48.2744 39.0435 48.3909 36.9451C48.409 36.6192 48.3003 36.3747 48.0763 36.2383C47.8633 36.1085 47.4922 36.0539 47.0883 36.2915C46.2812 36.7658 45.8399 38.0889 45.9077 39.8317C46.0488 43.4554 44.7005 44.8508 43.8839 45.3601C43.0612 45.8736 42.083 45.9172 41.2667 45.4771C40.3216 44.9674 39.7385 43.8962 39.7071 42.6119C39.6812 41.5455 38.8053 40.7931 38.0354 40.7853H38.0235C37.2028 40.7853 36.6728 41.6778 36.6046 43.1769C36.3108 49.6446 33.1787 50.1474 32.2257 50.1474L32.2254 50.1467ZM25.0456 39.5743C26.2542 39.5743 27.202 39.8972 27.869 40.5374C29.1205 41.7392 29.0305 43.6668 28.9586 45.2152C28.9382 45.6564 28.9187 46.0734 28.9303 46.4283C28.9838 48.034 32.1934 48.0528 32.2257 48.0528C33.2226 48.0528 34.347 46.7467 34.5137 43.0811C34.6609 39.8375 36.4894 38.6906 38.0248 38.6906H38.0572C40.0691 38.7118 41.748 40.4478 41.7994 42.5601C41.8144 43.1765 42.0472 43.5185 42.2595 43.6334C42.4146 43.7172 42.5884 43.7002 42.7759 43.5829C43.3342 43.2345 43.9006 42.0873 43.8157 39.9122C43.6791 36.4013 45.1429 35.0049 46.028 34.485C47.0321 33.8948 48.2345 33.8812 49.166 34.4499C50.0501 34.9889 50.5412 35.9649 50.4805 37.0603C50.4321 37.9304 50.8251 38.3831 51.2106 38.4356C51.6768 38.4956 51.8496 37.9484 51.9017 37.7088C51.9668 37.4115 52.1519 37.1718 52.3953 37.0293C52.2545 36.8074 52.1965 36.5326 52.2545 36.2547C52.5445 34.8651 52.6918 33.4336 52.6918 32.0003C52.6918 20.5834 43.4064 11.2956 31.9933 11.2956C20.5802 11.2956 11.3207 20.5568 11.2948 31.9516C11.3323 32.2441 11.6377 33.3937 14.0991 33.243C17.4167 33.0381 19.599 35.0165 19.934 38.5311C20.0178 39.4124 21.7642 39.8324 24.3824 39.604C24.6118 39.5838 24.833 39.5736 25.046 39.5736L25.0456 39.5743Z" stroke="#6A00FF" stroke-width="2"/>
</g>
<path d="M32.2254 50.1467C29.7964 50.1467 26.928 49.1911 26.838 46.4985C26.8234 46.0597 26.8448 45.6025 26.8673 45.1184C26.9226 43.9341 26.9853 42.5918 26.4192 42.0484C26.0892 41.7317 25.4652 41.611 24.5644 41.6904C19.0134 42.1776 17.9746 40.0448 17.8495 38.7305C17.507 35.1327 15.0377 35.2844 14.2263 35.3335C12.5436 35.4372 11.2297 35.0755 10.3218 34.26C9.28979 33.333 9.20799 32.1783 9.20219 32.0494C9.20151 32.0334 9.20117 32.0174 9.20117 32.0013C9.20117 19.4301 19.4255 9.20264 31.993 9.20264C44.5604 9.20264 54.7848 19.4301 54.7848 32.0013C54.7848 33.5781 54.6229 35.1532 54.3035 36.6836C54.2408 36.985 54.054 37.2287 53.808 37.3729C53.9504 37.5976 54.008 37.8765 53.9467 38.1574C53.5435 40.0025 52.0994 40.6728 50.928 40.5112C49.579 40.3274 48.2744 39.0435 48.3909 36.9451C48.409 36.6192 48.3003 36.3747 48.0763 36.2383C47.8633 36.1085 47.4922 36.0539 47.0883 36.2915C46.2812 36.7658 45.8399 38.0889 45.9077 39.8317C46.0488 43.4554 44.7005 44.8508 43.8839 45.3601C43.0612 45.8736 42.083 45.9172 41.2667 45.4771C40.3216 44.9674 39.7385 43.8962 39.7071 42.6119C39.6812 41.5455 38.8053 40.7931 38.0354 40.7853H38.0235C37.2028 40.7853 36.6728 41.6778 36.6046 43.1769C36.3108 49.6446 33.1787 50.1474 32.2257 50.1474L32.2254 50.1467ZM25.0456 39.5743C26.2542 39.5743 27.202 39.8972 27.869 40.5374C29.1205 41.7392 29.0305 43.6668 28.9586 45.2152C28.9382 45.6564 28.9187 46.0734 28.9303 46.4283C28.9838 48.034 32.1934 48.0528 32.2257 48.0528C33.2226 48.0528 34.347 46.7467 34.5137 43.0811C34.6609 39.8375 36.4894 38.6906 38.0248 38.6906H38.0572C40.0691 38.7118 41.748 40.4478 41.7994 42.5601C41.8144 43.1765 42.0472 43.5185 42.2595 43.6334C42.4146 43.7172 42.5884 43.7002 42.7759 43.5829C43.3342 43.2345 43.9006 42.0873 43.8157 39.9122C43.6791 36.4013 45.1429 35.0049 46.028 34.485C47.0321 33.8948 48.2345 33.8812 49.166 34.4499C50.0501 34.9889 50.5412 35.9649 50.4805 37.0603C50.4321 37.9304 50.8251 38.3831 51.2106 38.4356C51.6768 38.4956 51.8496 37.9484 51.9017 37.7088C51.9668 37.4115 52.1519 37.1718 52.3953 37.0293C52.2545 36.8074 52.1965 36.5326 52.2545 36.2547C52.5445 34.8651 52.6918 33.4336 52.6918 32.0003C52.6918 20.5834 43.4064 11.2956 31.9933 11.2956C20.5802 11.2956 11.3207 20.5568 11.2948 31.9516C11.3323 32.2441 11.6377 33.3937 14.0991 33.243C17.4167 33.0381 19.599 35.0165 19.934 38.5311C20.0178 39.4124 21.7642 39.8324 24.3824 39.604C24.6118 39.5838 24.833 39.5736 25.046 39.5736L25.0456 39.5743Z" fill="#9E1FF2"/>
<path d="M32.2247 49.5652C30.055 49.5652 27.4944 48.7569 27.4184 46.4788C27.4044 46.0636 27.4252 45.6177 27.4474 45.1451C27.5084 43.8373 27.5776 42.3547 26.8209 41.6285C26.3649 41.1907 25.5885 41.0159 24.5129 41.1106C19.4619 41.5538 18.5321 39.7749 18.4275 38.6751C18.2469 36.7781 17.3659 34.5635 14.1901 34.7527C12.6683 34.8451 11.4972 34.5345 10.7096 33.8268C9.8388 33.0447 9.78393 32.0638 9.78223 32.0222C9.78189 19.7503 19.7451 9.78369 31.9919 9.78369C44.2387 9.78369 54.2022 19.7503 54.2022 32.0008C54.2022 33.5373 54.0444 35.0728 53.7333 36.5644C53.6808 36.816 53.4344 36.9769 53.1828 36.9247C52.9313 36.8722 52.7701 36.6258 52.8226 36.3742C53.1208 34.9453 53.2721 33.4742 53.2721 32.0011C53.2721 20.2637 43.7261 10.7148 31.9922 10.7148C20.2584 10.7148 10.7215 20.2552 10.7123 31.9847C10.727 32.1532 10.9618 34.0143 14.1335 33.8244C17.1453 33.643 19.0482 35.3759 19.3539 38.5874C19.4766 39.8744 21.3272 40.4567 24.4318 40.1843C25.8053 40.064 26.7978 40.3169 27.4654 40.9575C28.5264 41.9766 28.447 43.6832 28.3768 45.1888C28.3557 45.6419 28.3359 46.0701 28.3482 46.4481C28.4191 48.5735 31.8355 48.6348 32.2247 48.6348C32.8388 48.6348 34.8606 48.2363 35.0934 43.1078C35.2219 40.2784 36.685 39.2727 38.0221 39.2727H38.05C39.5411 39.2884 41.1692 40.619 41.2173 42.5749C41.235 43.3099 41.5213 43.897 41.9827 44.1459C42.3253 44.3307 42.7159 44.3061 43.0829 44.077C43.9854 43.5138 44.4762 41.9486 44.3961 39.8901C44.3048 37.5466 45.0069 35.7595 46.3218 34.9869C47.1407 34.5059 48.1145 34.4902 48.8626 34.9467C49.5708 35.3787 49.9488 36.1375 49.8994 37.0287C49.8305 38.267 50.4897 38.925 51.1314 39.0126C51.7691 39.1009 52.2936 38.6369 52.4692 37.834C52.524 37.5831 52.7721 37.4252 53.023 37.4788C53.2738 37.5336 53.433 37.7818 53.3781 38.0328C53.0516 39.525 51.9518 40.0626 51.006 39.9344C49.9212 39.7865 48.8738 38.7231 48.971 36.9766C49.0013 36.4314 48.791 35.9923 48.3786 35.7411C47.9236 35.4639 47.3163 35.4823 46.7934 35.7891C45.7836 36.3827 45.2488 37.864 45.3262 39.8536C45.421 42.2861 44.7829 44.1132 43.5758 44.8663C42.9227 45.2737 42.1814 45.3095 41.5421 44.9648C40.7831 44.5553 40.3141 43.6703 40.2878 42.5974C40.2534 41.1788 39.098 40.2143 38.0411 40.2031H38.0214C36.8537 40.2031 36.1073 41.3026 36.0235 43.15C35.7604 48.94 33.2795 49.5652 32.2254 49.5652H32.2247Z" fill="#CD8AFF"/>
<path d="M32.225 49.2161C31.7782 49.2161 27.8567 49.1388 27.7674 46.4673C27.7541 46.066 27.7745 45.6265 27.796 45.1615C27.8604 43.7794 27.9334 42.2129 27.0629 41.3769C26.5234 40.859 25.6792 40.6576 24.4829 40.7632C20.9618 41.0708 18.935 40.3187 18.7751 38.6423C18.6153 36.964 17.8031 34.1854 14.1689 34.4046C12.7436 34.4919 11.6584 34.2103 10.943 33.5673C10.1796 32.8814 10.1326 32.0417 10.1309 32.0062C10.1309 19.9426 19.9377 10.1328 31.9922 10.1328C44.0467 10.1328 53.8535 19.9426 53.8535 32.0008C53.8535 33.5135 53.6981 35.0248 53.3917 36.4928C53.3784 36.5555 53.3171 36.5975 53.254 36.5828C53.1913 36.5695 53.1508 36.5082 53.1641 36.4451C53.4671 34.9927 53.6208 33.4974 53.6208 32.0008C53.6208 20.0711 43.9179 10.3653 31.9919 10.3653C20.0658 10.3653 10.363 20.0711 10.363 32.0008C10.363 32.0028 10.41 32.7788 11.1019 33.3975C11.7695 33.9945 12.7964 34.2546 14.1543 34.1721C17.9844 33.9362 18.8382 36.8579 19.0062 38.6198C19.1497 40.1261 21.138 40.8229 24.4621 40.5314C25.7296 40.4199 26.6328 40.6422 27.2238 41.2088C28.1706 42.1181 28.0949 43.7405 28.0281 45.1721C28.0066 45.6327 27.9865 46.0674 27.9995 46.4594C28.0813 48.9127 31.8007 48.9836 32.2246 48.9836C32.9169 48.9836 35.1949 48.5612 35.442 43.1235C35.5596 40.5399 36.8476 39.6215 38.0227 39.6215H38.0466C39.3748 39.6355 40.8256 40.829 40.8686 42.5834C40.8897 43.4453 41.2442 44.1439 41.8174 44.4531C42.268 44.6965 42.7966 44.6672 43.2676 44.373C43.7526 44.0702 44.8674 43.0263 44.7447 39.8765C44.6585 37.6656 45.2979 35.9934 46.4983 35.288C47.2062 34.8724 48.0425 34.8557 48.6805 35.2447C49.2756 35.6078 49.5926 36.2508 49.5507 37.009C49.4696 38.4685 50.2885 39.2499 51.0837 39.3579C51.7145 39.4449 52.5451 39.1162 52.8093 37.9083C52.8229 37.8453 52.8849 37.8057 52.9476 37.8194C53.0104 37.833 53.0502 37.895 53.0363 37.9578C52.7575 39.2328 51.8393 39.6924 51.052 39.5884C50.1543 39.466 49.2286 38.6028 49.3179 36.996C49.355 36.3261 49.0786 35.7598 48.5589 35.4431C47.9938 35.0984 47.2494 35.1155 46.6152 35.4884C45.4908 36.1488 44.8933 37.745 44.9762 39.8673C45.1036 43.1391 43.909 44.2461 43.3896 44.5704C42.8457 44.9099 42.2322 44.9413 41.706 44.658C41.0584 44.3089 40.6579 43.5353 40.6351 42.5889C40.5956 40.9692 39.263 39.8673 38.0432 39.8543C36.9668 39.8543 35.7842 40.6988 35.6734 43.1344C35.4168 48.7781 32.9683 49.2165 32.2236 49.2165L32.225 49.2161Z" fill="white"/>
<g style="mix-blend-mode:multiply" opacity="0.36">
<path d="M47.1878 26.6114C46.6568 26.6114 46.1292 26.385 45.7611 25.9462C45.1009 25.1587 45.2039 23.9845 45.9912 23.3241L48.3943 21.3083C49.1816 20.6475 50.355 20.7508 51.0156 21.5384C51.6757 22.3259 51.5728 23.5001 50.7855 24.1604L48.3824 26.1763C48.0337 26.4688 47.6097 26.6114 47.1878 26.6114Z" fill="url(#paint3_radial_1774_668)"/>
</g>
<g filter="url(#filter3_f_1774_668)">
<path d="M47.6435 25.4291L47.6434 25.4292C47.3077 25.7107 46.897 25.8493 46.4898 25.8493H46.4894C45.9785 25.8493 45.468 25.6313 45.1125 25.207C45.1123 25.2067 45.1122 25.2065 45.112 25.2063L45.6871 24.7249L47.6435 25.4291ZM47.6435 25.4291L50.0466 23.4132C50.0466 23.4132 50.0466 23.4132 50.0467 23.4132C50.807 22.7755 50.9066 21.6421 50.2688 20.8818C49.6316 20.1218 48.4984 20.021 47.7378 20.6596C47.7377 20.6597 47.7377 20.6597 47.7376 20.6597C47.7375 20.6598 47.7374 20.6599 47.7373 20.66L45.3347 22.6755C45.3347 22.6755 45.3346 22.6755 45.3346 22.6755L47.6435 25.4291Z" stroke="#FF6B00" stroke-width="1.5"/>
</g>
<path d="M46.4894 25.0993C46.1905 25.0993 45.894 24.9721 45.6871 24.7249C45.3156 24.2821 45.3736 23.6217 45.8166 23.2501L48.2198 21.2342C48.6625 20.8623 49.3227 20.9206 49.6942 21.3638C50.0657 21.8066 50.0077 22.467 49.5647 22.8386L47.1615 24.8545C46.9655 25.0188 46.727 25.0993 46.4898 25.0993H46.4894Z" fill="#F09709"/>
<path d="M46.4896 24.5179C46.3567 24.5179 46.2252 24.4613 46.1331 24.3515C45.9682 24.1545 45.9937 23.8613 46.1907 23.6959L48.5939 21.68C48.7905 21.515 49.084 21.5406 49.2493 21.7377C49.4142 21.9347 49.3887 22.2279 49.1917 22.3933L46.7885 24.4091C46.7013 24.4824 46.5953 24.5179 46.49 24.5179H46.4896Z" fill="#FFDF46"/>
<path d="M46.4895 24.1685C46.4564 24.1685 46.4234 24.1545 46.4002 24.1269C46.359 24.0774 46.3654 24.0041 46.4145 23.9632L48.8177 21.9473C48.8671 21.9057 48.9404 21.9122 48.9816 21.9617C49.0228 22.0111 49.0164 22.0844 48.9673 22.1253L46.5641 24.1412C46.5423 24.1596 46.5157 24.1685 46.4895 24.1685Z" fill="white"/>
<g style="mix-blend-mode:multiply" opacity="0.36">
<path d="M20.2078 30.2567C19.9194 30.2567 19.6267 30.1896 19.353 30.0474L15.1667 27.876C14.2543 27.4028 13.8985 26.2795 14.3712 25.3668C14.8443 24.4542 15.9673 24.0979 16.8793 24.5711L21.0656 26.7425C21.978 27.2157 22.3338 28.339 21.8608 29.2517C21.5298 29.8902 20.8802 30.2564 20.2074 30.2564L20.2078 30.2567Z" fill="url(#paint4_radial_1774_668)"/>
</g>
<g filter="url(#filter4_f_1774_668)">
<path d="M18.6844 29.2925L18.6848 29.2927C18.9478 29.4289 19.231 29.4943 19.5106 29.4943C20.1581 29.4943 20.7864 29.1419 21.1064 28.524L21.1064 28.5239C21.5624 27.6433 21.2194 26.559 20.3382 26.1019L20.3382 26.1019L16.1521 23.9306C16.152 23.9306 16.152 23.9306 16.1519 23.9305C15.2709 23.4734 14.1862 23.8178 13.7299 24.6991C13.2739 25.5797 13.6169 26.664 14.498 27.1211L14.4981 27.1211L18.6844 29.2925Z" stroke="#3AD900" stroke-width="1.5"/>
</g>
<path d="M19.5106 28.7443C19.3484 28.7443 19.1838 28.7065 19.0297 28.6267L14.8434 26.4554C14.3301 26.1891 14.1301 25.5574 14.3959 25.0439C14.6617 24.5305 15.2936 24.33 15.8066 24.5963L19.9929 26.7676C20.5062 27.0339 20.7062 27.6656 20.4404 28.1791C20.2543 28.5384 19.8889 28.7443 19.5106 28.7443Z" fill="#008225"/>
<path d="M19.5114 28.1621C19.4391 28.1621 19.3662 28.1454 19.2977 28.1099L15.1114 25.9386C14.8834 25.8203 14.7944 25.5394 14.9127 25.3113C15.0309 25.0835 15.3118 24.9949 15.5398 25.1125L19.7261 27.2839C19.9541 27.4022 20.0431 27.6831 19.9248 27.9112C19.842 28.0707 19.6798 28.1621 19.5114 28.1621Z" fill="#5DFF54"/>
<path d="M19.5117 27.8135C19.4936 27.8135 19.4755 27.8094 19.4581 27.8006L15.2718 25.6292C15.2149 25.5995 15.1924 25.5293 15.2221 25.4724C15.2517 25.4154 15.3216 25.3933 15.3788 25.4226L19.5652 27.594C19.6221 27.6236 19.6446 27.6939 19.6149 27.7508C19.5941 27.7907 19.5536 27.8135 19.5117 27.8135Z" fill="white"/>
<g style="mix-blend-mode:multiply" opacity="0.36">
<path d="M22.9209 23.9751C22.6377 23.9751 22.3501 23.91 22.0801 23.7733C21.164 23.3079 20.7983 22.1877 21.2635 21.2712L23.8217 16.2307C24.2869 15.3139 25.4065 14.9481 26.323 15.4135C27.2391 15.8788 27.6048 16.9991 27.1396 17.9155L24.5814 22.9561C24.2532 23.6028 23.5992 23.9751 22.9209 23.9751Z" fill="url(#paint5_radial_1774_668)"/>
</g>
<g filter="url(#filter5_f_1774_668)">
<path d="M21.4117 23.0186L21.4111 23.0183C20.5268 22.569 20.1733 21.4879 20.6226 20.6029L21.4117 23.0186ZM21.4117 23.0186C21.671 23.1501 21.9491 23.2132 22.2239 23.2132C22.8762 23.2132 23.5092 22.8552 23.8265 22.2295C23.8266 22.2294 23.8266 22.2293 23.8267 22.2292L26.3846 17.1891L21.4117 23.0186ZM23.1808 15.5624L20.6226 20.6028L26.3847 17.189C26.834 16.304 26.4805 15.2228 25.5962 14.7735L25.5959 14.7734C24.7116 14.3247 23.6302 14.6768 23.1808 15.5623C23.1808 15.5623 23.1808 15.5624 23.1808 15.5624Z" stroke="#0055FF" stroke-width="1.5"/>
</g>
<path d="M22.2239 22.4632C22.0643 22.4632 21.9028 22.4267 21.7508 22.3497C21.2355 22.0878 21.0296 21.4578 21.2914 20.9423L23.8496 15.9018C24.1113 15.3859 24.7412 15.1807 25.2565 15.4422C25.7718 15.704 25.9777 16.334 25.7159 16.8495L23.1577 21.8901C22.9733 22.2539 22.6052 22.4632 22.2239 22.4632Z" fill="#D3D8E8"/>
<path d="M22.2247 21.8813C22.1538 21.8813 22.0819 21.8653 22.0144 21.8308C21.7853 21.7146 21.694 21.4343 21.8102 21.2052L24.3684 16.1647C24.4847 15.9356 24.7648 15.8435 24.9938 15.9604C25.2229 16.0767 25.3142 16.3569 25.198 16.586L22.6398 21.6266C22.5576 21.7882 22.3941 21.8813 22.2247 21.8813Z" fill="#F3FFF2"/>
<path d="M22.2246 21.5324C22.2068 21.5324 22.1888 21.5284 22.1721 21.5198C22.1148 21.4909 22.092 21.4206 22.121 21.3633L24.6792 16.3228C24.7081 16.2658 24.7783 16.243 24.8356 16.2716C24.8929 16.3006 24.9157 16.3708 24.8867 16.4281L22.3285 21.4687C22.3081 21.5093 22.2672 21.5324 22.2246 21.5324Z" fill="white"/>
<g style="mix-blend-mode:multiply" opacity="0.36">
<path d="M35.714 20.7953C35.1949 20.7953 34.6786 20.5791 34.3108 20.1571L31.6749 17.1327C30.9997 16.3582 31.0802 15.1823 31.8548 14.5069C32.6295 13.8319 33.8047 13.912 34.4799 14.6869L37.1158 17.7113C37.7909 18.4859 37.7105 19.6617 36.9358 20.3371C36.5834 20.6446 36.1475 20.7953 35.714 20.7953Z" fill="url(#paint6_radial_1774_668)"/>
</g>
<g filter="url(#filter6_f_1774_668)">
<path d="M33.6612 19.4173L33.6611 19.4172L31.0252 16.3929L31.0251 16.3928C30.3735 15.6451 30.4511 14.5103 31.1985 13.8583C31.9472 13.2041 33.0824 13.2841 33.7336 14.0317C33.7337 14.0318 33.7338 14.0319 33.7339 14.032L36.3696 17.056L36.3696 17.0561C37.0212 17.8039 36.9436 18.9386 36.1962 19.5907L33.6612 19.4173ZM33.6612 19.4173C34.0162 19.8246 34.5159 20.0334 35.0158 20.0334M33.6612 19.4173L35.0158 20.0334M35.0158 20.0334C35.4333 20.0334 35.8554 19.8881 36.1958 19.591L35.0158 20.0334Z" stroke="#FF6B00" stroke-width="1.5"/>
</g>
<path d="M35.0158 19.2834C34.7238 19.2834 34.4334 19.1617 34.2265 18.9245L31.5906 15.9001C31.2109 15.4644 31.2562 14.803 31.6918 14.4232C32.1274 14.0424 32.7886 14.0884 33.1682 14.5245L35.8042 17.5488C36.1838 17.9845 36.1385 18.6459 35.7029 19.0257C35.5046 19.1989 35.2595 19.2834 35.0158 19.2834Z" fill="#F09709"/>
<path d="M35.0161 18.7013C34.8863 18.7013 34.7574 18.6471 34.6654 18.5418L32.0295 15.5174C31.8608 15.3238 31.8809 15.0299 32.0745 14.8608C32.2681 14.6924 32.5619 14.7125 32.7309 14.9058L35.3668 17.9302C35.5355 18.1238 35.5154 18.4177 35.3218 18.5868C35.2336 18.6635 35.1248 18.7013 35.0165 18.7013H35.0161Z" fill="#FFDF46"/>
<path d="M35.0158 18.3528C34.9835 18.3528 34.9511 18.3395 34.9282 18.3129L32.2923 15.2886C32.2501 15.2402 32.2552 15.1669 32.3036 15.1246C32.352 15.082 32.4256 15.0871 32.4675 15.1359L35.1034 18.1602C35.1457 18.2086 35.1406 18.2819 35.0922 18.3242C35.07 18.3436 35.0428 18.3528 35.0158 18.3528Z" fill="white"/>
<g style="mix-blend-mode:multiply" opacity="0.36">
<path d="M39.3589 26.4571C39.229 26.4571 39.0975 26.4434 38.9652 26.4148C37.9608 26.1986 37.3218 25.2086 37.5382 24.2035L38.6234 19.163C38.8398 18.1583 39.8292 17.5173 40.834 17.7355C41.8384 17.9517 42.4774 18.9417 42.261 19.9467L41.1758 24.9873C40.988 25.8601 40.2164 26.4571 39.3589 26.4571Z" fill="url(#paint7_radial_1774_668)"/>
</g>
<g filter="url(#filter7_f_1774_668)">
<path d="M38.2807 25.654L38.2807 25.654C37.3104 25.445 36.694 24.4891 36.9028 23.5193L36.9028 23.5193L37.988 18.4787C37.988 18.4787 37.988 18.4787 37.988 18.4787C38.1966 17.5095 39.151 16.8907 40.1224 17.1002L38.2807 25.654ZM38.2807 25.654L38.2844 25.6548M38.2807 25.654L38.2844 25.6548M38.2844 25.6548C38.4075 25.6807 38.533 25.6943 38.6598 25.6944L38.2844 25.6548ZM38.6602 25.6944C39.4888 25.6942 40.2336 25.1188 40.4151 24.2755C40.4151 24.2754 40.4151 24.2754 40.4152 24.2754L41.5003 19.2349L41.5003 19.2349C41.7091 18.2651 41.0928 17.3094 40.1227 17.1002L38.6602 25.6944Z" stroke="#FA0000" stroke-width="1.5"/>
</g>
<path d="M38.6602 24.9444C38.5872 24.9444 38.5133 24.9365 38.4386 24.9208C37.8735 24.7991 37.5143 24.2424 37.636 23.6771L38.7212 18.6366C38.8428 18.0713 39.3991 17.7113 39.9645 17.8333C40.5296 17.9551 40.8888 18.5118 40.7671 19.077L39.6819 24.1176C39.5763 24.6085 39.1424 24.9444 38.6598 24.9444H38.6602Z" fill="#B81313"/>
<path d="M38.6601 24.3622C38.6278 24.3622 38.5947 24.3588 38.5616 24.3517C38.3104 24.2974 38.1509 24.0503 38.2048 23.799L39.29 18.7584C39.3442 18.5068 39.5913 18.348 39.8424 18.4015C40.0936 18.4557 40.2531 18.7029 40.1993 18.9541L39.1141 23.9947C39.0671 24.2129 38.8742 24.3622 38.6598 24.3622H38.6601Z" fill="#FF5959"/>
<path d="M38.6594 24.0134C38.6512 24.0134 38.643 24.0124 38.6348 24.011C38.5721 23.9974 38.5322 23.9357 38.5455 23.8726L39.6307 18.832C39.6443 18.7693 39.7064 18.7297 39.7687 18.7427C39.8314 18.7563 39.8713 18.818 39.858 18.8811L38.7729 23.9217C38.7613 23.9762 38.7129 24.0134 38.6594 24.0134Z" fill="white"/>
<g style="mix-blend-mode:multiply" opacity="0.36">
<path d="M43.0766 32.273C42.2079 32.273 41.4311 31.661 41.2542 30.7766C41.0528 29.7685 41.7062 28.788 42.7136 28.5865L46.9773 27.7335C47.9844 27.5327 48.9653 28.1859 49.1668 29.1934C49.3682 30.2015 48.7148 31.182 47.7074 31.3835L43.4437 32.2365C43.3206 32.261 43.1976 32.273 43.0766 32.273Z" fill="url(#paint8_radial_1774_668)"/>
</g>
<g filter="url(#filter8_f_1774_668)">
<path d="M41.1008 30.9744C40.863 30.7335 40.6906 30.4227 40.6191 30.0658L41.1008 30.9744ZM41.1008 30.9744L40.5615 31.5107H42.3794C42.4973 31.5107 42.616 31.4989 42.7337 31.4752C42.734 31.4751 42.7342 31.4751 42.7345 31.475L46.9967 30.6223L46.9969 30.6223C47.9697 30.4274 48.6009 29.4808 48.4061 28.5075C48.2109 27.5327 47.264 26.9069 46.2945 27.0976L46.2945 27.0976L46.2921 27.0981L42.0287 27.9513C42.0287 27.9513 42.0286 27.9514 42.0285 27.9514C42.0285 27.9514 42.0284 27.9514 42.0284 27.9514C41.0553 28.1459 40.4244 29.0927 40.6191 30.0657L41.1008 30.9744Z" stroke="#3AD900" stroke-width="1.5"/>
</g>
<path d="M42.3797 30.7603C41.891 30.7603 41.4541 30.416 41.3545 29.9186C41.2411 29.3516 41.6088 28.8 42.1756 28.6868L46.4393 27.8335C47.0061 27.722 47.5572 28.0878 47.6707 28.6548C47.7842 29.2217 47.4164 29.7733 46.8496 29.8869L42.5859 30.7399C42.5168 30.7538 42.4476 30.7607 42.3794 30.7607L42.3797 30.7603Z" fill="#008225"/>
<path d="M42.3799 30.1786C42.1627 30.1786 41.9685 30.0258 41.9242 29.8046C41.8737 29.5526 42.0373 29.3075 42.2892 29.2571L46.5529 28.4041C46.8044 28.3539 47.0498 28.5172 47.1002 28.7689C47.1507 29.0208 46.9871 29.2659 46.7352 29.3164L42.4715 30.1694C42.4409 30.1755 42.4102 30.1786 42.3799 30.1786Z" fill="#5DFF54"/>
<path d="M42.3808 29.8299C42.3266 29.8299 42.2778 29.7917 42.2669 29.7361C42.2543 29.6731 42.2952 29.6117 42.3583 29.5994L46.622 28.7464C46.6853 28.7338 46.7464 28.7747 46.7586 28.8378C46.7712 28.9009 46.7303 28.9622 46.6673 28.9745L42.4036 29.8275C42.3958 29.8292 42.3883 29.8299 42.3808 29.8299Z" fill="white"/>
</g>
<defs>
<filter id="filter0_f_1774_668" x="1.46289" y="26.3408" width="59.4893" height="36.4585" filterUnits="userSpaceOnUse" color-interpolation-filters="sRGB">
<feFlood flood-opacity="0" result="BackgroundImageFix"/>
<feBlend mode="normal" in="SourceGraphic" in2="BackgroundImageFix" result="shape"/>
<feGaussianBlur stdDeviation="3.5" result="effect1_foregroundBlur_1774_668"/>
</filter>
<filter id="filter1_f_1774_668" x="15.8525" y="16.3242" width="30.6523" height="30.6562" filterUnits="userSpaceOnUse" color-interpolation-filters="sRGB">
<feFlood flood-opacity="0" result="BackgroundImageFix"/>
<feBlend mode="normal" in="SourceGraphic" in2="BackgroundImageFix" result="shape"/>
<feGaussianBlur stdDeviation="3.5" result="effect1_foregroundBlur_1774_668"/>
</filter>
<filter id="filter2_f_1774_668" x="1.20117" y="1.20264" width="61.584" height="56.9448" filterUnits="userSpaceOnUse" color-interpolation-filters="sRGB">
<feFlood flood-opacity="0" result="BackgroundImageFix"/>
<feBlend mode="normal" in="SourceGraphic" in2="BackgroundImageFix" result="shape"/>
<feGaussianBlur stdDeviation="3.5" result="effect1_foregroundBlur_1774_668"/>
</filter>
<filter id="filter3_f_1774_668" x="37.9424" y="13.4893" width="19.4961" height="19.1099" filterUnits="userSpaceOnUse" color-interpolation-filters="sRGB">
<feFlood flood-opacity="0" result="BackgroundImageFix"/>
<feBlend mode="normal" in="SourceGraphic" in2="BackgroundImageFix" result="shape"/>
<feGaussianBlur stdDeviation="3" result="effect1_foregroundBlur_1774_668"/>
</filter>
<filter id="filter4_f_1774_668" x="6.77832" y="16.978" width="21.2803" height="19.2661" filterUnits="userSpaceOnUse" color-interpolation-filters="sRGB">
<feFlood flood-opacity="0" result="BackgroundImageFix"/>
<feBlend mode="normal" in="SourceGraphic" in2="BackgroundImageFix" result="shape"/>
<feGaussianBlur stdDeviation="3" result="effect1_foregroundBlur_1774_668"/>
</filter>
<filter id="filter5_f_1774_668" x="13.6777" y="7.82812" width="19.6523" height="22.1353" filterUnits="userSpaceOnUse" color-interpolation-filters="sRGB">
<feFlood flood-opacity="0" result="BackgroundImageFix"/>
<feBlend mode="normal" in="SourceGraphic" in2="BackgroundImageFix" result="shape"/>
<feGaussianBlur stdDeviation="3" result="effect1_foregroundBlur_1774_668"/>
</filter>
<filter id="filter6_f_1774_668" x="23.833" y="6.66504" width="19.7285" height="20.1187" filterUnits="userSpaceOnUse" color-interpolation-filters="sRGB">
<feFlood flood-opacity="0" result="BackgroundImageFix"/>
<feBlend mode="normal" in="SourceGraphic" in2="BackgroundImageFix" result="shape"/>
<feGaussianBlur stdDeviation="3" result="effect1_foregroundBlur_1774_668"/>
</filter>
<filter id="filter7_f_1774_668" x="30.1123" y="10.3091" width="18.1787" height="22.1353" filterUnits="userSpaceOnUse" color-interpolation-filters="sRGB">
<feFlood flood-opacity="0" result="BackgroundImageFix"/>
<feBlend mode="normal" in="SourceGraphic" in2="BackgroundImageFix" result="shape"/>
<feGaussianBlur stdDeviation="3" result="effect1_foregroundBlur_1774_668"/>
</filter>
<filter id="filter8_f_1774_668" x="32.7432" y="20.3135" width="22.4482" height="17.9473" filterUnits="userSpaceOnUse" color-interpolation-filters="sRGB">
<feFlood flood-opacity="0" result="BackgroundImageFix"/>
<feBlend mode="normal" in="SourceGraphic" in2="BackgroundImageFix" result="shape"/>
<feGaussianBlur stdDeviation="3" result="effect1_foregroundBlur_1774_668"/>
</filter>
<radialGradient id="paint0_radial_1774_668" cx="0" cy="0" r="1" gradientUnits="userSpaceOnUse" gradientTransform="translate(31.9048 45.2678) scale(17.7592 17.7646)">
<stop offset="0.57" stop-color="#241D0B"/>
<stop offset="0.8" stop-color="#241D0B"/>
<stop offset="1" stop-color="#241D0B"/>
</radialGradient>
<radialGradient id="paint1_radial_1774_668" cx="0" cy="0" r="1" gradientUnits="userSpaceOnUse" gradientTransform="translate(31.8762 32.3503) scale(8.13985 8.14232)">
<stop offset="0.57" stop-color="#1A1100"/>
<stop offset="0.8" stop-color="#1A1100"/>
<stop offset="1" stop-color="#1A1100"/>
</radialGradient>
<radialGradient id="paint2_radial_1774_668" cx="0" cy="0" r="1" gradientUnits="userSpaceOnUse" gradientTransform="translate(32.6903 30.3728) scale(22.4731 22.4799)">
<stop offset="0.57" stop-color="#1A1100"/>
<stop offset="0.8" stop-color="#1A1100"/>
<stop offset="1" stop-color="#1A1100"/>
</radialGradient>
<radialGradient id="paint3_radial_1774_668" cx="0" cy="0" r="1" gradientUnits="userSpaceOnUse" gradientTransform="translate(48.3885 23.7421) scale(2.96685 2.96775)">
<stop offset="0.57" stop-color="#241D0B"/>
<stop offset="0.8" stop-color="#241D0B"/>
<stop offset="1" stop-color="#241D0B"/>
</radialGradient>
<radialGradient id="paint4_radial_1774_668" cx="0" cy="0" r="1" gradientUnits="userSpaceOnUse" gradientTransform="translate(18.1161 27.3094) scale(3.48695 3.48801)">
<stop offset="0.57" stop-color="#1A1900"/>
<stop offset="0.8" stop-color="#1A1900"/>
<stop offset="1" stop-color="#1A1900"/>
</radialGradient>
<radialGradient id="paint5_radial_1774_668" cx="0" cy="0" r="1" gradientUnits="userSpaceOnUse" gradientTransform="translate(24.2014 19.5932) scale(3.81107 3.81223)">
<stop offset="0.57" stop-color="#1A1900"/>
<stop offset="0.8" stop-color="#1A1900"/>
<stop offset="1" stop-color="#1A1900"/>
</radialGradient>
<radialGradient id="paint6_radial_1774_668" cx="0" cy="0" r="1" gradientUnits="userSpaceOnUse" gradientTransform="translate(34.3953 17.4218) scale(3.27666 3.27766)">
<stop offset="0.57" stop-color="#241D0B"/>
<stop offset="0.8" stop-color="#241D0B"/>
<stop offset="1" stop-color="#241D0B"/>
</radialGradient>
<radialGradient id="paint7_radial_1774_668" cx="0" cy="0" r="1" gradientUnits="userSpaceOnUse" gradientTransform="translate(39.8998 22.0748) scale(3.5333 3.53437)">
<stop offset="0.57" stop-color="#161A00"/>
<stop offset="0.8" stop-color="#161A00"/>
<stop offset="1" stop-color="#161A00"/>
</radialGradient>
<radialGradient id="paint8_radial_1774_668" cx="0" cy="0" r="1" gradientUnits="userSpaceOnUse" gradientTransform="translate(45.2105 29.985) scale(3.25383 3.25481)">
<stop offset="0.57" stop-color="#1A1900"/>
<stop offset="0.8" stop-color="#1A1900"/>
<stop offset="1" stop-color="#1A1900"/>
</radialGradient>
</defs>
</svg>
