<svg width="64" height="64" viewBox="0 0 64 64" fill="none" xmlns="http://www.w3.org/2000/svg">
<g style="mix-blend-mode:plus-lighter">
<g style="mix-blend-mode:multiply" opacity="0.36">
<path d="M34.5674 47.5107C34.3313 47.5107 34.1037 47.38 33.9887 47.154C33.7517 46.6856 33.5714 46.1384 33.4684 45.5704C33.3653 45.0051 33.3404 44.4311 33.3962 43.9107C33.4349 43.5514 33.7551 43.2925 34.1106 43.3306C34.4669 43.3696 34.7245 43.6917 34.6859 44.051C34.6438 44.4475 34.6635 44.8917 34.7443 45.3341C34.825 45.7791 34.9632 46.2025 35.1444 46.5592C35.3075 46.8813 35.1804 47.2752 34.8619 47.4397C34.7674 47.4882 34.667 47.5116 34.5674 47.5116V47.5107Z" fill="url(#paint0_radial_3143_3888)"/>
</g>
<g filter="url(#filter0_f_3143_3888)">
<path d="M34.3239 46.9783C34.1908 46.9783 34.0629 46.9047 33.9985 46.7774C33.7735 46.3341 33.6027 45.8129 33.5048 45.2726C33.4069 44.7341 33.3829 44.1886 33.4352 43.6951C33.4567 43.4934 33.637 43.3462 33.8371 43.3687C34.0371 43.3904 34.1822 43.5722 34.1608 43.7739C34.1152 44.1973 34.1367 44.67 34.2226 45.1402C34.3084 45.612 34.4561 46.0622 34.6484 46.4432C34.7403 46.6241 34.669 46.8458 34.4896 46.9384C34.4364 46.9661 34.3797 46.9791 34.3239 46.9791V46.9783Z" fill="#D3D8E8"/>
</g>
<path d="M34.3239 46.9783C34.1908 46.9783 34.0629 46.9047 33.9985 46.7774C33.7735 46.3341 33.6027 45.8129 33.5048 45.2726C33.4069 44.7341 33.3829 44.1886 33.4352 43.6951C33.4567 43.4934 33.637 43.3462 33.8371 43.3687C34.0371 43.3904 34.1822 43.5722 34.1608 43.7739C34.1152 44.1973 34.1367 44.67 34.2226 45.1402C34.3084 45.612 34.4561 46.0622 34.6484 46.4432C34.7403 46.6241 34.669 46.8458 34.4896 46.9384C34.4364 46.9661 34.3797 46.9791 34.3239 46.9791V46.9783Z" fill="#D3D8E8"/>
<path d="M34.3235 46.7738C34.2643 46.7738 34.2076 46.7409 34.1793 46.6847C33.9638 46.2587 33.7989 45.7574 33.7045 45.2353C33.61 44.7158 33.5868 44.1903 33.6375 43.7167C33.6469 43.6267 33.7268 43.5617 33.8161 43.5712C33.9054 43.5808 33.9698 43.6613 33.9603 43.7513C33.9131 44.1946 33.9354 44.6873 34.0239 45.1756C34.1132 45.6665 34.2669 46.1366 34.4686 46.5349C34.509 46.6154 34.4781 46.7141 34.3982 46.7548C34.375 46.7669 34.3493 46.773 34.3244 46.773L34.3235 46.7738Z" fill="#F3FFF2"/>
<path d="M34.3235 46.6519C34.3089 46.6519 34.2943 46.6441 34.2874 46.6294C34.0771 46.2138 33.9165 45.7238 33.8238 45.2138C33.731 44.7056 33.7087 44.1931 33.7577 43.7299C33.7602 43.7073 33.78 43.6918 33.8023 43.6935C33.8246 43.6961 33.8409 43.716 33.8384 43.7385C33.7894 44.1931 33.8126 44.6978 33.9036 45.1983C33.9955 45.7004 34.1526 46.1827 34.3604 46.5913C34.3707 46.6112 34.363 46.6363 34.3424 46.6467C34.3364 46.6493 34.3304 46.6511 34.3243 46.6511L34.3235 46.6519Z" fill="white"/>
<g style="mix-blend-mode:multiply" opacity="0.36">
<path d="M31.6577 49.9799C29.8031 49.9799 28.1683 48.7149 27.8377 46.9002C27.4625 44.8431 28.9041 42.8457 31.0506 42.4483C31.4027 42.3825 31.7409 42.618 31.8062 42.9738C31.8706 43.3288 31.6379 43.6699 31.285 43.7357C29.8426 44.0033 28.868 45.3167 29.1136 46.6647C29.3592 48.0128 30.7321 48.8916 32.1754 48.624C32.5274 48.5582 32.8657 48.7937 32.931 49.1496C32.9954 49.5046 32.7627 49.8457 32.4098 49.9115C32.1565 49.9582 31.9049 49.9808 31.6577 49.9808V49.9799Z" fill="url(#paint1_radial_3143_3888)"/>
</g>
<g filter="url(#filter1_f_3143_3888)">
<path d="M31.4149 49.4482C29.6951 49.4482 28.1797 48.2802 27.874 46.6032C27.5272 44.701 28.8666 42.8534 30.8585 42.4845C31.0569 42.4473 31.2466 42.5798 31.2836 42.7798C31.3196 42.9798 31.1891 43.1711 30.9908 43.2083C29.3938 43.5045 28.3179 44.9677 28.5918 46.4707C28.8657 47.9737 30.3872 48.9555 31.9842 48.6603C32.1825 48.6231 32.3723 48.7555 32.4092 48.9555C32.4453 49.1555 32.3147 49.3469 32.1164 49.3841C31.8803 49.4274 31.6459 49.449 31.4149 49.449V49.4482Z" fill="#F09709" fill-opacity="0.9"/>
</g>
<path d="M31.4149 49.4482C29.6951 49.4482 28.1797 48.2802 27.874 46.6032C27.5272 44.701 28.8666 42.8534 30.8585 42.4845C31.0569 42.4473 31.2466 42.5798 31.2836 42.7798C31.3196 42.9798 31.1891 43.1711 30.9908 43.2083C29.3938 43.5045 28.3179 44.9677 28.5918 46.4707C28.8657 47.9737 30.3872 48.9555 31.9842 48.6603C32.1825 48.6231 32.3723 48.7555 32.4092 48.9555C32.4453 49.1555 32.3147 49.3469 32.1164 49.3841C31.8803 49.4274 31.6459 49.449 31.4149 49.449V49.4482Z" fill="#F09709" fill-opacity="0.9"/>
<path d="M31.4146 49.2439C29.7909 49.2439 28.3605 48.1452 28.0737 46.5669C27.7474 44.7755 29.013 43.0344 30.896 42.6863C30.9844 42.6699 31.0685 42.7288 31.0848 42.818C31.1012 42.9071 31.0428 42.992 30.9543 43.0084C29.2474 43.3244 28.0986 44.895 28.3923 46.5089C28.6859 48.1227 30.3138 49.1781 32.0207 48.8621C32.1083 48.8457 32.1933 48.9045 32.2096 48.9937C32.2259 49.0829 32.1676 49.1677 32.0791 49.1842C31.8559 49.2257 31.6335 49.2457 31.4146 49.2457V49.2439Z" fill="#FFDF46"/>
<path d="M31.4143 49.1211C29.8482 49.1211 28.4693 48.064 28.1928 46.5445C27.8786 44.8198 29.1004 43.1427 30.9172 42.8059C30.9395 42.8025 30.9601 42.8163 30.9644 42.8388C30.9687 42.8614 30.9541 42.8821 30.9318 42.8865C29.1596 43.2146 27.9662 44.8492 28.2727 46.5289C28.5792 48.2094 30.2698 49.3098 32.0428 48.9808C32.0651 48.9774 32.0858 48.9912 32.09 49.0137C32.0943 49.0363 32.0797 49.057 32.0574 49.0614C31.841 49.1012 31.6264 49.1202 31.4152 49.1202L31.4143 49.1211Z" fill="white"/>
<g style="mix-blend-mode:multiply" opacity="0.36">
<path d="M30.9857 46.972C30.6783 46.972 30.4061 46.7512 30.3486 46.4361C30.2842 46.0811 30.5169 45.74 30.8698 45.6742L32.3595 45.398C32.7123 45.3322 33.0498 45.5677 33.115 45.9235C33.1794 46.2785 32.9467 46.6196 32.5939 46.6854L31.1042 46.9616C31.0647 46.9686 31.0252 46.9729 30.9865 46.9729L30.9857 46.972Z" fill="url(#paint2_radial_3143_3888)"/>
</g>
<g filter="url(#filter2_f_3143_3888)">
<path d="M30.7428 46.4403C30.5702 46.4403 30.4165 46.3165 30.3839 46.139C30.3479 45.939 30.4784 45.7477 30.6767 45.7104L32.1664 45.4342C32.3647 45.397 32.5545 45.5295 32.5914 45.7295C32.6275 45.9295 32.4969 46.1208 32.2986 46.1581L30.8089 46.4342C30.7866 46.4386 30.7643 46.4403 30.7428 46.4403Z" fill="#D3D8E8"/>
</g>
<path d="M30.7428 46.4403C30.5702 46.4403 30.4165 46.3165 30.3839 46.139C30.3479 45.939 30.4784 45.7477 30.6767 45.7104L32.1664 45.4342C32.3647 45.397 32.5545 45.5295 32.5914 45.7295C32.6275 45.9295 32.4969 46.1208 32.2986 46.1581L30.8089 46.4342C30.7866 46.4386 30.7643 46.4403 30.7428 46.4403Z" fill="#D3D8E8"/>
<path d="M30.7425 46.2352C30.6661 46.2352 30.5974 46.1798 30.5828 46.101C30.5665 46.0118 30.6249 45.927 30.7133 45.9105L32.203 45.6343C32.2906 45.6179 32.3756 45.6768 32.3919 45.766C32.4082 45.8551 32.3498 45.94 32.2614 45.9564L30.7717 46.2326C30.7614 46.2343 30.752 46.2352 30.7425 46.2352Z" fill="#F3FFF2"/>
<path d="M30.7424 46.1132C30.7235 46.1132 30.7063 46.0994 30.7029 46.0795C30.6986 46.057 30.7132 46.0362 30.7355 46.0318L32.2252 45.7557C32.2475 45.7522 32.2681 45.766 32.2724 45.7886C32.2767 45.8111 32.2621 45.8318 32.2398 45.8362L30.7501 46.1124C30.7501 46.1124 30.745 46.1124 30.7424 46.1124V46.1132Z" fill="white"/>
<g style="mix-blend-mode:multiply" opacity="0.36">
<path d="M25.3725 51.3842C24.5216 51.3842 23.8545 50.8483 23.8545 50.1643C23.8545 49.8033 24.1447 49.5098 24.5036 49.5098C24.8161 49.5098 25.0771 49.7331 25.139 50.0301C25.1828 50.0509 25.2617 50.0751 25.3734 50.0751C25.5253 50.0751 25.6164 50.0292 25.6413 50.0102C25.8396 49.7193 26.2328 49.6388 26.5282 49.8318C26.8287 50.0284 26.9154 50.4336 26.7205 50.7366C26.4647 51.1357 25.9486 51.3834 25.3734 51.3834L25.3725 51.3842Z" fill="url(#paint3_radial_3143_3888)"/>
</g>
<g filter="url(#filter3_f_3143_3888)">
<path d="M25.1282 50.8526C24.4362 50.8526 23.8936 50.4422 23.8936 49.9192C23.8936 49.7158 24.0567 49.5513 24.2585 49.5513C24.4602 49.5513 24.6234 49.7158 24.6234 49.9192C24.6234 49.9573 24.7917 50.1166 25.1274 50.1166C25.4047 50.1166 25.579 50.0067 25.6236 49.9366C25.7335 49.766 25.9594 49.7175 26.1285 49.8275C26.2977 49.9374 26.3457 50.166 26.2367 50.3366C26.0323 50.6543 25.6073 50.8526 25.1274 50.8526H25.1282Z" fill="#F09709" fill-opacity="0.9"/>
</g>
<path d="M25.1282 50.8526C24.4362 50.8526 23.8936 50.4422 23.8936 49.9192C23.8936 49.7158 24.0567 49.5513 24.2585 49.5513C24.4602 49.5513 24.6234 49.7158 24.6234 49.9192C24.6234 49.9573 24.7917 50.1166 25.1274 50.1166C25.4047 50.1166 25.579 50.0067 25.6236 49.9366C25.7335 49.766 25.9594 49.7175 26.1285 49.8275C26.2977 49.9374 26.3457 50.166 26.2367 50.3366C26.0323 50.6543 25.6073 50.8526 25.1274 50.8526H25.1282Z" fill="#F09709" fill-opacity="0.9"/>
<path d="M25.1288 50.6483C24.5501 50.6483 24.0977 50.3279 24.0977 49.9193C24.0977 49.8292 24.1706 49.7556 24.2599 49.7556C24.3492 49.7556 24.4222 49.8292 24.4222 49.9193C24.4222 50.1097 24.7124 50.321 25.1297 50.321C25.4688 50.321 25.7084 50.1842 25.796 50.0483C25.8449 49.9721 25.9454 49.9504 26.0201 49.9998C26.0956 50.0491 26.1171 50.1504 26.0682 50.2257C25.9033 50.482 25.535 50.6483 25.1297 50.6483H25.1288Z" fill="#FFDF46"/>
<path d="M25.1289 50.5254C24.6274 50.5254 24.2188 50.2536 24.2188 49.9194C24.2188 49.8968 24.2368 49.8787 24.2591 49.8787C24.2814 49.8787 24.2995 49.8968 24.2995 49.9194C24.2995 50.2085 24.6712 50.444 25.128 50.444C25.4663 50.444 25.7685 50.315 25.8965 50.115C25.9085 50.096 25.9334 50.0908 25.9523 50.1029C25.9712 50.115 25.9763 50.1401 25.9643 50.1592C25.8218 50.3817 25.4929 50.5254 25.128 50.5254H25.1289Z" fill="white"/>
<g style="mix-blend-mode:multiply" opacity="0.36">
<path d="M27.0683 49.1503C26.7558 49.1503 26.4948 48.927 26.433 48.63C26.3892 48.6092 26.3102 48.585 26.1986 48.585C26.0869 48.585 26.008 48.6101 25.9642 48.63C25.9032 48.927 25.6413 49.1503 25.3288 49.1503C24.9708 49.1503 24.6797 48.8577 24.6797 48.4958C24.6797 47.8118 25.3468 47.2759 26.1977 47.2759C27.0486 47.2759 27.7157 47.8118 27.7157 48.4958C27.7157 48.8568 27.4255 49.1503 27.0666 49.1503H27.0683Z" fill="url(#paint4_radial_3143_3888)"/>
</g>
<g filter="url(#filter4_f_3143_3888)">
<path d="M26.8254 48.6187C26.6236 48.6187 26.4605 48.4542 26.4605 48.2507C26.4605 48.2126 26.2922 48.0533 25.9565 48.0533C25.6208 48.0533 25.4525 48.2135 25.4525 48.2507C25.4525 48.4542 25.2893 48.6187 25.0876 48.6187C24.8858 48.6187 24.7227 48.4542 24.7227 48.2507C24.7227 47.7269 25.2644 47.3174 25.9573 47.3174C26.6502 47.3174 27.1911 47.7278 27.1911 48.2507C27.1911 48.4542 27.028 48.6187 26.8262 48.6187H26.8254Z" fill="#F09709" fill-opacity="0.9"/>
</g>
<path d="M26.8254 48.6187C26.6236 48.6187 26.4605 48.4542 26.4605 48.2507C26.4605 48.2126 26.2922 48.0533 25.9565 48.0533C25.6208 48.0533 25.4525 48.2135 25.4525 48.2507C25.4525 48.4542 25.2893 48.6187 25.0876 48.6187C24.8858 48.6187 24.7227 48.4542 24.7227 48.2507C24.7227 47.7269 25.2644 47.3174 25.9573 47.3174C26.6502 47.3174 27.1911 47.7278 27.1911 48.2507C27.1911 48.4542 27.028 48.6187 26.8262 48.6187H26.8254Z" fill="#F09709" fill-opacity="0.9"/>
<path d="M26.8256 48.4144C26.7363 48.4144 26.6634 48.3408 26.6634 48.2507C26.6634 48.0603 26.3732 47.849 25.9559 47.849C25.5386 47.849 25.2484 48.0611 25.2484 48.2507C25.2484 48.3408 25.1754 48.4144 25.0861 48.4144C24.9968 48.4144 24.9238 48.3408 24.9238 48.2507C24.9238 47.8421 25.3772 47.5217 25.955 47.5217C26.5329 47.5217 26.9862 47.8421 26.9862 48.2507C26.9862 48.3408 26.9132 48.4144 26.8239 48.4144H26.8256Z" fill="#FFDF46"/>
<path d="M26.825 48.2915C26.8027 48.2915 26.7847 48.2733 26.7847 48.2508C26.7847 47.9617 26.4129 47.7262 25.9561 47.7262C25.4994 47.7262 25.1276 47.9617 25.1276 48.2508C25.1276 48.2733 25.1096 48.2915 25.0872 48.2915C25.0649 48.2915 25.0469 48.2733 25.0469 48.2508C25.0469 47.9166 25.4547 47.6448 25.957 47.6448C26.4593 47.6448 26.8671 47.9166 26.8671 48.2508C26.8671 48.2733 26.8491 48.2915 26.8268 48.2915H26.825Z" fill="white"/>
<g style="mix-blend-mode:multiply" opacity="0.36">
<path d="M28.5126 50.9886C28.2344 50.9886 27.964 50.9305 27.7304 50.8206C27.4059 50.6682 27.265 50.2786 27.4162 49.9513C27.5673 49.6241 27.9537 49.4821 28.2782 49.6344C28.3933 49.6881 28.595 49.6933 28.7221 49.6448C29.0578 49.5167 29.4313 49.6881 29.5584 50.0258C29.6846 50.3634 29.5155 50.7409 29.1806 50.8691C28.9754 50.947 28.7453 50.9886 28.5135 50.9886H28.5126Z" fill="url(#paint5_radial_3143_3888)"/>
</g>
<g filter="url(#filter5_f_3143_3888)">
<path d="M28.2695 50.4569C28.0325 50.4569 27.8042 50.4084 27.6075 50.3158C27.4246 50.23 27.3457 50.011 27.4307 49.8266C27.5157 49.6422 27.7329 49.5625 27.9158 49.6482C28.1004 49.7348 28.3811 49.7426 28.5795 49.6673C28.7684 49.5954 28.9787 49.6915 29.05 49.882C29.1213 50.0725 29.0259 50.2846 28.8371 50.3565C28.6636 50.4223 28.4679 50.4569 28.2704 50.4569H28.2695Z" fill="#F09709" fill-opacity="0.9"/>
</g>
<path d="M28.2695 50.4569C28.0325 50.4569 27.8042 50.4084 27.6075 50.3158C27.4246 50.23 27.3457 50.011 27.4307 49.8266C27.5157 49.6422 27.7329 49.5625 27.9158 49.6482C28.1004 49.7348 28.3811 49.7426 28.5795 49.6673C28.7684 49.5954 28.9787 49.6915 29.05 49.882C29.1213 50.0725 29.0259 50.2846 28.8371 50.3565C28.6636 50.4223 28.4679 50.4569 28.2704 50.4569H28.2695Z" fill="#F09709" fill-opacity="0.9"/>
<path d="M28.2698 50.2527C28.062 50.2527 27.8628 50.2103 27.6928 50.1306C27.6112 50.0925 27.576 49.9956 27.6138 49.9133C27.6516 49.8311 27.7477 49.7956 27.8293 49.8337C27.9564 49.8934 28.1084 49.9254 28.2689 49.9254C28.4037 49.9254 28.5359 49.902 28.6501 49.8588C28.7343 49.8267 28.8279 49.8691 28.8588 49.954C28.8905 50.0388 28.8485 50.1332 28.7643 50.1644C28.6141 50.2215 28.4424 50.2518 28.2689 50.2518L28.2698 50.2527Z" fill="#FFDF46"/>
<path d="M28.2697 50.1296C28.08 50.1296 27.898 50.0915 27.7443 50.0187C27.7237 50.0092 27.7151 49.985 27.7245 49.9642C27.734 49.9434 27.758 49.9348 27.7786 49.9443C27.922 50.0118 28.092 50.0473 28.2697 50.0473C28.4191 50.0473 28.566 50.0213 28.6939 49.9729C28.7145 49.9651 28.7385 49.9755 28.7463 49.9962C28.754 50.017 28.7437 50.0413 28.7231 50.0491C28.5866 50.101 28.4294 50.1287 28.2706 50.1287L28.2697 50.1296Z" fill="white"/>
</g>
<g style="mix-blend-mode:plus-lighter">
<g style="mix-blend-mode:multiply" opacity="0.36">
<path d="M21.0534 36.5394C20.4832 36.5394 19.9191 36.4606 19.4212 36.3117C19.0777 36.2087 18.8819 35.8442 18.9841 35.4978C19.0863 35.1515 19.4478 34.9541 19.7912 35.0571C20.1707 35.1706 20.6069 35.2312 21.0534 35.2312C21.4998 35.2312 21.9403 35.1706 22.3207 35.0563C22.6641 34.9524 23.0256 35.1498 23.1278 35.4961C23.2299 35.8424 23.035 36.2069 22.6916 36.31C22.1927 36.4606 21.6261 36.5403 21.0534 36.5403V36.5394Z" fill="url(#paint6_radial_3143_3888)"/>
</g>
<g filter="url(#filter6_f_3143_3888)">
<path d="M21.0604 36.2578H20.8104C20.2451 36.2578 19.6849 36.1805 19.1869 36.0308C18.8602 35.9326 18.6776 35.5875 18.7736 35.2626C18.8699 34.9363 19.2121 34.7481 19.5393 34.8463M21.0604 36.2578L22.3679 35.7888L22.4398 36.0282C22.4399 36.0282 22.44 36.0282 22.44 36.0281C22.7667 35.9299 22.9492 35.5849 22.8532 35.26L22.8531 35.2597C22.7566 34.9342 22.4143 34.7464 22.0874 34.8446L22.0873 34.8446C21.7071 34.9589 21.2636 35.021 20.8112 35.021C20.3587 35.021 19.9187 34.9597 19.5393 34.8463M21.0604 36.2578V36.2519V36.2578ZM19.5393 34.8463C19.5393 34.8463 19.5394 34.8463 19.5394 34.8463L19.4675 35.0857L19.5392 34.8462C19.5392 34.8462 19.5393 34.8463 19.5393 34.8463Z" stroke="#D3D8E8" stroke-width="0.5"/>
</g>
<path d="M20.8104 36.0078C20.2669 36.0078 19.7311 35.9334 19.2589 35.7914C19.0657 35.7334 18.9558 35.5282 19.0133 35.3334C19.0709 35.1386 19.2743 35.0277 19.4675 35.0857C19.8728 35.207 20.3373 35.271 20.8112 35.271C21.2852 35.271 21.7531 35.2061 22.1593 35.084C22.3524 35.026 22.5559 35.1368 22.6135 35.3308C22.671 35.5256 22.5611 35.7308 22.3679 35.7888C21.8948 35.9316 21.3565 36.007 20.8104 36.007V36.0078Z" fill="#D3D8E8"/>
<path d="M20.8101 35.8036C20.2863 35.8036 19.7695 35.7317 19.3161 35.5958C19.2302 35.5698 19.1813 35.4789 19.2071 35.3923C19.2328 35.3057 19.323 35.2564 19.4088 35.2823C19.8321 35.4096 20.3172 35.4763 20.8101 35.4763C21.3029 35.4763 21.7915 35.4087 22.2165 35.2806C22.3023 35.2546 22.3925 35.304 22.4183 35.3906C22.444 35.4771 22.3951 35.5681 22.3092 35.594C21.8541 35.7308 21.3364 35.8036 20.8101 35.8036Z" fill="#F3FFF2"/>
<path d="M20.8101 35.6804C20.2975 35.6804 19.7935 35.6103 19.3513 35.4778C19.3298 35.4718 19.3178 35.4484 19.3238 35.4267C19.3298 35.4051 19.353 35.393 19.3745 35.399C19.8089 35.5298 20.3061 35.5982 20.8101 35.5982C21.3141 35.5982 21.8155 35.5289 22.2508 35.3973C22.2723 35.3912 22.2946 35.4034 22.3015 35.425C22.3075 35.4467 22.2954 35.4692 22.274 35.4761C21.8301 35.6094 21.3244 35.6804 20.8101 35.6804Z" fill="white"/>
<g style="mix-blend-mode:multiply" opacity="0.36">
<path d="M21.3338 42.3645C19.2594 42.3645 17.5723 40.574 17.5723 38.374C17.5723 38.013 17.8625 37.7195 18.2214 37.7195C18.5803 37.7195 18.8705 38.0121 18.8705 38.374C18.8705 39.8528 19.9764 41.0563 21.3347 41.0563C22.693 41.0563 23.7989 39.8528 23.7989 38.374C23.7989 38.013 24.0891 37.7195 24.448 37.7195C24.8069 37.7195 25.0971 38.0121 25.0971 38.374C25.0971 40.5749 23.4099 42.3645 21.3355 42.3645H21.3338Z" fill="url(#paint7_radial_3143_3888)"/>
</g>
<g filter="url(#filter7_f_3143_3888)">
<path d="M17.4113 38.1282C17.4113 40.269 19.0492 42.033 21.0895 42.033C23.1298 42.033 24.7678 40.269 24.7678 38.1282C24.7678 37.8159 24.5166 37.5603 24.2028 37.5603C23.889 37.5603 23.6379 37.8159 23.6379 38.1282C23.6379 39.6698 22.4803 40.8971 21.0895 40.8971C19.6988 40.8971 18.5411 39.6698 18.5411 38.1282C18.5411 37.8159 18.29 37.5603 17.9762 37.5603C17.6624 37.5603 17.4113 37.8159 17.4113 38.1282Z" stroke="#F09709" stroke-opacity="0.9" stroke-width="0.4"/>
</g>
<path d="M21.0895 41.833C19.1714 41.833 17.6113 40.1706 17.6113 38.1282C17.6113 37.9248 17.7745 37.7603 17.9762 37.7603C18.178 37.7603 18.3411 37.9248 18.3411 38.1282C18.3411 39.7654 19.5741 41.0971 21.0895 41.0971C22.605 41.0971 23.8379 39.7654 23.8379 38.1282C23.8379 37.9248 24.0011 37.7603 24.2028 37.7603C24.4046 37.7603 24.5678 37.9248 24.5678 38.1282C24.5678 40.1706 23.0077 41.833 21.0895 41.833Z" fill="#F09709" fill-opacity="0.9"/>
<path d="M21.09 41.6287C19.2844 41.6287 17.8145 40.0581 17.8145 38.1282C17.8145 38.0382 17.8874 37.9646 17.9767 37.9646C18.066 37.9646 18.139 38.0382 18.139 38.1282C18.139 39.878 19.463 41.3014 21.09 41.3014C22.7171 41.3014 24.0411 39.878 24.0411 38.1282C24.0411 38.0382 24.114 37.9646 24.2033 37.9646C24.2926 37.9646 24.3656 38.0382 24.3656 38.1282C24.3656 40.0581 22.8965 41.6287 21.09 41.6287Z" fill="#FFDF46"/>
<path d="M21.0902 41.5056C19.3515 41.5056 17.9365 39.9904 17.9365 38.1281C17.9365 38.1056 17.9546 38.0874 17.9769 38.0874C17.9992 38.0874 18.0172 38.1056 18.0172 38.1281C18.0172 39.9454 19.3953 41.4242 21.0902 41.4242C22.7851 41.4242 24.1631 39.9454 24.1631 38.1281C24.1631 38.1056 24.1812 38.0874 24.2035 38.0874C24.2258 38.0874 24.2438 38.1056 24.2438 38.1281C24.2438 39.9904 22.8289 41.5056 21.0902 41.5056Z" fill="white"/>
<g style="mix-blend-mode:multiply" opacity="0.36">
<path d="M21.3337 39.7914C20.9756 39.7914 20.6846 39.4988 20.6846 39.1369V37.6096C20.6846 37.2486 20.9748 36.9551 21.3337 36.9551C21.6926 36.9551 21.9828 37.2477 21.9828 37.6096V39.1369C21.9828 39.4979 21.6926 39.7914 21.3337 39.7914Z" fill="url(#paint8_radial_3143_3888)"/>
</g>
<g filter="url(#filter8_f_3143_3888)">
<path d="M20.2246 38.8918C20.2246 39.3675 20.6077 39.7598 21.0895 39.7598C21.5714 39.7598 21.9544 39.3675 21.9544 38.8918V37.3645C21.9544 36.8889 21.5714 36.4966 21.0895 36.4966C20.6077 36.4966 20.2246 36.8889 20.2246 37.3645V38.8918Z" stroke="#D3D8E8"/>
</g>
<path d="M21.0895 39.2598C20.8877 39.2598 20.7246 39.0953 20.7246 38.8918V37.3645C20.7246 37.1611 20.8877 36.9966 21.0895 36.9966C21.2913 36.9966 21.4544 37.1611 21.4544 37.3645V38.8918C21.4544 39.0953 21.2913 39.2598 21.0895 39.2598Z" fill="#D3D8E8"/>
<path d="M21.09 39.0555C21.0007 39.0555 20.9277 38.9819 20.9277 38.8918V37.3646C20.9277 37.2745 21.0007 37.2009 21.09 37.2009C21.1793 37.2009 21.2523 37.2745 21.2523 37.3646V38.8918C21.2523 38.9819 21.1793 39.0555 21.09 39.0555Z" fill="#F3FFF2"/>
<path d="M21.0902 38.9326C21.0678 38.9326 21.0498 38.9145 21.0498 38.8919V37.3647C21.0498 37.3422 21.0678 37.324 21.0902 37.324C21.1125 37.324 21.1305 37.3422 21.1305 37.3647V38.8919C21.1305 38.9145 21.1125 38.9326 21.0902 38.9326Z" fill="white"/>
<g style="mix-blend-mode:multiply" opacity="0.36">
<path d="M20.7066 45.7325C20.6362 45.7325 20.5649 45.7212 20.4954 45.6961C19.8711 45.4788 19.4521 44.8996 19.4521 44.2546C19.4521 43.684 19.775 43.1645 20.2936 42.8996C20.613 42.736 21.0036 42.865 21.1659 43.187C21.3282 43.5091 21.2003 43.9031 20.8809 44.0667C20.8173 44.0987 20.7495 44.1654 20.7495 44.2554C20.7495 44.3559 20.8345 44.4303 20.9186 44.4598C21.2578 44.5775 21.4372 44.9498 21.3205 45.2918C21.2277 45.5628 20.9762 45.7325 20.7074 45.7325H20.7066Z" fill="url(#paint9_radial_3143_3888)"/>
</g>
<g filter="url(#filter9_f_3143_3888)">
<path d="M20.4623 45.2008C20.4228 45.2008 20.3824 45.1947 20.3429 45.1809C19.8329 45.0034 19.4912 44.5332 19.4912 44.0103C19.4912 43.548 19.7539 43.1272 20.1772 42.9107C20.3567 42.819 20.5765 42.8908 20.6675 43.0726C20.7585 43.2536 20.6872 43.4752 20.5069 43.567C20.3301 43.657 20.2202 43.8276 20.2202 44.0103C20.2202 44.2198 20.3653 44.4103 20.5808 44.4856C20.7714 44.5523 20.8727 44.7618 20.8066 44.9532C20.7542 45.1055 20.6134 45.2016 20.4614 45.2016L20.4623 45.2008Z" fill="#F09709" fill-opacity="0.9"/>
<path d="M20.1761 45.2758C19.6734 45.0504 19.3412 44.5581 19.3412 44.0103C19.3412 43.4896 19.6374 43.0183 20.1089 42.7772C20.3628 42.6473 20.6733 42.7494 20.8016 43.0054M20.1761 45.2758L20.575 43.7007C20.8298 43.571 20.9291 43.2591 20.8016 43.0054M20.1761 45.2758L20.1007 45.3516H20.4614C20.6767 45.3516 20.875 45.2156 20.9485 45.0019M20.1761 45.2758L20.575 43.7007C20.4433 43.7677 20.3702 43.8895 20.3702 44.0103C20.3702 44.1483 20.4673 44.2871 20.6303 44.344L20.6303 44.344C20.899 44.438 21.0413 44.7327 20.9485 45.0019M20.8016 43.0054C20.8016 43.0053 20.8015 43.0053 20.8015 43.0052L20.6675 43.0726L20.8016 43.0055C20.8016 43.0054 20.8016 43.0054 20.8016 43.0054ZM20.9485 45.0019C20.9484 45.002 20.9484 45.0021 20.9484 45.0021L20.8066 44.9532L20.9485 45.0019ZM20.2933 45.3224C20.2934 45.3224 20.2934 45.3224 20.2935 45.3225C20.2935 45.3225 20.2936 45.3225 20.2936 45.3225L20.3429 45.1809L20.2933 45.3224Z" stroke="#F09709" stroke-opacity="0.9" stroke-width="0.3"/>
</g>
<path d="M20.4623 45.2008C20.4228 45.2008 20.3824 45.1947 20.3429 45.1809C19.8329 45.0034 19.4912 44.5332 19.4912 44.0103C19.4912 43.548 19.7539 43.1272 20.1772 42.9107C20.3567 42.819 20.5765 42.8908 20.6675 43.0726C20.7585 43.2536 20.6872 43.4752 20.5069 43.567C20.3301 43.657 20.2202 43.8276 20.2202 44.0103C20.2202 44.2198 20.3653 44.4103 20.5808 44.4856C20.7714 44.5523 20.8727 44.7618 20.8066 44.9532C20.7542 45.1055 20.6134 45.2016 20.4614 45.2016L20.4623 45.2008Z" fill="#F09709" fill-opacity="0.9"/>
<path d="M20.4628 44.9958C20.4456 44.9958 20.4276 44.9932 20.4096 44.9871C19.982 44.8382 19.6943 44.4451 19.6943 44.0096C19.6943 43.6252 19.915 43.2737 20.2696 43.0919C20.3495 43.0512 20.4473 43.0832 20.4877 43.1637C20.528 43.2442 20.4963 43.3429 20.4164 43.3836C20.1709 43.5092 20.0189 43.749 20.0189 44.0096C20.0189 44.3057 20.2189 44.575 20.516 44.678C20.601 44.7075 20.6457 44.801 20.6165 44.8858C20.5933 44.9533 20.5306 44.9958 20.4628 44.9958Z" fill="#FFDF46"/>
<path d="M20.4629 44.8737C20.4586 44.8737 20.4543 44.8737 20.4501 44.8711C20.0714 44.7395 19.8164 44.3932 19.8164 44.0096C19.8164 43.672 20.0113 43.362 20.3247 43.201C20.3444 43.1906 20.3693 43.1992 20.3788 43.2191C20.3891 43.2391 20.3814 43.2642 20.3608 43.2746C20.0748 43.4209 19.8963 43.7031 19.8963 44.0096C19.8963 44.3585 20.1289 44.6737 20.475 44.794C20.4964 44.801 20.5076 44.8243 20.4999 44.846C20.4938 44.8633 20.4784 44.8737 20.4612 44.8737H20.4629Z" fill="white"/>
<g style="mix-blend-mode:multiply" opacity="0.36">
<path d="M22.2874 46.6934C22.0186 46.6934 21.767 46.5237 21.6743 46.2527C21.5575 45.9107 21.737 45.5384 22.0761 45.4207C22.1603 45.3913 22.2453 45.3168 22.2453 45.2164C22.2453 45.1272 22.1775 45.0605 22.1139 45.0276C21.7945 44.864 21.6666 44.47 21.8289 44.148C21.9911 43.8259 22.3818 43.6969 22.7012 43.8605C23.2198 44.1263 23.5426 44.6458 23.5426 45.2155C23.5426 45.8605 23.1236 46.4397 22.4994 46.6571C22.429 46.6813 22.3578 46.6934 22.2874 46.6934Z" fill="url(#paint10_radial_3143_3888)"/>
</g>
<g filter="url(#filter10_f_3143_3888)">
<path d="M22.0441 46.1618C21.893 46.1618 21.7513 46.0666 21.6989 45.9142C21.6328 45.722 21.7341 45.5124 21.9248 45.4466C22.1403 45.3713 22.2854 45.1808 22.2854 44.9713C22.2854 44.7878 22.1755 44.6181 21.9986 44.528C21.8191 44.4363 21.747 44.2146 21.838 44.0337C21.929 43.8527 22.1488 43.78 22.3283 43.8718C22.7516 44.0882 23.0143 44.5098 23.0143 44.9713C23.0143 45.4943 22.6717 45.9653 22.1626 46.1419C22.1231 46.1557 22.0827 46.1618 22.0432 46.1618H22.0441Z" fill="#F09709" fill-opacity="0.9"/>
<path d="M21.9986 44.528C22.1755 44.6181 22.2854 44.7878 22.2854 44.9713C22.2854 45.1808 22.1403 45.3713 21.9248 45.4466M21.9986 44.528L21.5571 45.9629C21.4644 45.6934 21.606 45.398 21.8758 45.3049L21.9248 45.4466M21.9986 44.528C21.8191 44.4363 21.747 44.2146 21.838 44.0337C21.929 43.8527 22.1488 43.78 22.3283 43.8718C22.7516 44.0882 23.0143 44.5098 23.0143 44.9713C23.0143 45.4943 22.6717 45.9653 22.1626 46.1419M21.9986 44.528L22.212 46.2835M21.9248 45.4466L21.8753 45.305C22.0382 45.2481 22.1354 45.1093 22.1354 44.9713C22.1354 44.8498 22.0623 44.7288 21.9305 44.6617L21.9303 44.6616C21.677 44.532 21.5762 44.2204 21.704 43.9663C21.832 43.7117 22.1423 43.6081 22.3966 43.7382C22.8682 43.9794 23.1643 44.4515 23.1643 44.9713C23.1643 45.5606 22.7789 46.0867 22.212 46.2835M21.9248 45.4466C21.7341 45.5124 21.6328 45.722 21.6989 45.9142L22.212 46.2835M22.212 46.2835C22.2119 46.2835 22.2118 46.2836 22.2117 46.2836L22.1626 46.1419M22.212 46.2835C22.1555 46.3033 22.0986 46.3117 22.0441 46.3118V46.1618C22.0833 46.1617 22.1234 46.1556 22.1626 46.1419M22.212 46.2835C22.2121 46.2835 22.2122 46.2835 22.2122 46.2834L22.1626 46.1419M21.5571 45.963C21.6307 46.1771 21.83 46.3114 22.0432 46.3118L21.5571 45.963Z" stroke="#F09709" stroke-opacity="0.9" stroke-width="0.3"/>
</g>
<path d="M22.0441 46.1618C21.893 46.1618 21.7513 46.0666 21.6989 45.9142C21.6328 45.722 21.7341 45.5124 21.9248 45.4466C22.1403 45.3713 22.2854 45.1808 22.2854 44.9713C22.2854 44.7878 22.1755 44.6181 21.9986 44.528C21.8191 44.4363 21.747 44.2146 21.838 44.0337C21.929 43.8527 22.1488 43.78 22.3283 43.8718C22.7516 44.0882 23.0143 44.5098 23.0143 44.9713C23.0143 45.4943 22.6717 45.9653 22.1626 46.1419C22.1231 46.1557 22.0827 46.1618 22.0432 46.1618H22.0441Z" fill="#F09709" fill-opacity="0.9"/>
<path d="M22.0445 45.9574C21.9775 45.9574 21.914 45.915 21.8908 45.8475C21.8616 45.7618 21.9062 45.6691 21.9912 45.6397C22.2883 45.5367 22.4884 45.2674 22.4884 44.9713C22.4884 44.7107 22.3364 44.4709 22.0908 44.3453C22.011 44.3046 21.9792 44.2059 22.0196 44.1254C22.0599 44.0449 22.1578 44.0128 22.2376 44.0535C22.5923 44.2354 22.8129 44.5869 22.8129 44.9713C22.8129 45.4068 22.5253 45.7999 22.0977 45.9488C22.0805 45.9548 22.0625 45.9574 22.0445 45.9574Z" fill="#FFDF46"/>
<path d="M22.0439 45.8345C22.0268 45.8345 22.0113 45.8241 22.0053 45.8068C21.9976 45.7851 22.0096 45.7618 22.0302 45.7548C22.3762 45.6345 22.6089 45.3193 22.6089 44.9704C22.6089 44.6631 22.4312 44.3817 22.1452 44.2354C22.1255 44.225 22.1169 44.2007 22.1272 44.1799C22.1375 44.16 22.1616 44.1522 22.1813 44.1618C22.4947 44.3219 22.6896 44.6319 22.6896 44.9704C22.6896 45.354 22.4346 45.7003 22.0559 45.8319C22.0517 45.8336 22.0474 45.8345 22.0431 45.8345H22.0439Z" fill="white"/>
<g style="mix-blend-mode:multiply" opacity="0.36">
<path d="M20.9447 49.2667C20.8743 49.2667 20.8031 49.2554 20.7327 49.2303C20.1085 49.013 19.6895 48.4338 19.6895 47.7887C19.6895 47.2182 20.0123 46.6987 20.5309 46.4338C20.8503 46.2701 21.241 46.3991 21.4032 46.7212C21.5655 47.0433 21.4376 47.4372 21.1182 47.6009C21.0546 47.6329 20.9868 47.6996 20.9868 47.7896C20.9868 47.89 21.0718 47.9645 21.156 47.9939C21.4942 48.1117 21.6746 48.484 21.5578 48.826C21.4651 49.097 21.2135 49.2667 20.9447 49.2667Z" fill="url(#paint11_radial_3143_3888)"/>
</g>
<g filter="url(#filter11_f_3143_3888)">
<path d="M20.7016 48.735C20.6621 48.735 20.6217 48.7289 20.5822 48.715C20.0722 48.5375 19.7305 48.0674 19.7305 47.5445C19.7305 47.0821 19.9932 46.6614 20.4165 46.4449C20.5959 46.3531 20.8157 46.425 20.9068 46.6068C20.9978 46.7878 20.9265 47.0094 20.7462 47.1012C20.5693 47.1912 20.4594 47.3618 20.4594 47.5445C20.4594 47.754 20.6045 47.9445 20.82 48.0198C21.0106 48.0865 21.112 48.296 21.0459 48.4873C20.9935 48.6397 20.8527 48.735 20.7007 48.735H20.7016Z" fill="#F09709" fill-opacity="0.9"/>
<path d="M20.8695 47.8782L20.8696 47.8782C21.1383 47.9722 21.2806 48.2669 21.1877 48.5361C21.1877 48.5362 21.1877 48.5362 21.1876 48.5363L21.0459 48.4873C20.9936 48.6394 20.8532 48.7346 20.7016 48.735L20.8695 47.8782ZM20.8695 47.8782C20.7066 47.8212 20.6094 47.6825 20.6094 47.5445C20.6094 47.4237 20.6826 47.3019 20.8142 47.2349L20.8695 47.8782ZM21.0408 46.5395C20.9126 46.2836 20.6021 46.1815 20.3482 46.3114C19.8766 46.5525 19.5805 47.0237 19.5805 47.5445C19.5805 48.1339 19.9651 48.659 20.5327 48.8566L20.8143 47.2349C21.0691 47.1052 21.1683 46.7932 21.0408 46.5395ZM21.0408 46.5395C21.0408 46.5395 21.0408 46.5395 21.0408 46.5394L20.9068 46.6068L21.0409 46.5397C21.0409 46.5396 21.0408 46.5396 21.0408 46.5395Z" stroke="#F09709" stroke-opacity="0.9" stroke-width="0.3"/>
</g>
<path d="M20.7016 48.735C20.6621 48.735 20.6217 48.7289 20.5822 48.715C20.0722 48.5375 19.7305 48.0674 19.7305 47.5445C19.7305 47.0821 19.9932 46.6614 20.4165 46.4449C20.5959 46.3531 20.8157 46.425 20.9068 46.6068C20.9978 46.7878 20.9265 47.0094 20.7462 47.1012C20.5693 47.1912 20.4594 47.3618 20.4594 47.5445C20.4594 47.754 20.6045 47.9445 20.82 48.0198C21.0106 48.0865 21.112 48.296 21.0459 48.4873C20.9935 48.6397 20.8527 48.735 20.7007 48.735H20.7016Z" fill="#F09709" fill-opacity="0.9"/>
<path d="M20.702 48.5308C20.6849 48.5308 20.6668 48.5282 20.6488 48.5222C20.2212 48.3732 19.9336 47.9802 19.9336 47.5447C19.9336 47.1602 20.1543 46.8087 20.5089 46.6269C20.5887 46.5854 20.6866 46.6183 20.7269 46.6988C20.7673 46.7793 20.7355 46.878 20.6557 46.9187C20.4101 47.0442 20.2581 47.2841 20.2581 47.5447C20.2581 47.8408 20.4582 48.11 20.7553 48.2131C20.8403 48.2425 20.8849 48.336 20.8557 48.4209C20.8326 48.4884 20.7699 48.5308 20.702 48.5308Z" fill="#FFDF46"/>
<path d="M20.7022 48.4079C20.6979 48.4079 20.6936 48.4079 20.6893 48.4053C20.3107 48.2737 20.0557 47.9273 20.0557 47.5438C20.0557 47.2061 20.2506 46.8962 20.564 46.7351C20.5837 46.7247 20.6086 46.7334 20.6181 46.7533C20.6284 46.7732 20.6206 46.7983 20.6 46.8087C20.3141 46.9551 20.1355 47.2373 20.1355 47.5438C20.1355 47.8927 20.3682 48.2079 20.7142 48.3282C20.7357 48.3351 20.7468 48.3585 20.7391 48.3802C20.7331 48.3975 20.7176 48.4079 20.7005 48.4079H20.7022Z" fill="white"/>
<g style="mix-blend-mode:multiply" opacity="0.36">
<path d="M22.7445 49.9741C22.5075 49.9741 22.28 49.8433 22.1658 49.6156C22.0035 49.2936 22.1314 48.8996 22.4508 48.736C22.5144 48.7039 22.5822 48.6373 22.5822 48.5472C22.5822 48.4468 22.4972 48.3723 22.4131 48.3429C22.0739 48.2252 21.8945 47.8529 22.0112 47.5109C22.128 47.1698 22.4972 46.9879 22.8364 47.1057C23.4606 47.323 23.8796 47.9022 23.8796 48.5472C23.8796 49.1178 23.5567 49.6373 23.0381 49.9022C22.9437 49.9507 22.8441 49.9732 22.7453 49.9732L22.7445 49.9741Z" fill="url(#paint12_radial_3143_3888)"/>
</g>
<g filter="url(#filter12_f_3143_3888)">
<path d="M22.5013 49.4425C22.3682 49.4425 22.2403 49.369 22.1759 49.2408C22.0849 49.0599 22.1562 48.8382 22.3365 48.7464C22.5134 48.6564 22.6233 48.4858 22.6233 48.3032C22.6233 48.0936 22.4782 47.9032 22.2626 47.8278C22.072 47.7612 21.9707 47.5516 22.0368 47.3594C22.1029 47.1672 22.3107 47.0651 22.5005 47.1317C23.0105 47.3092 23.3522 47.7793 23.3522 48.3023C23.3522 48.7646 23.0895 49.1854 22.6662 49.4019C22.613 49.4287 22.5571 49.4417 22.5013 49.4417V49.4425Z" fill="#F09709" fill-opacity="0.9"/>
<path d="M22.6513 49.5925H22.5013C22.3132 49.5925 22.1325 49.4884 22.0419 49.3082L22.6513 49.5925ZM22.6513 49.5925V49.569M22.6513 49.5925V49.569M22.6513 49.569C22.6793 49.5604 22.7068 49.5493 22.7337 49.5358L22.7337 49.5358L22.7345 49.5354C23.2061 49.2943 23.5022 48.823 23.5022 48.3023C23.5022 47.7128 23.1175 47.1876 22.5498 46.9901L22.5005 47.1317M22.6513 49.569L22.6233 48.3032C22.6233 48.0936 22.4782 47.9032 22.2626 47.8278C22.072 47.7612 21.9707 47.5516 22.0368 47.3594C22.1029 47.1672 22.3107 47.0651 22.5005 47.1317M22.5005 47.1317L22.5502 46.9902C22.2804 46.8954 21.9876 47.0413 21.895 47.3106C21.8022 47.5804 21.9441 47.8753 22.2131 47.9694L22.2131 47.9694C22.3761 48.0264 22.4733 48.1651 22.4733 48.3032C22.4733 48.4239 22.4001 48.5457 22.2684 48.6128M22.5005 47.1317C23.0105 47.3092 23.3522 47.7793 23.3522 48.3023L22.2684 48.6128M22.2684 48.6128C22.0136 48.7425 21.9143 49.0544 22.0419 49.3082L22.2684 48.6128Z" stroke="#F09709" stroke-opacity="0.9" stroke-width="0.3"/>
</g>
<path d="M22.5013 49.4425C22.3682 49.4425 22.2403 49.369 22.1759 49.2408C22.0849 49.0599 22.1562 48.8382 22.3365 48.7464C22.5134 48.6564 22.6233 48.4858 22.6233 48.3032C22.6233 48.0936 22.4782 47.9032 22.2626 47.8278C22.072 47.7612 21.9707 47.5516 22.0368 47.3594C22.1029 47.1672 22.3107 47.0651 22.5005 47.1317C23.0105 47.3092 23.3522 47.7793 23.3522 48.3023C23.3522 48.7646 23.0895 49.1854 22.6662 49.4019C22.613 49.4287 22.5571 49.4417 22.5013 49.4417V49.4425Z" fill="#F09709" fill-opacity="0.9"/>
<path d="M22.5006 49.2372C22.4414 49.2372 22.3847 49.2043 22.3555 49.1481C22.3151 49.0675 22.3469 48.9688 22.4268 48.9281C22.6723 48.8026 22.8243 48.5628 22.8243 48.3022C22.8243 48.0061 22.6242 47.7368 22.3272 47.6338C22.2422 47.6043 22.1975 47.5108 22.2267 47.426C22.2559 47.3403 22.3486 47.2952 22.4328 47.3247C22.8604 47.4736 23.148 47.8667 23.148 48.3022C23.148 48.6866 22.9273 49.0381 22.5727 49.2199C22.5495 49.232 22.5238 49.2372 22.4997 49.2372H22.5006Z" fill="#FFDF46"/>
<path d="M22.5003 49.1152C22.4857 49.1152 22.4711 49.1074 22.4642 49.0926C22.4539 49.0727 22.4616 49.0476 22.4822 49.0372C22.7682 48.8909 22.9459 48.6087 22.9459 48.3022C22.9459 47.9533 22.7132 47.6381 22.3672 47.5178C22.3457 47.5108 22.3346 47.4875 22.3423 47.4658C22.35 47.4442 22.3723 47.4329 22.3938 47.4407C22.7725 47.5723 23.0275 47.9186 23.0275 48.3022C23.0275 48.6398 22.8326 48.9498 22.5192 49.1108C22.5132 49.1134 22.5071 49.1152 22.5011 49.1152H22.5003Z" fill="white"/>
</g>
<g style="mix-blend-mode:plus-lighter">
<g style="mix-blend-mode:multiply" opacity="0.36">
<path d="M15.2038 39.2146C14.8964 39.2146 14.6002 39.1237 14.3323 38.9462C11.0576 36.7705 9.10254 33.1315 9.10254 29.2129C9.10254 22.8337 14.249 17.644 20.5752 17.644C26.9014 17.644 32.0479 22.8337 32.0479 29.2129C32.0479 32.5566 30.5969 35.7644 28.0683 38.0146C27.7188 38.3254 27.2895 38.4622 26.8259 38.4085C26.3622 38.3549 25.975 38.1246 25.7037 37.7419L23.5872 34.7531C23.1159 34.0882 23.2026 33.1982 23.7924 32.638C24.7214 31.7549 25.2546 30.5064 25.2546 29.2129C25.2546 26.6111 23.1553 24.4943 20.5752 24.4943C17.9951 24.4943 15.8958 26.6111 15.8958 29.2129C15.8958 31.1211 17.0026 32.7878 18.7842 33.5627C19.113 33.7055 19.265 34.0908 19.1225 34.4224C18.9808 34.754 18.5987 34.9072 18.2699 34.7635C16.0392 33.793 14.5985 31.6137 14.5985 29.212C14.5985 25.8891 17.2799 23.1852 20.5752 23.1852C23.8706 23.1852 26.552 25.8891 26.552 29.212C26.552 30.8648 25.8703 32.4605 24.6819 33.5895C24.5678 33.6977 24.5514 33.864 24.6433 33.9921L26.7598 36.9808C26.8156 37.0596 26.8774 37.0969 26.9736 37.1072C27.0689 37.1185 27.1376 37.0969 27.2097 37.0319C29.4601 35.0302 30.7506 32.1791 30.7506 29.2111C30.7506 23.5531 26.1862 18.9505 20.5752 18.9505C14.9642 18.9505 10.3999 23.5531 10.3999 29.2111C10.3999 32.6891 12.1369 35.9194 15.0458 37.8518C15.1222 37.9029 15.1875 37.915 15.2768 37.896C15.3669 37.8769 15.421 37.8389 15.47 37.7609L16.7235 35.7878C16.9167 35.4839 17.3177 35.3947 17.6199 35.5895C17.9213 35.7843 18.0097 36.1886 17.8165 36.4934L16.563 38.4666C16.3269 38.8389 15.9748 39.0839 15.5464 39.1756C15.4313 39.1999 15.3163 39.2129 15.2029 39.2129L15.2038 39.2146Z" fill="url(#paint13_radial_3143_3888)"/>
</g>
<g filter="url(#filter13_f_3143_3888)">
<path d="M14.9623 38.6821C14.709 38.6821 14.4652 38.6076 14.2454 38.4613C11.0505 36.3384 9.14355 32.7895 9.14355 28.967C9.14355 22.7453 14.163 17.6838 20.3329 17.6838C26.5029 17.6838 31.5223 22.7453 31.5223 28.967C31.5223 32.2284 30.1064 35.3583 27.6379 37.554C27.3503 37.8102 26.9965 37.9219 26.6153 37.8778C26.2341 37.8336 25.9147 37.644 25.6923 37.3297L23.5759 34.341C23.1878 33.7938 23.259 33.0613 23.745 32.5999C24.7307 31.6631 25.2965 30.3384 25.2965 28.9661C25.2965 26.2068 23.0701 23.9618 20.3338 23.9618C17.5974 23.9618 15.371 26.2068 15.371 28.9661C15.371 30.9903 16.543 32.7574 18.4302 33.5791C18.6157 33.6596 18.7007 33.876 18.6208 34.0631C18.541 34.2501 18.3263 34.3358 18.1409 34.2553C16.015 33.3297 14.6404 31.2535 14.6404 28.967C14.6404 25.8016 17.1938 23.2267 20.3329 23.2267C23.472 23.2267 26.0255 25.8016 26.0255 28.967C26.0255 30.541 25.3764 32.0613 24.2447 33.1367C24.0275 33.3427 23.9966 33.67 24.1692 33.9141L26.2856 36.9029C26.3878 37.0475 26.5226 37.1271 26.6978 37.1479C26.8729 37.1678 27.0223 37.1211 27.1545 37.0033C29.4659 34.947 30.7916 32.018 30.7916 28.9678C30.7916 23.1522 26.0993 18.4206 20.332 18.4206C14.5648 18.4206 9.87251 23.1522 9.87251 28.9678C9.87251 32.5418 11.6567 35.8613 14.6464 37.8475C14.7863 37.9401 14.928 37.9678 15.0928 37.9323C15.2568 37.8968 15.3762 37.8146 15.4663 37.6717L16.7199 35.6986C16.8289 35.5271 17.0539 35.4778 17.2239 35.5869C17.3939 35.6968 17.4428 35.9237 17.3347 36.0951L16.0811 38.0683C15.8862 38.3747 15.5968 38.5765 15.2448 38.6518C15.1495 38.6717 15.0551 38.6821 14.9623 38.6821Z" fill="#0053FA"/>
<path d="M17.9418 34.7139L17.9413 34.7137C15.6364 33.7102 14.1404 31.4562 14.1404 28.967C14.1404 25.5294 16.9138 22.7267 20.3329 22.7267C23.752 22.7267 26.5255 25.5294 26.5255 28.967C26.5255 30.6767 25.8211 32.3285 24.5891 33.4991L24.5888 33.4994C24.5691 33.5181 24.5604 33.539 24.5585 33.5591C24.5565 33.5793 24.5611 33.6023 24.5773 33.6253C24.5773 33.6254 24.5774 33.6255 24.5775 33.6255L26.6937 36.6139L26.694 36.6143C26.7093 36.636 26.7183 36.6411 26.7196 36.6419L26.7196 36.6419C26.7211 36.6428 26.73 36.6481 26.7555 36.6512C26.7806 36.654 26.7903 36.6509 26.7917 36.6504L26.7917 36.6504L26.7918 36.6504C26.7932 36.65 26.8029 36.647 26.822 36.6299L26.8222 36.6298C29.0286 34.6668 30.2916 31.873 30.2916 28.9678C30.2916 23.4244 25.8192 18.9206 20.332 18.9206C14.8449 18.9206 10.3725 23.4244 10.3725 28.9678C10.3725 32.3733 12.0719 35.5366 14.9223 37.4305C14.9345 37.4386 14.9427 37.4426 14.9472 37.4445C14.9506 37.4459 14.9526 37.4465 14.9536 37.4467C14.9539 37.4468 14.9541 37.4468 14.9542 37.4469C14.9549 37.447 14.9568 37.4473 14.961 37.4472L17.9418 34.7139ZM17.9418 34.7139C18.3831 34.9055 18.8926 34.6999 19.0807 34.2594C19.267 33.8231 19.0706 33.3123 18.6298 33.1206L17.9418 34.7139ZM23.4007 32.2373C24.286 31.3958 24.7965 30.2026 24.7965 28.9661C24.7965 26.479 22.7901 24.4618 20.3338 24.4618C17.8775 24.4618 15.871 26.479 15.871 28.9661C15.871 30.7868 16.9208 32.3764 18.6294 33.1204L23.4007 32.2373ZM23.4007 32.2373C22.7343 32.8701 22.6362 33.8801 23.1678 34.6299L23.4007 32.2373ZM15.0145 37.4355C15.0099 37.4375 15.0013 37.4405 14.9873 37.4436L23.168 34.6302L25.2842 37.6185C25.2842 37.6186 25.2842 37.6186 25.2843 37.6187C25.5884 38.0484 26.0351 38.3139 26.5578 38.3745C27.0807 38.435 27.5763 38.2784 27.9702 37.9276C30.5438 35.6384 32.0223 32.3733 32.0223 28.967C32.0223 22.4731 26.7829 17.1838 20.3329 17.1838C13.8829 17.1838 8.64355 22.4731 8.64355 28.967C8.64355 32.9575 10.6348 36.6623 13.9683 38.8775C14.2676 39.0768 14.6074 39.1821 14.9623 39.1821C15.0924 39.1821 15.2212 39.1675 15.3471 39.1412L15.3494 39.1407C15.8336 39.0371 16.2368 38.7552 16.503 38.3366L16.5031 38.3364L17.7567 36.3632L17.7575 36.3619C18.0104 35.9611 17.8978 35.4273 17.4954 35.167L17.4939 35.1661C17.0904 34.9071 16.5554 35.0256 16.298 35.4302L16.2979 35.4304L15.0443 37.4036L15.0435 37.4049C15.036 37.4167 15.0304 37.4234 15.0272 37.4268C15.0242 37.43 15.0225 37.4313 15.0217 37.4318C15.021 37.4324 15.019 37.4337 15.0145 37.4355Z" stroke="#0053FA"/>
</g>
<path d="M14.9623 38.6821C14.709 38.6821 14.4652 38.6076 14.2454 38.4613C11.0505 36.3384 9.14355 32.7895 9.14355 28.967C9.14355 22.7453 14.163 17.6838 20.3329 17.6838C26.5029 17.6838 31.5223 22.7453 31.5223 28.967C31.5223 32.2284 30.1064 35.3583 27.6379 37.554C27.3503 37.8102 26.9965 37.9219 26.6153 37.8778C26.2341 37.8336 25.9147 37.644 25.6923 37.3297L23.5759 34.341C23.1878 33.7938 23.259 33.0613 23.745 32.5999C24.7307 31.6631 25.2965 30.3384 25.2965 28.9661C25.2965 26.2068 23.0701 23.9618 20.3338 23.9618C17.5974 23.9618 15.371 26.2068 15.371 28.9661C15.371 30.9903 16.543 32.7574 18.4302 33.5791C18.6157 33.6596 18.7007 33.876 18.6208 34.0631C18.541 34.2501 18.3263 34.3358 18.1409 34.2553C16.015 33.3297 14.6404 31.2535 14.6404 28.967C14.6404 25.8016 17.1938 23.2267 20.3329 23.2267C23.472 23.2267 26.0255 25.8016 26.0255 28.967C26.0255 30.541 25.3764 32.0613 24.2447 33.1367C24.0275 33.3427 23.9966 33.67 24.1692 33.9141L26.2856 36.9029C26.3878 37.0475 26.5226 37.1271 26.6978 37.1479C26.8729 37.1678 27.0223 37.1211 27.1545 37.0033C29.4659 34.947 30.7916 32.018 30.7916 28.9678C30.7916 23.1522 26.0993 18.4206 20.332 18.4206C14.5648 18.4206 9.87251 23.1522 9.87251 28.9678C9.87251 32.5418 11.6567 35.8613 14.6464 37.8475C14.7863 37.9401 14.928 37.9678 15.0928 37.9323C15.2568 37.8968 15.3762 37.8146 15.4663 37.6717L16.7199 35.6986C16.8289 35.5271 17.0539 35.4778 17.2239 35.5869C17.3939 35.6968 17.4428 35.9237 17.3347 36.0951L16.0811 38.0683C15.8862 38.3747 15.5968 38.5765 15.2448 38.6518C15.1495 38.6717 15.0551 38.6821 14.9623 38.6821Z" fill="#1F86F2"/>
<path d="M14.9594 38.4787C14.7465 38.4787 14.5455 38.4163 14.3575 38.2908C11.2202 36.2059 9.34668 32.7202 9.34668 28.967C9.34668 22.8579 14.2751 17.8882 20.3334 17.8882C26.3917 17.8882 31.3201 22.8579 31.3201 28.967C31.3201 32.1696 29.9292 35.244 27.5045 37.4007C27.2606 37.6172 26.9618 37.7124 26.639 37.6752C26.3162 37.638 26.0466 37.4778 25.8577 37.2111L23.7412 34.2224C23.4132 33.7592 23.4733 33.1393 23.8837 32.7488C24.9106 31.7739 25.4988 30.3947 25.4988 28.9661C25.4988 26.0934 23.1814 23.7566 20.3334 23.7566C17.4854 23.7566 15.1672 26.0934 15.1672 28.9661C15.1672 31.0726 16.3864 32.9124 18.3492 33.767C18.4316 33.8025 18.4694 33.8986 18.4342 33.9817C18.399 34.0648 18.3037 34.1029 18.2212 34.0674C16.1692 33.1739 14.8435 31.1722 14.8435 28.967C14.8435 25.9142 17.306 23.431 20.3334 23.431C23.3608 23.431 25.8233 25.915 25.8233 28.967C25.8233 30.4856 25.1974 31.9505 24.1061 32.9878C23.815 33.2648 23.7721 33.7038 24.0048 34.0328L26.1213 37.0215C26.2569 37.2129 26.4432 37.3237 26.6759 37.3505C26.9077 37.3774 27.1147 37.3116 27.2898 37.1557C29.645 35.0605 30.9956 32.0761 30.9956 28.967C30.9956 23.0388 26.2123 18.2155 20.3334 18.2155C14.4545 18.2155 9.67123 23.0388 9.67123 28.967C9.67123 32.6103 11.4898 35.9938 14.5361 38.0181C14.7224 38.1419 14.9182 38.1782 15.1363 38.1323C15.3543 38.0856 15.5183 37.9713 15.6385 37.7817L16.8921 35.8085C16.9402 35.7323 17.0406 35.7107 17.1162 35.7592C17.1918 35.8077 17.2132 35.909 17.1651 35.9852L15.9116 37.9583C15.745 38.2215 15.5063 38.3877 15.2032 38.4518C15.1208 38.4691 15.0392 38.4787 14.9594 38.4787Z" fill="#8AC8FF"/>
<path d="M14.9613 38.3558C14.7715 38.3558 14.5921 38.2995 14.4246 38.1887C11.3216 36.1264 9.46875 32.6796 9.46875 28.9671C9.46875 22.9264 14.3431 18.0112 20.3335 18.0112C26.324 18.0112 31.1983 22.9264 31.1983 28.9671C31.1983 32.135 29.8229 35.1757 27.4239 37.3091C27.2041 37.5047 26.9448 37.587 26.6529 37.5532C26.3618 37.5195 26.1274 37.3801 25.9566 37.1394L23.8401 34.1506C23.5473 33.7376 23.6014 33.1861 23.9672 32.8381C25.0181 31.8398 25.6208 30.4285 25.6208 28.9662C25.6208 26.0259 23.2485 23.6346 20.3335 23.6346C17.4186 23.6346 15.0463 26.0268 15.0463 28.9662C15.0463 31.1229 16.2938 33.0052 18.3012 33.8796C18.3218 33.8883 18.3313 33.9125 18.3227 33.9333C18.3141 33.9541 18.2901 33.9636 18.2695 33.955C16.2311 33.0675 14.9655 31.1567 14.9655 28.9671C14.9655 25.9818 17.3739 23.5532 20.3344 23.5532C23.2949 23.5532 25.7033 25.9818 25.7033 28.9671C25.7033 30.4519 25.0911 31.8848 24.0247 32.8987C23.6881 33.2182 23.6392 33.7255 23.9079 34.1039L26.0244 37.0926C26.1807 37.3134 26.3962 37.4415 26.6641 37.4727C26.9319 37.503 27.1698 37.4277 27.3724 37.2485C29.7533 35.1298 31.1194 32.1117 31.1194 28.9679C31.1194 22.9723 26.282 18.0943 20.3361 18.0943C14.3903 18.0943 9.55289 22.9723 9.55289 28.9679C9.55289 32.6528 11.392 36.0744 14.4727 38.1212C14.6839 38.2614 14.9175 38.3065 15.1647 38.2528C15.4129 38.2 15.6078 38.064 15.7443 37.8485L16.9979 35.8753C17.0099 35.8563 17.0348 35.8511 17.0537 35.8632C17.0726 35.8753 17.0777 35.9004 17.0657 35.9195L15.8121 37.8926C15.6636 38.1272 15.4515 38.2753 15.1811 38.3324C15.1072 38.348 15.0351 38.3558 14.9638 38.3558H14.9613Z" fill="white"/>
</g>
<g style="mix-blend-mode:plus-lighter">
<g style="mix-blend-mode:multiply" opacity="0.36">
<path d="M40.5408 55.3409C37.9504 55.3409 35.3935 54.4561 33.2976 52.7946C32.931 52.5045 32.7206 52.1028 32.6889 51.6335C32.6571 51.1643 32.8117 50.7383 33.1362 50.4006L35.6682 47.7617C36.2315 47.1738 37.115 47.0993 37.7684 47.5825C38.7979 48.3444 40.1115 48.6474 41.3737 48.4136C43.9117 47.9435 45.5963 45.4794 45.1301 42.9201C44.6639 40.3617 42.2203 38.6621 39.6822 39.1322C37.8216 39.4768 36.3955 40.876 35.961 42.7825C35.8812 43.1348 35.5326 43.3548 35.1831 43.2734C34.8337 43.1929 34.6156 42.8413 34.6963 42.489C35.2398 40.1019 37.1047 38.2786 39.4478 37.8448C42.6891 37.2448 45.811 39.4145 46.406 42.6838C47.0018 45.9522 44.8493 49.1002 41.6072 49.7002C39.9948 49.9989 38.3153 49.611 36.9991 48.637C36.8729 48.5435 36.708 48.5574 36.599 48.6708L34.0661 51.3097C33.9991 51.3799 33.9742 51.4474 33.9811 51.5444C33.9879 51.6413 34.0214 51.7054 34.097 51.7652C36.4564 53.6353 39.4693 54.3998 42.3654 53.8639C47.8836 52.8413 51.5482 47.4829 50.5341 41.9175C50.043 39.2223 48.5405 36.8803 46.3029 35.3245C44.0654 33.7686 41.3608 33.1851 38.688 33.6794C35.2956 34.308 32.4588 36.6145 31.0996 39.8491C31.0635 39.934 31.0635 40.0006 31.0987 40.0864C31.1339 40.1721 31.1803 40.2188 31.2653 40.2543L33.4161 41.1409C33.7475 41.2777 33.9072 41.6595 33.7716 41.9937C33.6359 42.3279 33.2573 42.489 32.9259 42.3522L30.775 41.4656C30.3689 41.2985 30.0667 40.9937 29.8993 40.5851C29.7318 40.1764 29.7344 39.7452 29.9053 39.3383C31.4362 35.6976 34.6319 33.1011 38.4544 32.3929C41.4681 31.8344 44.5179 32.4933 47.0405 34.2474C49.5631 36.0015 51.2579 38.6413 51.8117 41.6812C52.9546 47.9556 48.8229 53.998 42.6006 55.1504C41.9163 55.2768 41.2269 55.3392 40.5391 55.3392L40.5408 55.3409Z" fill="url(#paint14_radial_3143_3888)"/>
</g>
<g filter="url(#filter14_f_3143_3888)">
<path d="M40.2982 54.8093C37.7713 54.8093 35.2762 53.9461 33.231 52.3244C32.9297 52.0855 32.7562 51.7547 32.7305 51.3694C32.7047 50.9842 32.8318 50.6327 33.0988 50.3547L35.6308 47.7158C36.0945 47.2318 36.8217 47.1703 37.3592 47.5686C38.4513 48.3772 39.8449 48.6985 41.1834 48.4508C43.8752 47.9521 45.6628 45.3383 45.1682 42.624C44.6737 39.9097 42.0815 38.1071 39.3898 38.6058C37.4159 38.9712 35.9039 40.4534 35.4436 42.4733C35.3981 42.6716 35.2024 42.7954 35.0066 42.7495C34.81 42.7036 34.6872 42.5062 34.7327 42.3088C35.2513 40.0327 37.0278 38.295 39.2584 37.882C42.346 37.3097 45.3193 39.3772 45.886 42.4907C46.4536 45.6041 44.4032 48.6023 41.3157 49.1738C39.7796 49.4586 38.1809 49.0889 36.9273 48.1608C36.6869 47.9833 36.3624 48.0101 36.1554 48.2266L33.6225 50.8656C33.4998 50.9928 33.4465 51.1417 33.4586 51.3184C33.4706 51.4959 33.5436 51.6352 33.6818 51.7452C36.1048 53.6664 39.2009 54.4517 42.1768 53.9002C47.8488 52.8491 51.6164 47.3409 50.574 41.6214C50.0691 38.8508 48.5245 36.4439 46.2243 34.8448C43.9241 33.2456 41.1448 32.6456 38.3964 33.1539C34.9105 33.7998 31.9946 36.1694 30.5977 39.4933C30.5324 39.6491 30.5316 39.7946 30.5951 39.9513C30.6595 40.108 30.7617 40.211 30.9171 40.2751L33.0679 41.1617C33.2542 41.2387 33.3435 41.4534 33.2679 41.6413C33.1915 41.8292 32.9786 41.9192 32.7923 41.843L30.6415 40.9565C30.3075 40.8188 30.0585 40.5686 29.9211 40.2318C29.7837 39.8959 29.7854 39.5409 29.9262 39.2058C31.4194 35.6534 34.537 33.121 38.265 32.4301C41.2049 31.8855 44.1782 32.5279 46.639 34.2387C49.0998 35.9495 50.7517 38.5244 51.2918 41.4881C52.4063 47.6067 48.3768 53.5002 42.3091 54.624C41.6419 54.7478 40.9688 54.8084 40.2991 54.8084L40.2982 54.8093Z" fill="#0053FA"/>
<path d="M40.5068 55.3093H40.2982C37.6574 55.3093 35.0531 54.4072 32.9204 52.7162L33.231 52.3244L32.9204 52.7162C32.5081 52.3893 32.2667 51.9282 32.2316 51.4028C32.1965 50.8782 32.373 50.3885 32.7382 50.0083L35.2698 47.3699L40.5068 55.3093ZM40.5068 55.3093L40.5095 55.3065C41.1399 55.2951 41.7725 55.2321 42.4003 55.1156C48.7426 53.9408 52.9469 47.7844 51.7837 41.3985L51.7837 41.3984C51.2201 38.3056 49.4945 35.615 46.9244 33.8282C44.3544 32.0414 41.2455 31.3694 38.174 31.9384L38.1739 31.9384C34.2771 32.6606 31.0224 35.3074 29.4653 39.0121L29.4653 39.0121C29.2731 39.4694 29.2706 39.9622 29.4583 40.421C29.646 40.8809 29.9926 41.2298 30.4509 41.4187C30.4509 41.4187 30.4509 41.4187 30.4509 41.4187L32.6017 42.3053L32.603 42.3058C33.0476 42.4876 33.5514 42.2714 33.7311 41.8297L33.7318 41.8279C33.9086 41.3884 33.7016 40.8827 33.259 40.6996L33.2584 40.6994L31.1077 39.8128C31.1076 39.8128 31.1076 39.8128 31.1076 39.8128C31.0838 39.803 31.0772 39.7961 31.0767 39.7955L31.0766 39.7955C31.0762 39.7951 31.0687 39.7881 31.058 39.7623C31.048 39.7373 31.0481 39.7266 31.0481 39.7249L31.0481 39.7248L31.0481 39.7247C31.0481 39.7229 31.0481 39.712 31.0589 39.6864L30.5977 39.4933M40.5068 55.3093L30.5977 39.4933M30.5977 39.4933C30.5324 39.6491 30.5316 39.7946 30.5951 39.9513L38.4873 33.6455C35.1703 34.2602 32.3916 36.5154 31.0586 39.687L30.5977 39.4933ZM39.4809 39.0974L39.4808 39.0975C37.7113 39.425 36.3489 40.7509 35.9312 42.5844L35.931 42.5852C35.8248 43.0477 35.3637 43.3468 34.8925 43.2363M39.4809 39.0974L34.7327 42.3088M39.4809 39.0974C41.8969 38.6498 44.2307 40.2679 44.6763 42.7136C45.1221 45.1603 43.5096 47.5113 41.0925 47.9592L39.4809 39.0974ZM34.8925 43.2363L35.0066 42.7495L34.893 43.2365C34.8928 43.2364 34.8927 43.2364 34.8925 43.2363ZM34.8925 43.2363C34.4268 43.1274 34.1387 42.6616 34.2453 42.1972M34.2453 42.1972C34.2453 42.1974 34.2453 42.1976 34.2452 42.1978L34.7327 42.3088M34.2453 42.1972C34.2454 42.197 34.2454 42.1968 34.2455 42.1965L34.7327 42.3088M34.2453 42.1972C34.8068 39.7341 36.7333 37.841 39.1674 37.3904C42.5307 36.767 45.7624 39.019 46.3779 42.4011C46.9941 45.7819 44.7689 49.0431 41.4068 49.6654L34.7327 42.3088M36.5169 48.5721L36.5162 48.5728L33.9833 51.2118L33.9824 51.2127C33.9648 51.231 33.9611 51.2409 33.9603 51.2432C33.9594 51.2458 33.9555 51.2569 33.9574 51.2844L33.9574 51.2846C33.9593 51.3126 33.9647 51.323 33.9659 51.3253C33.9671 51.3276 33.9722 51.3373 33.993 51.3539L33.6818 51.7452L33.9924 51.3534C36.305 53.1871 39.2553 53.9331 42.0857 53.4086L42.1768 53.9002L42.0857 53.4086C47.4832 52.4083 51.0757 47.163 50.0821 41.711C49.6008 39.0697 48.1299 36.7785 45.9389 35.2553C43.7481 33.7322 41.1043 33.1616 38.4875 33.6455L36.5169 48.5721ZM36.5169 48.5721C36.5355 48.5526 36.5546 48.5456 36.5709 48.5442C36.5873 48.5428 36.6077 48.5465 36.6298 48.5626M36.5169 48.5721L36.6298 48.5626M36.6298 48.5626C37.9948 49.5733 39.7343 49.9755 41.4066 49.6654L36.6298 48.5626ZM41.0923 47.9592C39.8898 48.1816 38.6372 47.8927 37.6569 47.1669L41.0923 47.9592ZM37.6567 47.1667C36.9169 46.6187 35.9077 46.7042 35.27 47.3696L37.6567 47.1667Z" stroke="#0053FA"/>
</g>
<path d="M40.2982 54.8093C37.7713 54.8093 35.2762 53.9461 33.231 52.3244C32.9297 52.0855 32.7562 51.7547 32.7305 51.3694C32.7047 50.9842 32.8318 50.6327 33.0988 50.3547L35.6308 47.7158C36.0945 47.2318 36.8217 47.1703 37.3592 47.5686C38.4513 48.3772 39.8449 48.6985 41.1834 48.4508C43.8752 47.9521 45.6628 45.3383 45.1682 42.624C44.6737 39.9097 42.0815 38.1071 39.3898 38.6058C37.4159 38.9712 35.9039 40.4534 35.4436 42.4733C35.3981 42.6716 35.2024 42.7954 35.0066 42.7495C34.81 42.7036 34.6872 42.5062 34.7327 42.3088C35.2513 40.0327 37.0278 38.295 39.2584 37.882C42.346 37.3097 45.3193 39.3772 45.886 42.4907C46.4536 45.6041 44.4032 48.6023 41.3157 49.1738C39.7796 49.4586 38.1809 49.0889 36.9273 48.1608C36.6869 47.9833 36.3624 48.0101 36.1554 48.2266L33.6225 50.8656C33.4998 50.9928 33.4465 51.1417 33.4586 51.3184C33.4706 51.4959 33.5436 51.6352 33.6818 51.7452C36.1048 53.6664 39.2009 54.4517 42.1768 53.9002C47.8488 52.8491 51.6164 47.3409 50.574 41.6214C50.0691 38.8508 48.5245 36.4439 46.2243 34.8448C43.9241 33.2456 41.1448 32.6456 38.3964 33.1539C34.9105 33.7998 31.9946 36.1694 30.5977 39.4933C30.5324 39.6491 30.5316 39.7946 30.5951 39.9513C30.6595 40.108 30.7617 40.211 30.9171 40.2751L33.0679 41.1617C33.2542 41.2387 33.3435 41.4534 33.2679 41.6413C33.1915 41.8292 32.9786 41.9192 32.7923 41.843L30.6415 40.9565C30.3075 40.8188 30.0585 40.5686 29.9211 40.2318C29.7837 39.8959 29.7854 39.5409 29.9262 39.2058C31.4194 35.6534 34.537 33.121 38.265 32.4301C41.2049 31.8855 44.1782 32.5279 46.639 34.2387C49.0998 35.9495 50.7517 38.5244 51.2918 41.4881C52.4063 47.6067 48.3768 53.5002 42.3091 54.624C41.6419 54.7478 40.9688 54.8084 40.2991 54.8084L40.2982 54.8093Z" fill="#1F86F2"/>
<path d="M40.297 54.6049C37.8147 54.6049 35.3643 53.7564 33.3551 52.1642C33.1001 51.9616 32.9533 51.6819 32.931 51.3555C32.9087 51.0291 33.0168 50.7321 33.2427 50.4967L35.7755 47.8577C36.1679 47.4482 36.7835 47.3962 37.2386 47.733C38.3754 48.5746 39.8264 48.9096 41.22 48.6516C44.0216 48.133 45.8822 45.4118 45.367 42.5867C44.8519 39.7616 42.1541 37.8854 39.3525 38.4049C37.2978 38.7858 35.724 40.327 35.2449 42.4283C35.2252 42.5166 35.1376 42.5711 35.0509 42.5512C34.9633 42.5313 34.9092 42.443 34.929 42.3555C35.4295 40.159 37.1424 38.4819 39.2941 38.0837C42.2718 37.5321 45.1386 39.5261 45.6864 42.5287C46.2334 45.5313 44.256 48.4222 41.2783 48.9746C39.7973 49.249 38.2552 48.8932 37.0463 47.998C36.7234 47.759 36.2873 47.7962 36.0091 48.0863L33.4762 50.7252C33.3139 50.8941 33.2392 51.0992 33.2555 51.3347C33.271 51.5694 33.3723 51.7625 33.556 51.9079C36.0254 53.8646 39.1799 54.6646 42.2125 54.1036C47.9944 53.0326 51.8349 47.417 50.772 41.5867C50.2576 38.7625 48.683 36.3088 46.3381 34.6785C43.9933 33.0482 41.1599 32.436 38.3591 32.9555C34.8053 33.6135 31.8345 36.0291 30.4101 39.4161C30.3234 39.6231 30.3225 39.8239 30.4075 40.0317C30.4925 40.2395 30.6342 40.3815 30.8403 40.4664L32.9911 41.3529C33.0744 41.3876 33.1139 41.4828 33.0795 41.5659C33.046 41.6499 32.9507 41.6897 32.8683 41.6551L30.7175 40.7685C30.4307 40.6508 30.2255 40.4438 30.1079 40.1555C29.9903 39.8672 29.9911 39.5746 30.1122 39.2871C31.5787 35.7988 34.6396 33.3105 38.3007 32.6326C41.1865 32.0975 44.1066 32.7287 46.5227 34.4083C48.9388 36.088 50.5607 38.6161 51.0914 41.527C52.1861 47.5347 48.2296 53.3209 42.2709 54.4248C41.6158 54.546 40.9555 54.6057 40.297 54.6057V54.6049Z" fill="#8AC8FF"/>
<path d="M40.2968 54.4821C37.842 54.4821 35.4173 53.6432 33.4296 52.0674C33.1987 51.8847 33.0716 51.6423 33.0518 51.3471C33.0321 51.0518 33.1257 50.7947 33.3292 50.5817L35.8621 47.9428C36.2115 47.5782 36.7602 47.5315 37.1654 47.8319C38.3288 48.6934 39.8142 49.0363 41.2404 48.7722C44.1081 48.2406 46.0125 45.4562 45.4853 42.5644C44.9581 39.6726 42.1969 37.7514 39.3291 38.2839C37.2255 38.6735 35.6148 40.251 35.1254 42.3999C35.1202 42.4215 35.0988 42.4354 35.0764 42.4302C35.055 42.425 35.0412 42.4034 35.0464 42.3808C35.5435 40.199 37.1792 38.5982 39.3145 38.2025C42.226 37.6631 45.0303 39.6129 45.5652 42.5488C46.1001 45.4847 44.1665 48.3124 41.255 48.8518C39.8065 49.1202 38.2988 48.7722 37.1173 47.8969C36.7447 47.6207 36.2416 47.664 35.9204 47.999L33.3876 50.638C33.2004 50.8337 33.1145 51.07 33.1326 51.341C33.1506 51.612 33.2674 51.8345 33.4794 52.0025C35.9754 53.9808 39.166 54.7904 42.2329 54.2224C48.0809 53.1393 51.9652 47.4596 50.8902 41.5627C50.3699 38.7055 48.7772 36.2241 46.4057 34.5757C44.0343 32.9272 41.1682 32.3073 38.3357 32.8328C34.7416 33.4986 31.7365 35.941 30.2974 39.3661C30.1987 39.6016 30.1978 39.8406 30.294 40.0761C30.3902 40.3125 30.5585 40.4813 30.7929 40.5774L32.9437 41.464C32.9643 41.4726 32.9746 41.496 32.966 41.5176C32.9574 41.5384 32.9342 41.5488 32.9128 41.5402L30.7619 40.6536C30.5069 40.5479 30.3241 40.3644 30.2184 40.1073C30.1137 39.8501 30.1146 39.5895 30.2219 39.3341C31.6721 35.8839 34.6995 33.4233 38.3203 32.7523C41.1743 32.2233 44.0626 32.8475 46.4513 34.5081C48.8408 36.1696 50.4446 38.6692 50.9692 41.5479C52.0519 47.4899 48.1384 53.2112 42.2467 54.3029C41.5993 54.4233 40.9459 54.4821 40.295 54.4821H40.2968Z" fill="white"/>
</g>
<g filter="url(#filter15_b_3143_3888)">
<g style="mix-blend-mode:multiply" opacity="0.36">
<path d="M43.7999 25.4731C43.1765 25.4731 42.2303 24.9753 41.8405 24.7545C40.8961 24.2177 39.955 23.4991 39.1205 22.6749C38.7805 22.3398 38.4602 21.9779 38.1666 21.5995C37.6754 20.9658 36.1102 18.7493 36.6099 16.8359C37.0693 15.0783 38.6817 13.6896 40.3611 13.6056C41.0266 13.5718 41.7796 13.7536 42.5377 14.1303C43.0117 14.3658 43.4496 14.6852 43.8419 14.9813C44.473 14.4065 45.1359 14.0099 45.8373 13.7813C47.2497 13.3216 48.8682 13.7147 49.9621 14.7813C50.6498 15.4523 51.0731 16.403 51.1538 17.4584C51.2311 18.474 50.6962 19.68 50.4627 20.1519C49.8994 21.2887 49.0975 22.3138 48.1436 23.1155C46.8342 24.2168 45.3033 25.3571 43.8806 25.4688C43.854 25.4705 43.8265 25.4723 43.7981 25.4723L43.7999 25.4731ZM40.5217 14.9528C40.4899 14.9528 40.4582 14.9528 40.4273 14.9554C39.3428 15.0091 38.2112 16.0073 37.9047 17.1805C37.6325 18.2238 38.4439 19.7658 39.2209 20.7675C39.4776 21.0991 39.7584 21.416 40.0563 21.7095C40.8085 22.4523 41.6525 23.0982 42.4965 23.577C43.0314 23.88 43.6144 24.1138 43.7861 24.1225C44.9736 24.0238 46.5929 22.6619 47.2858 22.0792C48.0869 21.4056 48.7892 20.5069 49.264 19.5493C49.6358 18.7995 49.853 18.0203 49.8178 17.5632C49.7629 16.8376 49.483 16.1943 49.0305 15.7528C48.299 15.0394 47.1811 14.764 46.2486 15.0671C45.1333 15.4298 44.1038 16.4116 43.1018 18.0688C42.9095 18.3874 42.4974 18.4878 42.1814 18.2939C41.8654 18.1 41.7658 17.6844 41.9582 17.3658C42.2715 16.8471 42.5918 16.3839 42.9198 15.9744C42.6004 15.7363 42.2741 15.506 41.9461 15.3432C41.431 15.087 40.9407 14.9536 40.5217 14.9536V14.9528Z" fill="url(#paint15_radial_3143_3888)"/>
</g>
<g style="mix-blend-mode:plus-lighter" filter="url(#filter16_f_3143_3888)">
<path d="M43.5454 24.9243C42.9633 24.9243 41.9389 24.3598 41.7329 24.2438C40.8099 23.72 39.8912 23.0169 39.0746 22.2109C38.7441 21.8845 38.4315 21.533 38.1465 21.165C37.676 20.5581 36.1768 18.4412 36.6422 16.6585C37.0629 15.0473 38.5929 13.7243 40.1247 13.6481C40.9026 13.6092 41.6599 13.8957 42.157 14.1425C42.6542 14.3892 43.1015 14.7278 43.5334 15.055L43.6106 15.1139C44.264 14.4776 44.9492 14.0464 45.6756 13.81C46.9661 13.3901 48.5056 13.765 49.5067 14.7416C50.1429 15.3624 50.5344 16.2464 50.61 17.2291C50.6821 18.1711 50.1712 19.3182 49.9489 19.7676C49.4037 20.868 48.6275 21.8602 47.7045 22.636C46.4303 23.707 44.9466 24.8169 43.6072 24.9217C43.5875 24.9234 43.566 24.9243 43.5445 24.9243H43.5454ZM40.2707 14.4048C40.2346 14.4048 40.1985 14.4048 40.1625 14.4074C38.939 14.468 37.7129 15.5425 37.3712 16.8524C37.0715 17.9996 37.882 19.591 38.7406 20.6975C39.0051 21.0386 39.2953 21.3659 39.6018 21.668C40.372 22.4282 41.2366 23.0905 42.1029 23.5823C42.6876 23.9139 43.3488 24.1789 43.5497 24.1659C44.8307 24.0654 46.5076 22.6559 47.2228 22.0542C48.0548 21.3546 48.7837 20.423 49.2757 19.4291C49.5891 18.797 49.9068 17.9027 49.8596 17.2879C49.7986 16.4905 49.4878 15.7797 48.9838 15.2879C48.1767 14.5009 46.9412 14.1979 45.9083 14.5338C44.7234 14.9191 43.6416 15.9425 42.6009 17.6628C42.4927 17.8421 42.2609 17.8983 42.0832 17.7892C41.9054 17.6802 41.8496 17.4464 41.9578 17.2672C42.327 16.6568 42.7039 16.126 43.092 15.6715L43.0817 15.6637C42.6773 15.3572 42.2592 15.0412 41.8247 14.8256C41.4315 14.6299 40.8519 14.4057 40.2707 14.4057V14.4048Z" fill="#6700FA"/>
<path d="M41.4385 24.7666L41.4367 24.7656C40.4642 24.2137 39.5039 23.4778 38.6531 22.6379L38.6531 22.6378C38.304 22.2932 37.9739 21.9219 37.6723 21.5326L41.4385 24.7666ZM41.4385 24.7666C41.5482 24.8284 41.8757 25.0096 42.257 25.177C42.6091 25.3315 43.1145 25.5241 43.5445 25.5243L41.4385 24.7666ZM40.2083 15.0057C40.2074 15.0057 40.2065 15.0058 40.2056 15.0059L40.1922 15.0068L40.1922 15.0067C39.266 15.0526 38.2368 15.9112 37.9517 17.0039L37.9517 17.0041C37.8493 17.396 37.9255 17.9363 38.1784 18.5669C38.4256 19.1832 38.8111 19.8096 39.2147 20.3296L39.2148 20.3299C39.4631 20.6501 39.7357 20.9575 40.023 21.2407L40.0233 21.241C40.7594 21.9676 41.5825 22.597 42.3991 23.0605C42.6691 23.2136 42.9565 23.351 43.1943 23.4467C43.3136 23.4948 43.4123 23.529 43.4849 23.5496C43.5118 23.5572 43.5305 23.5616 43.542 23.5641C44.0154 23.5138 44.6294 23.2175 45.2686 22.7968C45.9044 22.3783 46.478 21.8967 46.8365 21.5951L46.8367 21.5949C47.6042 20.9496 48.282 20.0841 48.738 19.1629L48.7382 19.1625C48.8822 18.8721 49.0263 18.5226 49.1277 18.1812C49.2322 17.8293 49.2767 17.5341 49.2613 17.3339L49.2613 17.3337C49.2098 16.6603 48.9499 16.0932 48.5648 15.7174C47.9097 15.0787 46.9047 14.8407 46.0938 15.1044L46.0938 15.1044C45.1083 15.4249 44.1235 16.3051 43.1146 17.9729L40.2083 15.0057ZM40.2083 15.0057H40.2707C40.7148 15.0057 41.1953 15.1826 41.5574 15.3628L41.558 15.3631C41.7812 15.4738 42.0038 15.6177 42.2346 15.7822C41.9645 16.14 41.7016 16.5315 41.4444 16.9566L41.4442 16.9571C41.1676 17.4153 41.3074 18.0171 41.7693 18.3006C42.2312 18.5841 42.8341 18.437 43.1143 17.9734L40.2083 15.0057ZM43.6565 25.5197C43.6187 25.5229 43.581 25.5243 43.5454 25.5243L40.0949 13.0489C41.0239 13.0024 41.8912 13.3407 42.4238 13.6051C42.8449 13.8141 43.229 14.0794 43.575 14.3356C44.1728 13.829 44.809 13.461 45.4899 13.2395L45.6756 13.81L45.4899 13.2395C47.0008 12.7478 48.7712 13.186 49.9257 14.3121L49.9257 14.3122C50.6781 15.0463 51.1228 16.0724 51.2082 17.1831L51.2082 17.1833C51.2529 17.7663 51.1177 18.3742 50.9617 18.8649C50.8028 19.3646 50.6056 19.7933 50.4866 20.0337L50.4865 20.034C49.9053 21.207 49.0781 22.2653 48.0905 23.0953M43.6565 25.5197C43.6557 25.5198 43.6548 25.5198 43.654 25.5199L43.6072 24.9217L43.6596 25.5194C43.6586 25.5195 43.6575 25.5196 43.6565 25.5197ZM43.6565 25.5197C44.462 25.4561 45.262 25.098 45.9922 24.6538C46.7298 24.2049 47.4474 23.6359 48.0905 23.0953M48.0905 23.0953L47.7045 22.636M48.0905 23.0953L47.7045 22.636M47.7045 22.636C48.6275 21.8602 49.4037 20.868 49.9489 19.7676L47.7045 22.636ZM36.0616 16.507L36.0617 16.5069C36.5408 14.672 38.272 13.1396 40.0947 13.0489L36.0616 16.507ZM36.0616 16.507C35.777 17.5974 36.1014 18.7282 36.4969 19.6005M36.0616 16.507L36.4969 19.6005M36.4969 19.6005C36.8995 20.4882 37.4228 21.2108 37.6721 21.5324L36.4969 19.6005Z" stroke="#6700FA" stroke-width="1.2"/>
</g>
<g style="mix-blend-mode:lighten">
<path d="M43.5454 24.9243C42.9633 24.9243 41.9389 24.3598 41.7329 24.2438C40.8099 23.72 39.8912 23.0169 39.0746 22.2109C38.7441 21.8845 38.4315 21.533 38.1465 21.165C37.676 20.5581 36.1768 18.4412 36.6422 16.6585C37.0629 15.0473 38.5929 13.7243 40.1247 13.6481C40.9026 13.6092 41.6599 13.8957 42.157 14.1425C42.6542 14.3892 43.1015 14.7278 43.5334 15.055L43.6106 15.1139C44.264 14.4776 44.9492 14.0464 45.6756 13.81C46.9661 13.3901 48.5056 13.765 49.5067 14.7416C50.1429 15.3624 50.5344 16.2464 50.61 17.2291C50.6821 18.1711 50.1712 19.3182 49.9489 19.7676C49.4037 20.868 48.6275 21.8602 47.7045 22.636C46.4303 23.707 44.9466 24.8169 43.6072 24.9217C43.5875 24.9234 43.566 24.9243 43.5445 24.9243H43.5454ZM40.2707 14.4048C40.2346 14.4048 40.1985 14.4048 40.1625 14.4074C38.939 14.468 37.7129 15.5425 37.3712 16.8524C37.0715 17.9996 37.882 19.591 38.7406 20.6975C39.0051 21.0386 39.2953 21.3659 39.6018 21.668C40.372 22.4282 41.2366 23.0905 42.1029 23.5823C42.6876 23.9139 43.3488 24.1789 43.5497 24.1659C44.8307 24.0654 46.5076 22.6559 47.2228 22.0542C48.0548 21.3546 48.7837 20.423 49.2757 19.4291C49.5891 18.797 49.9068 17.9027 49.8596 17.2879C49.7986 16.4905 49.4878 15.7797 48.9838 15.2879C48.1767 14.5009 46.9412 14.1979 45.9083 14.5338C44.7234 14.9191 43.6416 15.9425 42.6009 17.6628C42.4927 17.8421 42.2609 17.8983 42.0832 17.7892C41.9054 17.6802 41.8496 17.4464 41.9578 17.2672C42.327 16.6568 42.7039 16.126 43.092 15.6715L43.0817 15.6637C42.6773 15.3572 42.2592 15.0412 41.8247 14.8256C41.4315 14.6299 40.8519 14.4057 40.2707 14.4057V14.4048Z" fill="#CF13AB"/>
</g>
<g style="mix-blend-mode:lighten">
<path d="M43.5403 24.7138C43.0037 24.7138 41.9562 24.1285 41.8351 24.0601C40.9284 23.545 40.0243 22.8532 39.2206 22.0601C38.897 21.7406 38.5904 21.3952 38.3114 21.035C37.8563 20.448 36.4044 18.4004 36.8449 16.7129C37.2441 15.1848 38.6892 13.932 40.1359 13.8601C40.87 13.8238 41.5904 14.0974 42.0661 14.3337C42.546 14.5718 42.9848 14.9043 43.4098 15.2255L43.5231 15.3095C43.536 15.3173 43.5489 15.3259 43.5523 15.3285C43.5824 15.3502 43.603 15.3805 43.6133 15.4125C44.2873 14.719 44.9931 14.2558 45.7426 14.0125C46.9618 13.616 48.4172 13.9709 49.3642 14.8948C49.9635 15.48 50.3336 16.3155 50.404 17.2471C50.4735 18.1614 49.9318 19.3372 49.7643 19.6757C49.232 20.751 48.4738 21.719 47.5732 22.4766C46.3248 23.5268 44.8746 24.6134 43.5935 24.7138C43.5772 24.7147 43.56 24.7155 43.5429 24.7155L43.5403 24.7138ZM40.2699 14.1935C40.2304 14.1935 40.1909 14.1943 40.1514 14.1961C38.842 14.261 37.5318 15.4038 37.1677 16.7978C36.8492 18.0194 37.6855 19.68 38.5741 20.8264C38.8446 21.1753 39.1408 21.5086 39.4542 21.8177C40.2372 22.5909 41.1173 23.2645 41.9991 23.7649C42.4378 24.0134 43.2518 24.3987 43.5652 24.3744C44.9132 24.2688 46.6253 22.829 47.3568 22.2142C48.2103 21.4965 48.9581 20.5406 49.463 19.5216C49.6209 19.203 50.1318 18.0982 50.0683 17.2696C50.0039 16.4203 49.6699 15.6619 49.129 15.1346C48.2678 14.2948 46.9481 13.9718 45.8431 14.3311C44.6084 14.7328 43.4896 15.7857 42.4215 17.551C42.3734 17.6307 42.2704 17.6558 42.1914 17.6073C42.1124 17.5588 42.0875 17.4549 42.1356 17.3753C42.5495 16.6913 42.9728 16.1086 43.4089 15.6255C43.3909 15.6212 43.3737 15.6134 43.3583 15.6021L43.3471 15.5952C43.3325 15.5865 43.3188 15.577 43.3145 15.5744L43.2072 15.493C42.795 15.1813 42.3683 14.8584 41.9167 14.6341C41.5028 14.429 40.8915 14.1926 40.2699 14.1926V14.1935Z" fill="#FF59C1"/>
</g>
<g style="mix-blend-mode:lighten">
<path d="M43.5406 24.5875C43.131 24.5875 42.2948 24.1754 41.8972 23.9494C41 23.4394 40.1045 22.7546 39.3085 21.9693C38.9883 21.6533 38.686 21.313 38.4104 20.9563C37.964 20.3806 36.5404 18.3762 36.9663 16.7442C37.3518 15.2663 38.747 14.055 40.1414 13.9849C40.848 13.9494 41.5478 14.2161 42.0097 14.4455C42.4794 14.6784 42.913 15.0074 43.3337 15.3251L43.4401 15.4057C43.4401 15.4057 43.4496 15.4117 43.4565 15.4161C43.4659 15.4212 43.4745 15.4273 43.4771 15.429C43.496 15.4429 43.5002 15.4689 43.4865 15.4879C43.4728 15.507 43.447 15.5113 43.4281 15.4974C43.4255 15.4957 43.4195 15.4922 43.4127 15.4879C43.4024 15.4819 43.3929 15.4758 43.3895 15.4732L43.2822 15.3927C42.8657 15.0775 42.4347 14.7511 41.9719 14.5217C41.5186 14.2966 40.8334 14.0351 40.1448 14.0697C38.7848 14.1373 37.423 15.3217 37.0461 16.7658C36.6297 18.3598 38.0352 20.3364 38.4757 20.9044C38.7496 21.2576 39.0492 21.5953 39.3669 21.9087C40.1577 22.6896 41.0463 23.3693 41.9376 23.8758C42.2621 24.0602 43.1886 24.5286 43.5749 24.5018C44.7976 24.4057 46.2134 23.3416 47.437 22.313C48.3033 21.5849 49.0623 20.6143 49.5749 19.5797C49.7363 19.2533 50.2592 18.1217 50.1931 17.2619C50.1261 16.3823 49.7792 15.5944 49.216 15.0455C48.323 14.1736 46.9518 13.8394 45.8047 14.2126C44.54 14.6238 43.3989 15.6948 42.3145 17.487C42.3025 17.507 42.2767 17.513 42.257 17.5009C42.2372 17.4888 42.2312 17.4628 42.2432 17.4429C43.338 15.6334 44.4945 14.5502 45.779 14.1321C46.9544 13.7494 48.36 14.0922 49.2744 14.9849C49.8522 15.5485 50.2077 16.3546 50.2764 17.2559C50.3433 18.1381 49.8136 19.287 49.6496 19.6178C49.125 20.6775 48.378 21.6316 47.4902 22.378C46.2564 23.4152 44.8276 24.4888 43.581 24.5866C43.5681 24.5875 43.5535 24.5883 43.5397 24.5883L43.5406 24.5875Z" fill="white"/>
</g>
</g>
<defs>
<filter id="filter0_f_3143_3888" x="29.4082" y="39.3665" width="9.28027" height="11.6125" filterUnits="userSpaceOnUse" color-interpolation-filters="sRGB">
<feFlood flood-opacity="0" result="BackgroundImageFix"/>
<feBlend mode="normal" in="SourceGraphic" in2="BackgroundImageFix" result="shape"/>
<feGaussianBlur stdDeviation="2" result="effect1_foregroundBlur_3143_3888"/>
</filter>
<filter id="filter1_f_3143_3888" x="24.8193" y="39.4783" width="10.5957" height="12.9707" filterUnits="userSpaceOnUse" color-interpolation-filters="sRGB">
<feFlood flood-opacity="0" result="BackgroundImageFix"/>
<feBlend mode="normal" in="SourceGraphic" in2="BackgroundImageFix" result="shape"/>
<feGaussianBlur stdDeviation="1.5" result="effect1_foregroundBlur_3143_3888"/>
</filter>
<filter id="filter2_f_3143_3888" x="26.3779" y="41.428" width="10.2197" height="9.01245" filterUnits="userSpaceOnUse" color-interpolation-filters="sRGB">
<feFlood flood-opacity="0" result="BackgroundImageFix"/>
<feBlend mode="normal" in="SourceGraphic" in2="BackgroundImageFix" result="shape"/>
<feGaussianBlur stdDeviation="2" result="effect1_foregroundBlur_3143_3888"/>
</filter>
<filter id="filter3_f_3143_3888" x="20.8936" y="46.5513" width="8.40137" height="7.30127" filterUnits="userSpaceOnUse" color-interpolation-filters="sRGB">
<feFlood flood-opacity="0" result="BackgroundImageFix"/>
<feBlend mode="normal" in="SourceGraphic" in2="BackgroundImageFix" result="shape"/>
<feGaussianBlur stdDeviation="1.5" result="effect1_foregroundBlur_3143_3888"/>
</filter>
<filter id="filter4_f_3143_3888" x="21.7227" y="44.3174" width="8.46875" height="7.30127" filterUnits="userSpaceOnUse" color-interpolation-filters="sRGB">
<feFlood flood-opacity="0" result="BackgroundImageFix"/>
<feBlend mode="normal" in="SourceGraphic" in2="BackgroundImageFix" result="shape"/>
<feGaussianBlur stdDeviation="1.5" result="effect1_foregroundBlur_3143_3888"/>
</filter>
<filter id="filter5_f_3143_3888" x="24.3965" y="46.6138" width="7.67676" height="6.84302" filterUnits="userSpaceOnUse" color-interpolation-filters="sRGB">
<feFlood flood-opacity="0" result="BackgroundImageFix"/>
<feBlend mode="normal" in="SourceGraphic" in2="BackgroundImageFix" result="shape"/>
<feGaussianBlur stdDeviation="1.5" result="effect1_foregroundBlur_3143_3888"/>
</filter>
<filter id="filter6_f_3143_3888" x="15.498" y="31.5684" width="10.6309" height="7.93945" filterUnits="userSpaceOnUse" color-interpolation-filters="sRGB">
<feFlood flood-opacity="0" result="BackgroundImageFix"/>
<feBlend mode="normal" in="SourceGraphic" in2="BackgroundImageFix" result="shape"/>
<feGaussianBlur stdDeviation="1.5" result="effect1_foregroundBlur_3143_3888"/>
</filter>
<filter id="filter7_f_3143_3888" x="14.2109" y="34.3604" width="13.7568" height="10.8726" filterUnits="userSpaceOnUse" color-interpolation-filters="sRGB">
<feFlood flood-opacity="0" result="BackgroundImageFix"/>
<feBlend mode="normal" in="SourceGraphic" in2="BackgroundImageFix" result="shape"/>
<feGaussianBlur stdDeviation="1.5" result="effect1_foregroundBlur_3143_3888"/>
</filter>
<filter id="filter8_f_3143_3888" x="15.7246" y="31.9966" width="10.7295" height="12.2632" filterUnits="userSpaceOnUse" color-interpolation-filters="sRGB">
<feFlood flood-opacity="0" result="BackgroundImageFix"/>
<feBlend mode="normal" in="SourceGraphic" in2="BackgroundImageFix" result="shape"/>
<feGaussianBlur stdDeviation="2" result="effect1_foregroundBlur_3143_3888"/>
</filter>
<filter id="filter9_f_3143_3888" x="16.1914" y="39.5708" width="7.99219" height="8.93091" filterUnits="userSpaceOnUse" color-interpolation-filters="sRGB">
<feFlood flood-opacity="0" result="BackgroundImageFix"/>
<feBlend mode="normal" in="SourceGraphic" in2="BackgroundImageFix" result="shape"/>
<feGaussianBlur stdDeviation="1.5" result="effect1_foregroundBlur_3143_3888"/>
</filter>
<filter id="filter10_f_3143_3888" x="18.3789" y="40.532" width="7.93555" height="8.92993" filterUnits="userSpaceOnUse" color-interpolation-filters="sRGB">
<feFlood flood-opacity="0" result="BackgroundImageFix"/>
<feBlend mode="normal" in="SourceGraphic" in2="BackgroundImageFix" result="shape"/>
<feGaussianBlur stdDeviation="1.5" result="effect1_foregroundBlur_3143_3888"/>
</filter>
<filter id="filter11_f_3143_3888" x="16.4307" y="43.105" width="7.93555" height="8.92993" filterUnits="userSpaceOnUse" color-interpolation-filters="sRGB">
<feFlood flood-opacity="0" result="BackgroundImageFix"/>
<feBlend mode="normal" in="SourceGraphic" in2="BackgroundImageFix" result="shape"/>
<feGaussianBlur stdDeviation="1.5" result="effect1_foregroundBlur_3143_3888"/>
</filter>
<filter id="filter12_f_3143_3888" x="18.7168" y="43.811" width="7.93555" height="8.9314" filterUnits="userSpaceOnUse" color-interpolation-filters="sRGB">
<feFlood flood-opacity="0" result="BackgroundImageFix"/>
<feBlend mode="normal" in="SourceGraphic" in2="BackgroundImageFix" result="shape"/>
<feGaussianBlur stdDeviation="1.5" result="effect1_foregroundBlur_3143_3888"/>
</filter>
<filter id="filter13_f_3143_3888" x="5.14355" y="13.6838" width="30.3789" height="28.9983" filterUnits="userSpaceOnUse" color-interpolation-filters="sRGB">
<feFlood flood-opacity="0" result="BackgroundImageFix"/>
<feBlend mode="normal" in="SourceGraphic" in2="BackgroundImageFix" result="shape"/>
<feGaussianBlur stdDeviation="1.5" result="effect1_foregroundBlur_3143_3888"/>
</filter>
<filter id="filter14_f_3143_3888" x="25.8193" y="28.2412" width="29.6582" height="30.5681" filterUnits="userSpaceOnUse" color-interpolation-filters="sRGB">
<feFlood flood-opacity="0" result="BackgroundImageFix"/>
<feBlend mode="normal" in="SourceGraphic" in2="BackgroundImageFix" result="shape"/>
<feGaussianBlur stdDeviation="1.5" result="effect1_foregroundBlur_3143_3888"/>
</filter>
<filter id="filter15_b_3143_3888" x="31.3535" y="8.4397" width="24.4629" height="21.6846" filterUnits="userSpaceOnUse" color-interpolation-filters="sRGB">
<feFlood flood-opacity="0" result="BackgroundImageFix"/>
<feGaussianBlur in="BackgroundImageFix" stdDeviation="2"/>
<feComposite in2="SourceAlpha" operator="in" result="effect1_backgroundBlur_3143_3888"/>
<feBlend mode="normal" in="SourceGraphic" in2="effect1_backgroundBlur_3143_3888" result="shape"/>
</filter>
<filter id="filter16_f_3143_3888" x="31.3535" y="8.4397" width="24.4629" height="21.6846" filterUnits="userSpaceOnUse" color-interpolation-filters="sRGB">
<feFlood flood-opacity="0" result="BackgroundImageFix"/>
<feBlend mode="normal" in="SourceGraphic" in2="BackgroundImageFix" result="shape"/>
<feGaussianBlur stdDeviation="2" result="effect1_foregroundBlur_3143_3888"/>
</filter>
<radialGradient id="paint0_radial_3143_3888" cx="0" cy="0" r="1" gradientUnits="userSpaceOnUse" gradientTransform="translate(34.2918 45.4181) scale(1.60645 1.61991)">
<stop offset="0.57" stop-color="#1A1900"/>
<stop offset="0.8" stop-color="#1A1900"/>
<stop offset="1" stop-color="#1A1900"/>
</radialGradient>
<radialGradient id="paint1_radial_3143_3888" cx="0" cy="0" r="1" gradientUnits="userSpaceOnUse" gradientTransform="translate(30.3603 46.2085) scale(3.21376 3.24069)">
<stop offset="0.57" stop-color="#241D0B"/>
<stop offset="0.8" stop-color="#241D0B"/>
<stop offset="1" stop-color="#241D0B"/>
</radialGradient>
<radialGradient id="paint2_radial_3143_3888" cx="0" cy="0" r="1" gradientUnits="userSpaceOnUse" gradientTransform="translate(31.731 46.1789) scale(1.13164 1.14113)">
<stop offset="0.57" stop-color="#1A1900"/>
<stop offset="0.8" stop-color="#1A1900"/>
<stop offset="1" stop-color="#1A1900"/>
</radialGradient>
<radialGradient id="paint3_radial_3143_3888" cx="0" cy="0" r="1" gradientUnits="userSpaceOnUse" gradientTransform="translate(25.339 50.4474) scale(1.23811 1.24848)">
<stop offset="0.57" stop-color="#241D0B"/>
<stop offset="0.8" stop-color="#241D0B"/>
<stop offset="1" stop-color="#241D0B"/>
</radialGradient>
<radialGradient id="paint4_radial_3143_3888" cx="0" cy="0" r="1" gradientUnits="userSpaceOnUse" gradientTransform="translate(26.1994 48.2135) scale(1.25872 1.26926)">
<stop offset="0.57" stop-color="#241D0B"/>
<stop offset="0.8" stop-color="#241D0B"/>
<stop offset="1" stop-color="#241D0B"/>
</radialGradient>
<radialGradient id="paint5_radial_3143_3888" cx="0" cy="0" r="1" gradientUnits="userSpaceOnUse" gradientTransform="translate(28.4783 50.2803) scale(0.935881 0.94372)">
<stop offset="0.57" stop-color="#241D0B"/>
<stop offset="0.8" stop-color="#241D0B"/>
<stop offset="1" stop-color="#241D0B"/>
</radialGradient>
<radialGradient id="paint6_radial_3143_3888" cx="0" cy="0" r="1" gradientUnits="userSpaceOnUse" gradientTransform="translate(21.0559 35.7835) scale(1.5764 1.58961)">
<stop offset="0.57" stop-color="#1A1900"/>
<stop offset="0.8" stop-color="#1A1900"/>
<stop offset="1" stop-color="#1A1900"/>
</radialGradient>
<radialGradient id="paint7_radial_3143_3888" cx="0" cy="0" r="1" gradientUnits="userSpaceOnUse" gradientTransform="translate(21.3338 40.0416) scale(3.11932 3.14545)">
<stop offset="0.57" stop-color="#241D0B"/>
<stop offset="0.8" stop-color="#241D0B"/>
<stop offset="1" stop-color="#241D0B"/>
</radialGradient>
<radialGradient id="paint8_radial_3143_3888" cx="0" cy="0" r="1" gradientUnits="userSpaceOnUse" gradientTransform="translate(21.3337 38.3733) scale(1.09472 1.1039)">
<stop offset="0.57" stop-color="#1A1900"/>
<stop offset="0.8" stop-color="#1A1900"/>
<stop offset="1" stop-color="#1A1900"/>
</radialGradient>
<radialGradient id="paint9_radial_3143_3888" cx="0" cy="0" r="1" gradientUnits="userSpaceOnUse" gradientTransform="translate(20.4035 44.2805) scale(1.22008 1.2303)">
<stop offset="0.57" stop-color="#241D0B"/>
<stop offset="0.8" stop-color="#241D0B"/>
<stop offset="1" stop-color="#241D0B"/>
</radialGradient>
<radialGradient id="paint10_radial_3143_3888" cx="0" cy="0" r="1" gradientUnits="userSpaceOnUse" gradientTransform="translate(22.5905 45.2415) scale(1.22008 1.2303)">
<stop offset="0.57" stop-color="#241D0B"/>
<stop offset="0.8" stop-color="#241D0B"/>
<stop offset="1" stop-color="#241D0B"/>
</radialGradient>
<radialGradient id="paint11_radial_3143_3888" cx="0" cy="0" r="1" gradientUnits="userSpaceOnUse" gradientTransform="translate(20.6416 47.8147) scale(1.22008 1.2303)">
<stop offset="0.57" stop-color="#241D0B"/>
<stop offset="0.8" stop-color="#241D0B"/>
<stop offset="1" stop-color="#241D0B"/>
</radialGradient>
<radialGradient id="paint12_radial_3143_3888" cx="0" cy="0" r="1" gradientUnits="userSpaceOnUse" gradientTransform="translate(22.9274 48.5221) scale(1.22008 1.2303)">
<stop offset="0.57" stop-color="#241D0B"/>
<stop offset="0.8" stop-color="#241D0B"/>
<stop offset="1" stop-color="#241D0B"/>
</radialGradient>
<radialGradient id="paint13_radial_3143_3888" cx="0" cy="0" r="1" gradientUnits="userSpaceOnUse" gradientTransform="translate(20.5761 28.4285) scale(11.0915 11.1844)">
<stop offset="0.57" stop-color="#1A0000"/>
<stop offset="0.8" stop-color="#1A0000"/>
<stop offset="1" stop-color="#1A0000"/>
</radialGradient>
<radialGradient id="paint14_radial_3143_3888" cx="0" cy="0" r="1" gradientUnits="userSpaceOnUse" gradientTransform="translate(40.8903 43.7703) scale(11.295 11.3896)">
<stop offset="0.57" stop-color="#1A0000"/>
<stop offset="0.8" stop-color="#1A0000"/>
<stop offset="1" stop-color="#1A0000"/>
</radialGradient>
<radialGradient id="paint15_radial_3143_3888" cx="0" cy="0" r="1" gradientUnits="userSpaceOnUse" gradientTransform="translate(43.8376 19.5329) scale(6.64647 6.70216)">
<stop offset="0.57" stop-color="#161A00"/>
<stop offset="0.8" stop-color="#161A00"/>
<stop offset="1" stop-color="#161A00"/>
</radialGradient>
</defs>
</svg>
