<svg width="96" height="96" viewBox="0 0 96 96" fill="none" xmlns="http://www.w3.org/2000/svg">
<g style="mix-blend-mode:multiply" opacity="0.36">
<path d="M44.2589 31.5608C43.7839 30.8943 43.7578 29.9688 44.2574 29.2633C44.3757 29.0947 47.229 25.0912 51.0753 21.5231C56.7049 16.3006 61.5289 14.7039 65.4137 16.7751C67.2585 17.76 68.3638 19.416 68.6067 21.5653C69.4691 29.1883 58.9739 41.5329 56.7633 43.473C55.9547 44.1816 54.7341 44.0911 54.0361 43.2717C53.3413 42.4538 53.4274 41.2114 54.2345 40.5028C56.6111 38.4175 65.3599 27.267 64.765 22.0132C64.6681 21.1563 64.3237 20.6288 63.6151 20.2511C58.7541 17.657 50.0591 27.7976 47.3965 31.5561C46.7724 32.4364 45.5641 32.6362 44.6986 32.0025C44.5249 31.8761 44.3788 31.7262 44.2605 31.5592L44.2589 31.5608Z" fill="url(#paint0_radial_55386_54032)"/>
</g>
<path d="M45.1077 30.0297C44.8402 29.6551 44.8264 29.1337 45.1077 28.7373C45.5889 28.0583 56.9987 12.1426 65.1833 16.5098C66.7698 17.3558 67.7198 18.7839 67.9289 20.6382C68.7114 27.5542 58.9757 39.5148 56.373 41.7983C55.9195 42.1963 55.2324 42.1463 54.8388 41.6843C54.4437 41.2254 54.496 40.5262 54.951 40.1266C57.4814 37.9056 66.407 26.5272 65.769 20.8895C65.6399 19.7469 65.1326 18.9759 64.1717 18.4639C58.7574 15.5764 49.8487 25.831 46.8741 30.0281C46.5235 30.5229 45.8441 30.6353 45.3567 30.2794C45.2583 30.2076 45.1769 30.1233 45.1108 30.0297H45.1077Z" fill="#D3D8E8"/>
<path d="M45.5964 29.6706C45.478 29.5036 45.4703 29.2726 45.5964 29.0962C46.0653 28.4344 57.1738 12.9308 64.9003 17.0529C66.3223 17.8099 67.1386 19.0398 67.3261 20.7084C68.0717 27.2904 58.439 39.1729 55.9747 41.3331C55.7733 41.511 55.4674 41.4876 55.2937 41.2832C55.1169 41.0802 55.1415 40.7681 55.3429 40.5917C57.6473 38.5704 67.0586 26.9454 66.3653 20.8207C66.2131 19.4769 65.5874 18.5295 64.4498 17.9223C57.4597 14.1935 46.4911 29.5145 46.3804 29.6706C46.2236 29.8907 45.9223 29.9406 45.7055 29.783C45.6625 29.7518 45.6256 29.7143 45.5964 29.6722V29.6706Z" fill="#F3FFF2"/>
<path d="M45.89 29.4553C45.8608 29.4131 45.8592 29.3554 45.89 29.3117C45.9177 29.2711 48.7509 25.2957 52.4589 21.8556C57.3951 17.2777 61.6396 15.7294 64.7311 17.3776C66.0409 18.0753 66.7911 19.21 66.9664 20.749C67.6966 27.1999 58.173 38.9185 55.7379 41.0553C55.6872 41.099 55.6119 41.0928 55.5673 41.0428C55.5242 40.9882 55.5288 40.9133 55.5796 40.8696C57.9962 38.75 67.446 27.1421 66.725 20.7786C66.5605 19.3255 65.8518 18.2548 64.6174 17.5961C57.3521 13.7206 46.1974 29.2976 46.0852 29.4553C46.0468 29.5099 45.9715 29.5224 45.9176 29.4834C45.9069 29.4755 45.8977 29.4662 45.89 29.4553Z" fill="white"/>
<g style="mix-blend-mode:screen" filter="url(#filter0_f_55386_54032)">
<path d="M45.1077 30.0297C44.8402 29.6551 44.8264 29.1337 45.1077 28.7373C45.5889 28.0583 56.9987 12.1426 65.1833 16.5098C66.7698 17.3558 67.7198 18.7839 67.9289 20.6382C68.7114 27.5542 58.9757 39.5148 56.373 41.7983C55.9195 42.1963 55.2324 42.1463 54.8388 41.6843C54.4437 41.2254 54.496 40.5262 54.951 40.1266C57.4814 37.9056 66.407 26.5272 65.769 20.8895C65.6399 19.7469 65.1326 18.9759 64.1717 18.4639C58.7574 15.5764 49.8487 25.831 46.8741 30.0281C46.5235 30.5229 45.8441 30.6353 45.3567 30.2794C45.2583 30.2076 45.1769 30.1233 45.1108 30.0297H45.1077Z" fill="white"/>
<path d="M45.1077 30.0297C44.8402 29.6551 44.8264 29.1337 45.1077 28.7373C45.5889 28.0583 56.9987 12.1426 65.1833 16.5098C66.7698 17.3558 67.7198 18.7839 67.9289 20.6382C68.7114 27.5542 58.9757 39.5148 56.373 41.7983C55.9195 42.1963 55.2324 42.1463 54.8388 41.6843C54.4437 41.2254 54.496 40.5262 54.951 40.1266C57.4814 37.9056 66.407 26.5272 65.769 20.8895C65.6399 19.7469 65.1326 18.9759 64.1717 18.4639C58.7574 15.5764 49.8487 25.831 46.8741 30.0281C46.5235 30.5229 45.8441 30.6353 45.3567 30.2794C45.2583 30.2076 45.1769 30.1233 45.1108 30.0297H45.1077Z" stroke="white" stroke-width="2"/>
</g>
<g style="mix-blend-mode:multiply" opacity="0.36">
<path d="M16.5107 49.9785C16.1525 49.476 15.9588 48.8969 16.0726 48.2429C16.2509 47.2174 17.1241 46.5088 18.1956 46.5213C18.5522 46.5244 19.7575 45.5661 23.221 36.6054C24.3848 33.593 27.1473 31.2237 31.0013 29.9329C34.5279 28.7513 38.6693 28.6249 42.3635 29.5832C46.4004 30.6306 49.6949 32.8423 51.8886 35.9998C54.442 39.6646 55.3829 44.3346 54.688 49.8818C53.6119 58.4757 55.3444 65.76 59.8287 71.5288C62.642 75.1468 65.7289 77.0245 66.6959 77.5567L70.6221 77.7565C71.1417 77.7831 71.6291 78.0203 71.9734 78.4168C72.3178 78.8116 72.4915 79.333 72.453 79.8605L72.1517 84.0623C72.0841 85.0112 71.3539 85.7745 70.4223 85.8728L66.7681 86.2568C66.6697 86.2677 66.5729 86.2693 66.4745 86.2646C55.0908 85.6964 46.5618 81.7694 41.1259 74.5912C31.4871 61.8658 35.1689 43.7118 35.3303 42.9455C35.3426 42.8877 35.3565 42.83 35.3734 42.7753C33.441 43.9616 31.6716 45.8673 30.3556 48.296C28.1773 52.3151 24.3202 53.7994 20.0403 52.2667C19.3071 52.0045 17.4023 51.2272 16.5122 49.9785H16.5107ZM48.6741 38.2006C46.4773 35.1164 43.2736 33.8724 41.4057 33.387C35.3226 31.809 28.371 34.0254 26.8198 38.0398C24.6446 43.6697 23.1288 46.9209 21.6637 48.6721C22.3217 48.8704 23.0658 48.9827 23.7975 48.8875C25.1165 48.7158 26.1527 47.9026 26.9659 46.4027C30.1158 40.5933 35.5087 37.1017 40.7063 37.5091C45.1291 37.8556 48.711 40.9679 50.5342 46.0484C50.9001 47.0676 50.382 48.193 49.3797 48.5644C48.3774 48.9344 47.2675 48.4099 46.9016 47.3923C45.6026 43.768 43.2966 41.6484 40.4096 41.4237C39.6501 41.3644 38.8784 41.4315 38.1128 41.6156C38.8646 42.0137 39.295 42.8846 39.1106 43.7665C39.0583 44.024 35.667 60.9855 44.2036 72.2156C48.8955 78.3996 56.4036 81.8037 66.5191 82.3376L68.4146 82.1393L68.4545 81.5805L66.0871 81.4604C65.8396 81.4479 65.5951 81.387 65.3692 81.2793C65.1862 81.1935 60.8633 79.1191 56.9248 74.1307C53.3152 69.5575 49.3305 61.5536 50.854 49.3901C51.5073 44.1801 50.402 40.6245 48.6772 38.2037L48.6741 38.2006Z" fill="url(#paint1_radial_55386_54032)"/>
</g>
<path d="M17.3606 48.438C17.1254 48.1071 16.9994 47.7465 17.067 47.3641C17.1562 46.8553 17.5866 46.3449 18.3491 46.3512C19.2054 46.3605 20.4322 45.5598 24.1709 35.8905C26.3062 30.3667 34.6153 27.3887 42.3156 29.3866C46.1558 30.3824 49.275 32.477 51.3596 35.4675C53.7854 38.9513 54.6786 43.4184 54.0114 48.7455C52.8953 57.6546 54.7232 65.2044 59.4427 71.1808C62.5142 75.0719 65.8332 76.9589 66.6265 77.3757L70.7434 77.5848C71.0355 77.6004 71.3106 77.7346 71.5043 77.9563C71.698 78.1779 71.7949 78.4714 71.7749 78.7679L71.4736 82.9697C71.4352 83.5035 71.0247 83.9327 70.5005 83.9873L66.8448 84.3713C66.7894 84.3775 66.7341 84.3791 66.6803 84.376C55.5564 83.8219 47.2396 80.0056 41.9605 73.0366C41.8022 72.8274 41.6469 72.6167 41.4978 72.406C32.6798 60.0302 36.1664 42.8331 36.3217 42.0948C36.4462 41.4985 37.0258 41.1193 37.613 41.2457C38.2003 41.3737 38.5738 41.959 38.4493 42.5552C38.4124 42.73 34.9028 60.1051 43.6931 71.7005C48.5525 78.1108 56.2958 81.6305 66.7064 82.1674L69.3721 81.888L69.5258 79.7356L66.2929 79.5717C66.153 79.5639 66.0162 79.5312 65.8901 79.4703C65.7149 79.3876 61.5657 77.3975 57.7501 72.5636C54.2389 68.1215 50.3711 60.333 51.8577 48.4676C53.4257 35.9436 45.3349 32.4489 41.7822 31.5264C35.2056 29.8205 27.9234 32.2366 26.2001 36.6975C23.4391 43.8413 21.8542 46.8272 20.3092 47.9541C21.2024 48.4068 22.4814 48.8391 23.8096 48.7376C25.516 48.6081 26.8842 47.6154 27.8742 45.7877C30.8643 40.2717 35.942 36.955 40.8091 37.3358C44.8875 37.6558 48.2035 40.5636 49.9068 45.3132C50.1128 45.886 49.8223 46.5197 49.2581 46.7289C48.6939 46.9365 48.0697 46.643 47.8637 46.0686C46.4433 42.1104 43.8791 39.791 40.6415 39.5366C36.623 39.2229 32.3585 42.0932 29.779 46.8522C27.8174 50.4717 24.3431 51.8078 20.4844 50.428C20.3661 50.3859 18.1893 49.593 17.3653 48.438H17.3606Z" fill="#F0AE09"/>
<path d="M17.8497 48.0743C17.7021 47.8683 17.6298 47.6622 17.6621 47.4718C17.7036 47.2361 17.9066 46.963 18.3432 46.9661C19.5822 46.9786 20.8397 46.1888 24.7337 36.1153C26.7629 30.8646 34.7461 28.0552 42.1667 29.9812C50.4051 32.1195 54.6096 39.1058 53.412 48.669C51.9993 59.9553 55.6381 67.3317 58.9432 71.5288C62.2469 75.729 65.8842 77.6863 66.4683 77.9828L70.7128 78.1982C70.8435 78.206 70.9649 78.2638 71.051 78.3636C71.1386 78.4604 71.1802 78.5931 71.1709 78.7242L70.8696 82.9275C70.8527 83.1647 70.6698 83.3552 70.4376 83.3801L66.7835 83.7641C66.7589 83.7672 66.7343 83.7672 66.7097 83.7657C55.7703 83.2194 47.6057 79.4859 42.4388 72.6651C37.6071 66.2844 36.3618 58.3445 36.1681 52.8083C35.9591 46.8256 36.8722 42.4101 36.9107 42.2243C36.966 41.959 37.2227 41.7904 37.4841 41.8466C37.7454 41.9028 37.9114 42.1635 37.8561 42.4288C37.8192 42.6067 34.2527 60.2472 43.2074 72.0704C48.1868 78.6415 56.0977 82.2454 66.7204 82.7839L69.9349 82.4468L70.1717 79.155L66.3207 78.9599C66.2593 78.9568 66.1978 78.9412 66.1409 78.9146C65.9718 78.835 61.9471 76.9027 58.2176 72.1797C54.7818 67.8312 50.9939 60.1972 52.4528 48.5457C53.5827 39.521 49.6487 32.9374 41.9269 30.9333C35.0751 29.1555 27.4609 31.7449 25.633 36.4742C22.2494 45.2289 20.7167 47.4874 19.0165 47.8792C19.7775 48.4598 21.4546 49.3354 23.3148 49.3651C25.4901 49.3994 27.1995 48.2959 28.4002 46.0827C31.2765 40.7774 36.1282 37.584 40.7585 37.9461C44.6464 38.2505 47.6917 40.9413 49.3351 45.5223C49.4258 45.7768 49.2967 46.0577 49.0461 46.1514C48.7955 46.2434 48.5188 46.1123 48.4266 45.8579C46.92 41.6593 44.1713 39.1979 40.6832 38.9247C36.428 38.5923 31.939 41.5875 29.2457 46.5556C26.64 51.3614 22.3893 50.4592 20.6814 49.8474C19.6775 49.4884 18.3416 48.7657 17.8481 48.0712L17.8497 48.0743Z" fill="#FFDF46"/>
<path d="M18.1341 47.8651C18.045 47.7403 18.0035 47.6279 18.0188 47.5358C18.0296 47.4734 18.0819 47.3313 18.3386 47.3344C19.7652 47.3501 21.0842 46.5634 25.0689 36.2495C27.0351 31.1627 34.8231 28.4563 42.076 30.3386C50.1207 32.4255 54.2238 39.2603 53.0508 48.6221C51.6196 60.0536 55.3214 67.5299 58.6804 71.7863C62.187 76.2315 66.0564 78.1919 66.3731 78.348L70.6929 78.5681C70.7252 78.5681 70.7559 78.5837 70.7774 78.6087C70.7974 78.6337 70.8097 78.6664 70.8066 78.6992L70.5053 82.901C70.5007 82.9603 70.4561 83.0086 70.3977 83.0149L66.742 83.3989C55.8964 82.8588 47.8209 79.1721 42.7232 72.4419C42.5741 72.2468 42.4296 72.0485 42.2882 71.8503C33.7085 59.8101 37.2259 42.4803 37.2627 42.3039C37.2766 42.2383 37.3411 42.1946 37.4057 42.2103C37.4703 42.2243 37.5133 42.2899 37.498 42.3554C37.4595 42.5333 33.8453 60.3267 42.9139 72.2951C47.967 78.9661 55.9824 82.62 66.7343 83.1569L70.2701 82.7839L70.5561 78.8085L66.3362 78.5946C66.3208 78.5946 66.3054 78.59 66.2916 78.5837C66.2501 78.565 62.1747 76.6093 58.4975 71.9533C55.1062 67.6579 51.3659 60.1192 52.8095 48.5956C53.9655 39.368 49.9286 32.6346 42.0145 30.5806C34.8738 28.7279 27.2165 31.3672 25.2933 36.3431C21.241 46.8272 19.9082 47.5998 18.3355 47.5826C18.2663 47.5826 18.2479 47.5951 18.2479 47.5967C18.2356 47.7949 19.3993 48.8172 21.2056 49.3838C23.0642 49.966 26.5093 50.3359 28.7154 46.2653C31.5225 41.0865 36.2389 37.9664 40.7294 38.3191C44.4665 38.6126 47.4012 41.2176 48.9923 45.655C49.0154 45.719 48.9831 45.7892 48.9201 45.8126C48.8586 45.8361 48.7879 45.8048 48.7648 45.7393C47.2075 41.3971 44.3466 38.8498 40.7094 38.5657C36.3142 38.2224 31.6885 41.2909 28.926 46.3855C26.454 50.9446 22.4201 50.0877 20.7998 49.5087C19.6115 49.0841 18.4892 48.374 18.131 47.8698L18.1341 47.8651Z" fill="white"/>
<g style="mix-blend-mode:screen" filter="url(#filter1_f_55386_54032)">
<path d="M17.3606 48.438C17.1254 48.1071 16.9994 47.7465 17.067 47.3641C17.1562 46.8553 17.5866 46.3449 18.3491 46.3512C19.2054 46.3605 20.4322 45.5598 24.1709 35.8905C26.3062 30.3667 34.6153 27.3887 42.3156 29.3866C46.1558 30.3824 49.275 32.477 51.3596 35.4675C53.7854 38.9513 54.6786 43.4184 54.0114 48.7455C52.8953 57.6546 54.7232 65.2044 59.4427 71.1808C62.5142 75.0719 65.8332 76.9589 66.6265 77.3757L70.7434 77.5848C71.0355 77.6004 71.3106 77.7346 71.5043 77.9563C71.698 78.1779 71.7949 78.4714 71.7749 78.7679L71.4736 82.9697C71.4352 83.5035 71.0247 83.9327 70.5005 83.9873L66.8448 84.3713C66.7894 84.3775 66.7341 84.3791 66.6803 84.376C55.5564 83.8219 47.2396 80.0056 41.9605 73.0366C41.8022 72.8274 41.6469 72.6167 41.4978 72.406C32.6798 60.0302 36.1664 42.8331 36.3217 42.0948C36.4462 41.4985 37.0258 41.1193 37.613 41.2457C38.2003 41.3737 38.5738 41.959 38.4493 42.5552C38.4124 42.73 34.9028 60.1051 43.6931 71.7005C48.5525 78.1108 56.2958 81.6305 66.7064 82.1674L69.3721 81.888L69.5258 79.7356L66.2929 79.5717C66.153 79.5639 66.0162 79.5312 65.8901 79.4703C65.7149 79.3876 61.5657 77.3975 57.7501 72.5636C54.2389 68.1215 50.3711 60.333 51.8577 48.4676C53.4257 35.9436 45.3349 32.4489 41.7822 31.5264C35.2056 29.8205 27.9234 32.2366 26.2001 36.6975C23.4391 43.8413 21.8542 46.8272 20.3092 47.9541C21.2024 48.4068 22.4814 48.8391 23.8096 48.7376C25.516 48.6081 26.8842 47.6154 27.8742 45.7877C30.8643 40.2717 35.942 36.955 40.8091 37.3358C44.8875 37.6558 48.2035 40.5636 49.9068 45.3132C50.1128 45.886 49.8223 46.5197 49.2581 46.7289C48.6939 46.9365 48.0697 46.643 47.8637 46.0686C46.4433 42.1104 43.8791 39.791 40.6415 39.5366C36.623 39.2229 32.3585 42.0932 29.779 46.8522C27.8174 50.4717 24.3431 51.8078 20.4844 50.428C20.3661 50.3859 18.1893 49.593 17.3653 48.438H17.3606Z" fill="#FFAA00"/>
<path d="M17.3606 48.438C17.1254 48.1071 16.9994 47.7465 17.067 47.3641C17.1562 46.8553 17.5866 46.3449 18.3491 46.3512C19.2054 46.3605 20.4322 45.5598 24.1709 35.8905C26.3062 30.3667 34.6153 27.3887 42.3156 29.3866C46.1558 30.3824 49.275 32.477 51.3596 35.4675C53.7854 38.9513 54.6786 43.4184 54.0114 48.7455C52.8953 57.6546 54.7232 65.2044 59.4427 71.1808C62.5142 75.0719 65.8332 76.9589 66.6265 77.3757L70.7434 77.5848C71.0355 77.6004 71.3106 77.7346 71.5043 77.9563C71.698 78.1779 71.7949 78.4714 71.7749 78.7679L71.4736 82.9697C71.4352 83.5035 71.0247 83.9327 70.5005 83.9873L66.8448 84.3713C66.7894 84.3775 66.7341 84.3791 66.6803 84.376C55.5564 83.8219 47.2396 80.0056 41.9605 73.0366C41.8022 72.8274 41.6469 72.6167 41.4978 72.406C32.6798 60.0302 36.1664 42.8331 36.3217 42.0948C36.4462 41.4985 37.0258 41.1193 37.613 41.2457C38.2003 41.3737 38.5738 41.959 38.4493 42.5552C38.4124 42.73 34.9028 60.1051 43.6931 71.7005C48.5525 78.1108 56.2958 81.6305 66.7064 82.1674L69.3721 81.888L69.5258 79.7356L66.2929 79.5717C66.153 79.5639 66.0162 79.5312 65.8901 79.4703C65.7149 79.3876 61.5657 77.3975 57.7501 72.5636C54.2389 68.1215 50.3711 60.333 51.8577 48.4676C53.4257 35.9436 45.3349 32.4489 41.7822 31.5264C35.2056 29.8205 27.9234 32.2366 26.2001 36.6975C23.4391 43.8413 21.8542 46.8272 20.3092 47.9541C21.2024 48.4068 22.4814 48.8391 23.8096 48.7376C25.516 48.6081 26.8842 47.6154 27.8742 45.7877C30.8643 40.2717 35.942 36.955 40.8091 37.3358C44.8875 37.6558 48.2035 40.5636 49.9068 45.3132C50.1128 45.886 49.8223 46.5197 49.2581 46.7289C48.6939 46.9365 48.0697 46.643 47.8637 46.0686C46.4433 42.1104 43.8791 39.791 40.6415 39.5366C36.623 39.2229 32.3585 42.0932 29.779 46.8522C27.8174 50.4717 24.3431 51.8078 20.4844 50.428C20.3661 50.3859 18.1893 49.593 17.3653 48.438H17.3606Z" stroke="#FFAA00"/>
</g>
<g style="mix-blend-mode:multiply" opacity="0.36">
<path d="M42.7017 65.0451C42.594 64.8953 42.5064 64.7267 42.4434 64.5425C41.2689 61.1446 40.6063 55.7254 40.5802 53.122C40.5694 52.0372 41.4257 51.1506 42.4926 51.1382C43.561 51.1272 44.4357 51.9966 44.4465 53.0798C44.4695 55.354 45.0691 60.283 46.0914 63.2439C46.445 64.2663 45.9146 65.3869 44.9077 65.7459C44.0806 66.0409 43.1905 65.7303 42.7017 65.0451Z" fill="url(#paint2_radial_55386_54032)"/>
</g>
<path d="M43.55 63.5124C43.4901 63.4281 43.4409 63.3329 43.404 63.2299C42.2602 59.9178 41.6146 54.6282 41.5884 52.0841C41.5823 51.4738 42.0635 50.9743 42.6645 50.9681C43.2656 50.9618 43.756 51.4504 43.7622 52.0607C43.7868 54.3925 44.4032 59.4527 45.4563 62.4994C45.6561 63.0754 45.3564 63.706 44.7906 63.9073C44.3248 64.0728 43.8237 63.8995 43.55 63.5124Z" fill="#F0AE09"/>
<path d="M44.0391 63.1534C44.0114 63.116 43.9899 63.0738 43.9745 63.0286C42.8523 59.7789 42.2189 54.5814 42.1928 52.0794C42.1897 51.8078 42.4049 51.5862 42.6709 51.583C42.9368 51.5799 43.1567 51.7984 43.1597 52.0685C43.1843 54.4425 43.8131 59.5963 44.8861 62.7039C44.9753 62.9599 44.8415 63.2393 44.5894 63.3298C44.3834 63.4032 44.1605 63.3251 44.0375 63.155L44.0391 63.1534Z" fill="#FFDF46"/>
<path d="M44.3327 62.9365C44.3266 62.9271 44.3204 62.9162 44.3173 62.9052C43.2074 59.6931 42.5817 54.5517 42.5556 52.0731C42.5556 52.006 42.6079 51.9498 42.6755 51.9482C42.7416 51.9482 42.7954 52.0029 42.797 52.07C42.8216 54.5298 43.4442 59.6369 44.5449 62.8225C44.5664 62.8865 44.5341 62.9567 44.4711 62.9786C44.4188 62.9973 44.3635 62.9786 44.3327 62.9349V62.9365Z" fill="white"/>
<g style="mix-blend-mode:screen" filter="url(#filter2_f_55386_54032)">
<path d="M43.55 63.5124C43.4901 63.4281 43.4409 63.3329 43.404 63.2299C42.2602 59.9178 41.6146 54.6282 41.5884 52.0841C41.5823 51.4738 42.0635 50.9743 42.6645 50.9681C43.2656 50.9618 43.756 51.4504 43.7622 52.0607C43.7868 54.3925 44.4032 59.4527 45.4563 62.4994C45.6561 63.0754 45.3564 63.706 44.7906 63.9073C44.3248 64.0728 43.8237 63.8995 43.55 63.5124Z" fill="#FFAA00"/>
<path d="M43.55 63.5124C43.4901 63.4281 43.4409 63.3329 43.404 63.2299C42.2602 59.9178 41.6146 54.6282 41.5884 52.0841C41.5823 51.4738 42.0635 50.9743 42.6645 50.9681C43.2656 50.9618 43.756 51.4504 43.7622 52.0607C43.7868 54.3925 44.4032 59.4527 45.4563 62.4994C45.6561 63.0754 45.3564 63.706 44.7906 63.9073C44.3248 64.0728 43.8237 63.8995 43.55 63.5124Z" stroke="#FFAA00" stroke-width="2"/>
</g>
<g style="mix-blend-mode:multiply" opacity="0.36">
<path d="M46.7356 72.9851C46.1391 72.1485 46.2836 70.9732 47.083 70.313C47.9101 69.6293 49.1261 69.7557 49.8009 70.5939C49.8701 70.6797 54.0577 75.7649 61.0109 78.1093C62.024 78.4511 62.5728 79.5624 62.2362 80.591C61.8995 81.6196 60.8049 82.1768 59.7918 81.835C51.7072 79.1082 47 73.3191 46.8032 73.074C46.7801 73.0444 46.7571 73.0147 46.7356 72.9851Z" fill="url(#paint3_radial_55386_54032)"/>
</g>
<path d="M47.5839 71.4555C47.2488 70.9841 47.3287 70.3239 47.7791 69.9524C48.2449 69.5685 48.929 69.6387 49.3088 70.1116C49.3518 70.1647 53.6778 75.4606 60.9061 77.8986C61.4765 78.0906 61.7855 78.7149 61.5949 79.294C61.4058 79.873 60.7893 80.1868 60.2205 79.9948C52.368 77.3461 47.813 71.7443 47.6223 71.507C47.61 71.4898 47.5962 71.4742 47.5839 71.4571V71.4555Z" fill="#F0AE09"/>
<path d="M48.073 71.0966C47.9239 70.8874 47.9608 70.594 48.1591 70.4286C48.3666 70.2569 48.671 70.2881 48.8401 70.4988C48.8832 70.5534 53.306 75.982 60.7158 78.4808C60.9694 78.5667 61.1062 78.8445 61.0217 79.1005C60.9371 79.358 60.6635 79.4969 60.4114 79.4111C52.7249 76.8186 48.2759 71.3494 48.0914 71.1184C48.0853 71.1106 48.0807 71.1028 48.0745 71.0966H48.073Z" fill="#FFDF46"/>
<path d="M48.3666 70.8796C48.3297 70.8281 48.3389 70.7547 48.3881 70.7126C48.4389 70.6704 48.5157 70.6782 48.5588 70.7297C48.6033 70.7844 53.0815 76.2925 60.6004 78.8273C60.6635 78.8492 60.6973 78.9178 60.6773 78.9818C60.6558 79.0458 60.5881 79.0802 60.5236 79.0599C52.9355 76.5017 48.4158 70.9389 48.3697 70.8827C48.3681 70.8827 48.3666 70.8796 48.3651 70.8765L48.3666 70.8796Z" fill="white"/>
<g style="mix-blend-mode:screen" filter="url(#filter3_f_55386_54032)">
<path d="M47.5839 71.4555C47.2488 70.9841 47.3287 70.3239 47.7791 69.9524C48.2449 69.5685 48.929 69.6387 49.3088 70.1116C49.3518 70.1647 53.6778 75.4606 60.9061 77.8986C61.4765 78.0906 61.7855 78.7149 61.5949 79.294C61.4058 79.873 60.7893 80.1868 60.2205 79.9948C52.368 77.3461 47.813 71.7443 47.6223 71.507C47.61 71.4898 47.5962 71.4742 47.5839 71.4571V71.4555Z" fill="#FFAA00"/>
<path d="M47.5839 71.4555C47.2488 70.9841 47.3287 70.3239 47.7791 69.9524C48.2449 69.5685 48.929 69.6387 49.3088 70.1116C49.3518 70.1647 53.6778 75.4606 60.9061 77.8986C61.4765 78.0906 61.7855 78.7149 61.5949 79.294C61.4058 79.873 60.7893 80.1868 60.2205 79.9948C52.368 77.3461 47.813 71.7443 47.6223 71.507C47.61 71.4898 47.5962 71.4742 47.5839 71.4571V71.4555Z" stroke="#FFAA00"/>
</g>
<g style="mix-blend-mode:multiply" opacity="0.36">
<path d="M55.4349 64.9813C55.0214 64.4006 54.9369 63.6108 55.2812 62.9319C55.7685 61.9673 56.9353 61.588 57.8839 62.0844C58.8493 62.5885 59.867 62.4075 60.7248 62.0079C60.6233 61.9189 60.5249 61.8221 60.4296 61.7222C58.6879 59.8789 57.7624 55.9363 59.8424 51.6346C61.6841 47.8278 59.4335 42.7895 58.9016 41.9357C58.2789 41.1241 58.3989 39.9441 59.1752 39.262C59.9838 38.5534 61.2044 38.6439 61.9024 39.4633C62.8155 40.5372 66.1053 47.5921 63.3136 53.364C62.485 55.0778 62.2867 56.9009 62.7832 58.2401C62.9708 58.7442 63.1937 58.9924 63.3075 59.0845C65.0169 58.3774 65.9332 59.4653 66.1023 59.6947C66.1084 59.7041 66.1161 59.7135 66.1222 59.7228C66.5266 60.2894 66.9632 61.4616 65.5765 63.127C63.8532 65.1966 59.9116 67.555 56.1144 65.5728C55.8346 65.4261 55.6056 65.2216 55.4334 64.9797L55.4349 64.9813ZM58.9784 42.0293C58.9569 42.0044 58.9369 41.9794 58.9169 41.9544C58.9415 41.9872 58.963 42.0106 58.9784 42.0293Z" fill="url(#paint4_radial_55386_54032)"/>
</g>
<path d="M56.2833 63.4485C56.0496 63.1223 56.0035 62.6775 56.1972 62.2951C56.4724 61.7535 57.1273 61.5396 57.6622 61.8174C58.6231 62.3185 59.6946 62.3559 60.8475 61.9267C61.4978 61.6848 62.0635 61.3352 62.517 60.9855C62.0482 60.8154 61.6024 60.5173 61.2057 60.0974C59.6592 58.4648 58.866 54.9155 60.7676 50.9838C62.8445 46.6884 60.2265 41.0991 59.7576 40.4092C59.3932 39.9472 59.4486 39.2713 59.8944 38.8811C60.3495 38.4831 61.0351 38.5331 61.4286 38.9951C61.8944 39.5476 65.4348 46.345 62.72 51.9562C61.1934 55.1137 61.9452 57.6891 62.7753 58.5678C63.0997 58.9112 63.4148 59.0189 63.7115 58.8862C64.8399 58.3821 65.4026 58.9252 65.5916 59.1812C65.5963 59.1875 65.6009 59.1937 65.6055 59.1999C66.0467 59.8212 65.8776 60.6094 65.0982 61.5443C63.5486 63.4048 60.0266 65.5338 56.6692 63.781C56.5123 63.6998 56.3832 63.5843 56.2864 63.4469L56.2833 63.4485ZM59.7806 40.4404C59.7806 40.4404 59.7684 40.4263 59.7637 40.4185C59.7699 40.4279 59.776 40.4342 59.7806 40.4404Z" fill="#F0AE09"/>
<path d="M56.7724 63.0895C56.6694 62.9443 56.6479 62.7476 56.7339 62.5775C56.8569 62.3372 57.1475 62.2419 57.3842 62.3652C59.0122 63.2159 60.6187 62.7617 61.681 62.231C62.7233 61.7097 63.5073 60.9964 63.927 60.486C63.1353 60.6655 62.3051 60.3768 61.641 59.6744C60.1944 58.1417 59.6148 54.7578 61.3089 51.2553C63.6118 46.4932 60.6433 40.5558 60.2359 40.0361C60.0714 39.8223 60.0976 39.5163 60.3005 39.3462C60.5034 39.1761 60.7986 39.1948 60.9692 39.3977C61.4181 39.9128 64.754 46.3559 62.176 51.6877C60.6771 54.7859 61.1229 57.7093 62.3374 58.9939C62.6295 59.3029 63.2275 59.7727 63.9531 59.4481C64.4912 59.2077 64.8786 59.242 65.1045 59.5495C65.1076 59.5526 65.1092 59.5558 65.1122 59.5589C65.3751 59.9288 65.2183 60.4486 64.6341 61.1494C63.2106 62.8585 59.9869 64.8251 56.943 63.2362C56.8723 63.2003 56.8154 63.1488 56.7724 63.0879V63.0895Z" fill="#FFDF46"/>
<path d="M57.066 62.8726C57.0399 62.8367 57.0337 62.7867 57.0568 62.7446C57.0875 62.6837 57.1598 62.6603 57.2197 62.6915C59.9315 64.1072 62.9231 62.2545 64.1729 60.753C64.6034 60.2363 64.6526 59.9601 64.6218 59.9164C64.6095 59.9008 64.505 59.8711 64.1975 60.0085C63.4212 60.355 62.5849 60.1396 61.9023 59.4169C60.5434 57.9778 60.013 54.7672 61.6333 51.4146C64.0484 46.423 60.8739 40.2266 60.5126 39.7958C60.4711 39.7411 60.4757 39.6678 60.5249 39.6225C60.5756 39.5788 60.6525 39.5835 60.6956 39.635C61.0691 40.072 64.3205 46.4184 61.8516 51.5223C60.2789 54.7734 60.774 57.8686 62.0776 59.2468C62.6864 59.8898 63.4243 60.0865 64.1007 59.7821C64.236 59.7213 64.6464 59.5371 64.8155 59.7665C64.8155 59.7681 64.8171 59.7696 64.8186 59.7696C65.0138 60.0443 64.6141 60.6 64.3589 60.909C63.4258 62.0297 60.3035 64.5739 57.1106 62.9069C57.0937 62.8975 57.0783 62.8851 57.0675 62.8694L57.066 62.8726Z" fill="white"/>
<g style="mix-blend-mode:screen" filter="url(#filter4_f_55386_54032)">
<path d="M56.2833 63.4485C56.0496 63.1223 56.0035 62.6775 56.1972 62.2951C56.4724 61.7535 57.1273 61.5396 57.6622 61.8174C58.6231 62.3185 59.6946 62.3559 60.8475 61.9267C61.4978 61.6848 62.0635 61.3352 62.517 60.9855C62.0482 60.8154 61.6024 60.5173 61.2057 60.0974C59.6592 58.4648 58.866 54.9155 60.7676 50.9838C62.8445 46.6884 60.2265 41.0991 59.7576 40.4092C59.3932 39.9472 59.4486 39.2713 59.8944 38.8811C60.3495 38.4831 61.0351 38.5331 61.4286 38.9951C61.8944 39.5476 65.4348 46.345 62.72 51.9562C61.1934 55.1137 61.9452 57.6891 62.7753 58.5678C63.0997 58.9112 63.4148 59.0189 63.7115 58.8862C64.8399 58.3821 65.4026 58.9252 65.5916 59.1812C65.5963 59.1875 65.6009 59.1937 65.6055 59.1999C66.0467 59.8212 65.8776 60.6094 65.0982 61.5443C63.5486 63.4048 60.0266 65.5338 56.6692 63.781C56.5123 63.6998 56.3832 63.5843 56.2864 63.4469L56.2833 63.4485ZM59.7806 40.4404C59.7806 40.4404 59.7684 40.4263 59.7637 40.4185C59.7699 40.4279 59.776 40.4342 59.7806 40.4404Z" fill="#FFAA00"/>
<path d="M56.2833 63.4485C56.0496 63.1223 56.0035 62.6775 56.1972 62.2951C56.4724 61.7535 57.1273 61.5396 57.6622 61.8174C58.6231 62.3185 59.6946 62.3559 60.8475 61.9267C61.4978 61.6848 62.0635 61.3352 62.517 60.9855C62.0482 60.8154 61.6024 60.5173 61.2057 60.0974C59.6592 58.4648 58.866 54.9155 60.7676 50.9838C62.8445 46.6884 60.2265 41.0991 59.7576 40.4092C59.3932 39.9472 59.4486 39.2713 59.8944 38.8811C60.3495 38.4831 61.0351 38.5331 61.4286 38.9951C61.8944 39.5476 65.4348 46.345 62.72 51.9562C61.1934 55.1137 61.9452 57.6891 62.7753 58.5678C63.0997 58.9112 63.4148 59.0189 63.7115 58.8862C64.8399 58.3821 65.4026 58.9252 65.5916 59.1812C65.5963 59.1875 65.6009 59.1937 65.6055 59.1999C66.0467 59.8212 65.8776 60.6094 65.0982 61.5443C63.5486 63.4048 60.0266 65.5338 56.6692 63.781C56.5123 63.6998 56.3832 63.5843 56.2864 63.4469L56.2833 63.4485ZM59.7806 40.4404C59.7806 40.4404 59.7684 40.4263 59.7637 40.4185C59.7699 40.4279 59.776 40.4342 59.7806 40.4404Z" stroke="#FFAA00"/>
</g>
<g style="mix-blend-mode:multiply" opacity="0.1">
<path d="M56.6975 22.5205C56.5453 22.3067 56.4315 22.0554 56.3747 21.7807C56.1533 20.7209 56.8159 19.6798 57.8582 19.4535C59.2479 19.1507 62.6684 18.6294 64.4024 20.3073C65.1742 21.0549 65.2049 22.2973 64.4685 23.0824C63.7491 23.8488 62.5638 23.8956 61.789 23.1995C61.3509 22.995 59.8566 23.0387 58.6668 23.2931C57.895 23.4586 57.1325 23.1324 56.6975 22.5221V22.5205Z" fill="url(#paint5_radial_55386_54032)"/>
</g>
<path d="M57.5462 20.9909C57.4601 20.8707 57.3971 20.7303 57.3648 20.5742C57.2403 19.9779 57.6123 19.3911 58.1996 19.2631C58.8991 19.1117 62.4625 18.4265 63.9814 19.8999C64.418 20.3198 64.4318 21.019 64.0183 21.4607C63.6032 21.9024 62.916 21.9196 62.481 21.4982C62.0459 21.0768 60.1012 21.1111 58.6531 21.4248C58.218 21.5185 57.7891 21.3343 57.5447 20.9909H57.5462Z" fill="#F0AE09"/>
<path d="M58.0349 20.632C57.998 20.5789 57.9688 20.5165 57.955 20.4478C57.8996 20.1824 58.0641 19.9218 58.3255 19.8656C58.7221 19.7797 62.2379 19.0602 63.5646 20.3463C63.7583 20.5321 63.7644 20.8442 63.58 21.0409C63.3955 21.2376 63.0896 21.2438 62.8959 21.0565C62.1718 20.3557 59.832 20.543 58.5269 20.8255C58.3332 20.8676 58.1425 20.7865 58.0334 20.6335L58.0349 20.632Z" fill="#FFDF46"/>
<path d="M58.3286 20.4165C58.3193 20.404 58.3116 20.3884 58.3086 20.3712C58.2947 20.3041 58.3362 20.2401 58.4008 20.2245C58.5515 20.1917 62.1011 19.4363 63.314 20.6116C63.3617 20.6584 63.3647 20.7365 63.3186 20.7848C63.2725 20.8348 63.1956 20.8364 63.148 20.7895C62.0273 19.7048 58.4884 20.4571 58.4515 20.4664C58.4039 20.4758 58.3562 20.4571 58.3286 20.418V20.4165Z" fill="white"/>
<g style="mix-blend-mode:screen" filter="url(#filter5_f_55386_54032)">
<path d="M57.5462 20.9909C57.4601 20.8707 57.3971 20.7303 57.3648 20.5742C57.2403 19.9779 57.6123 19.3911 58.1996 19.2631C58.8991 19.1117 62.4625 18.4265 63.9814 19.8999C64.418 20.3198 64.4318 21.019 64.0183 21.4607C63.6032 21.9024 62.916 21.9196 62.481 21.4982C62.0459 21.0768 60.1012 21.1111 58.6531 21.4248C58.218 21.5185 57.7891 21.3343 57.5447 20.9909H57.5462Z" fill="#FFAA00"/>
<path d="M57.5462 20.9909C57.4601 20.8707 57.3971 20.7303 57.3648 20.5742C57.2403 19.9779 57.6123 19.3911 58.1996 19.2631C58.8991 19.1117 62.4625 18.4265 63.9814 19.8999C64.418 20.3198 64.4318 21.019 64.0183 21.4607C63.6032 21.9024 62.916 21.9196 62.481 21.4982C62.0459 21.0768 60.1012 21.1111 58.6531 21.4248C58.218 21.5185 57.7891 21.3343 57.5447 20.9909H57.5462Z" stroke="#FFAA00"/>
</g>
<g style="mix-blend-mode:multiply" opacity="0.1">
<path d="M56.2347 36.2183C55.672 35.4286 55.7627 34.3204 56.4806 33.6367C56.9618 33.1451 58.722 30.2373 60.061 27.832C60.5868 26.8893 61.7659 26.5553 62.6944 27.0891C63.6245 27.6213 63.9519 28.82 63.4262 29.7628C62.4853 31.4532 60.1809 35.4957 59.1217 36.5024C58.3423 37.2438 57.1186 37.2032 56.3899 36.4119C56.333 36.3495 56.2808 36.2855 56.2331 36.2183H56.2347Z" fill="url(#paint6_radial_55386_54032)"/>
</g>
<path d="M57.0833 34.6871C56.7666 34.2423 56.8173 33.6195 57.2216 33.2356C57.7981 32.6877 59.7551 29.3913 60.9604 27.2264C61.2555 26.6957 61.9196 26.5084 62.4423 26.8081C62.965 27.1093 63.1495 27.782 62.8543 28.3127C62.3424 29.2321 59.7351 33.8708 58.7082 34.8463C58.2701 35.2631 57.5814 35.2412 57.1709 34.7948C57.1386 34.7605 57.1094 34.723 57.0833 34.6856V34.6871Z" fill="#F0AE09"/>
<path d="M57.5721 34.3282C57.4307 34.1315 57.4537 33.8537 57.6336 33.6836C58.3746 32.9796 60.6652 29.0011 61.4861 27.5277C61.6167 27.292 61.9119 27.2093 62.144 27.3419C62.3762 27.4762 62.4576 27.7743 62.327 28.01C62.018 28.5656 59.277 33.4635 58.2946 34.3984C58.0994 34.5842 57.795 34.5732 57.6121 34.375C57.5982 34.3594 57.5859 34.3438 57.5736 34.3266L57.5721 34.3282Z" fill="#FFDF46"/>
<path d="M57.8657 34.1128C57.8304 34.0628 57.8365 33.9942 57.8811 33.952C58.8127 33.0655 61.7705 27.7633 61.8012 27.7103C61.8335 27.651 61.9088 27.6307 61.9657 27.6635C62.0241 27.6962 62.0441 27.7727 62.0118 27.8305C61.8888 28.049 59.0064 33.2184 58.0471 34.1315C57.9979 34.1783 57.9226 34.1752 57.8765 34.1253C57.8719 34.1221 57.8688 34.1175 57.8657 34.1128Z" fill="white"/>
<g style="mix-blend-mode:screen" filter="url(#filter6_f_55386_54032)">
<path d="M57.0833 34.6871C56.7666 34.2423 56.8173 33.6195 57.2216 33.2356C57.7981 32.6877 59.7551 29.3913 60.9604 27.2264C61.2555 26.6957 61.9196 26.5084 62.4423 26.8081C62.965 27.1093 63.1495 27.782 62.8543 28.3127C62.3424 29.2321 59.7351 33.8708 58.7082 34.8463C58.2701 35.2631 57.5814 35.2412 57.1709 34.7948C57.1386 34.7605 57.1094 34.723 57.0833 34.6856V34.6871Z" fill="#FFAA00"/>
<path d="M57.0833 34.6871C56.7666 34.2423 56.8173 33.6195 57.2216 33.2356C57.7981 32.6877 59.7551 29.3913 60.9604 27.2264C61.2555 26.6957 61.9196 26.5084 62.4423 26.8081C62.965 27.1093 63.1495 27.782 62.8543 28.3127C62.3424 29.2321 59.7351 33.8708 58.7082 34.8463C58.2701 35.2631 57.5814 35.2412 57.1709 34.7948C57.1386 34.7605 57.1094 34.723 57.0833 34.6856V34.6871Z" stroke="#FFAA00"/>
</g>
<defs>
<filter id="filter0_f_55386_54032" x="37.9019" y="8.75232" width="37.0717" height="40.3145" filterUnits="userSpaceOnUse" color-interpolation-filters="sRGB">
<feFlood flood-opacity="0" result="BackgroundImageFix"/>
<feBlend mode="normal" in="SourceGraphic" in2="BackgroundImageFix" result="shape"/>
<feGaussianBlur stdDeviation="3" result="effect1_foregroundBlur_55386_54032"/>
</filter>
<filter id="filter1_f_55386_54032" x="10.5486" y="22.2637" width="67.7288" height="68.6139" filterUnits="userSpaceOnUse" color-interpolation-filters="sRGB">
<feFlood flood-opacity="0" result="BackgroundImageFix"/>
<feBlend mode="normal" in="SourceGraphic" in2="BackgroundImageFix" result="shape"/>
<feGaussianBlur stdDeviation="3" result="effect1_foregroundBlur_55386_54032"/>
</filter>
<filter id="filter2_f_55386_54032" x="34.5884" y="43.968" width="17.9298" height="27.0022" filterUnits="userSpaceOnUse" color-interpolation-filters="sRGB">
<feFlood flood-opacity="0" result="BackgroundImageFix"/>
<feBlend mode="normal" in="SourceGraphic" in2="BackgroundImageFix" result="shape"/>
<feGaussianBlur stdDeviation="3" result="effect1_foregroundBlur_55386_54032"/>
</filter>
<filter id="filter3_f_55386_54032" x="40.878" y="63.205" width="27.2732" height="23.3466" filterUnits="userSpaceOnUse" color-interpolation-filters="sRGB">
<feFlood flood-opacity="0" result="BackgroundImageFix"/>
<feBlend mode="normal" in="SourceGraphic" in2="BackgroundImageFix" result="shape"/>
<feGaussianBlur stdDeviation="3" result="effect1_foregroundBlur_55386_54032"/>
</filter>
<filter id="filter4_f_55386_54032" x="49.5761" y="32.1127" width="22.7686" height="38.8213" filterUnits="userSpaceOnUse" color-interpolation-filters="sRGB">
<feFlood flood-opacity="0" result="BackgroundImageFix"/>
<feBlend mode="normal" in="SourceGraphic" in2="BackgroundImageFix" result="shape"/>
<feGaussianBlur stdDeviation="3" result="effect1_foregroundBlur_55386_54032"/>
</filter>
<filter id="filter5_f_55386_54032" x="50.575" y="12.472" width="20.2439" height="15.8314" filterUnits="userSpaceOnUse" color-interpolation-filters="sRGB">
<feFlood flood-opacity="0" result="BackgroundImageFix"/>
<feBlend mode="normal" in="SourceGraphic" in2="BackgroundImageFix" result="shape"/>
<feGaussianBlur stdDeviation="3" result="effect1_foregroundBlur_55386_54032"/>
</filter>
<filter id="filter6_f_55386_54032" x="50.3775" y="20.165" width="19.1174" height="22.0865" filterUnits="userSpaceOnUse" color-interpolation-filters="sRGB">
<feFlood flood-opacity="0" result="BackgroundImageFix"/>
<feBlend mode="normal" in="SourceGraphic" in2="BackgroundImageFix" result="shape"/>
<feGaussianBlur stdDeviation="3" result="effect1_foregroundBlur_55386_54032"/>
</filter>
<radialGradient id="paint0_radial_55386_54032" cx="0" cy="0" r="1" gradientUnits="userSpaceOnUse" gradientTransform="translate(56.0229 29.6367) rotate(4.22343) scale(13.0881 13.2862)">
<stop offset="0.57" stop-color="#1A1900"/>
<stop offset="0.8" stop-color="#1A1900"/>
<stop offset="1" stop-color="#1A1900"/>
</radialGradient>
<radialGradient id="paint1_radial_55386_54032" cx="0" cy="0" r="1" gradientUnits="userSpaceOnUse" gradientTransform="translate(49.5339 57.6076) rotate(-56.2332) scale(27.9091 27.7504)">
<stop offset="0.57" stop-color="#241D0B"/>
<stop offset="0.8" stop-color="#241D0B"/>
<stop offset="1" stop-color="#241D0B"/>
</radialGradient>
<radialGradient id="paint2_radial_55386_54032" cx="0" cy="0" r="1" gradientUnits="userSpaceOnUse" gradientTransform="translate(43.3677 58.4126) rotate(4.22343) scale(5.5501 5.63412)">
<stop offset="0.57" stop-color="#241D0B"/>
<stop offset="0.8" stop-color="#241D0B"/>
<stop offset="1" stop-color="#241D0B"/>
</radialGradient>
<radialGradient id="paint3_radial_55386_54032" cx="0" cy="0" r="1" gradientUnits="userSpaceOnUse" gradientTransform="translate(54.33 75.8185) rotate(4.22343) scale(7.01219 7.11834)">
<stop offset="0.57" stop-color="#241D0B"/>
<stop offset="0.8" stop-color="#241D0B"/>
<stop offset="1" stop-color="#241D0B"/>
</radialGradient>
<radialGradient id="paint4_radial_55386_54032" cx="0" cy="0" r="1" gradientUnits="userSpaceOnUse" gradientTransform="translate(60.7111 53.6624) rotate(-56.2332) scale(11.0201 10.9574)">
<stop offset="0.57" stop-color="#241D0B"/>
<stop offset="0.8" stop-color="#241D0B"/>
<stop offset="1" stop-color="#241D0B"/>
</radialGradient>
<radialGradient id="paint5_radial_55386_54032" cx="0" cy="0" r="1" gradientUnits="userSpaceOnUse" gradientTransform="translate(60.6755 21.5466) rotate(-56.2332) scale(3.64748 3.62673)">
<stop offset="0.57" stop-color="#241D0B"/>
<stop offset="0.8" stop-color="#241D0B"/>
<stop offset="1" stop-color="#241D0B"/>
</radialGradient>
<radialGradient id="paint6_radial_55386_54032" cx="0" cy="0" r="1" gradientUnits="userSpaceOnUse" gradientTransform="translate(59.7489 31.8477) rotate(4.22343) scale(4.47852 4.54631)">
<stop offset="0.57" stop-color="#241D0B"/>
<stop offset="0.8" stop-color="#241D0B"/>
<stop offset="1" stop-color="#241D0B"/>
</radialGradient>
</defs>
</svg>
